<?xml version="1.0" encoding="UTF-8"?><svg id="Layer_1" xmlns="http://www.w3.org/2000/svg" viewBox="0 0 1442.44 630.25"><defs><style>.cls-1{fill:#c9f9fd;}</style></defs><path class="cls-1" d="M1442.23,28.04c-1.52-11.26-11.2-19.94-22.93-19.94-2.52,0-4.94.41-7.21,1.14-4.22-5.61-10.95-9.24-18.54-9.24-9.12,0-17,5.25-20.77,12.87-3.06-.85-6.29-1.3-9.62-1.3-11.91,0-22.47,5.8-28.97,14.71-3.75-2.6-8.31-4.13-13.22-4.13-6.84,0-12.99,2.96-17.22,7.65-6.3-10.15-17.58-16.91-30.45-16.91-9.33,0-17.82,3.56-24.19,9.38-4.16-3.96-9.79-6.4-16-6.4-12.78,0-23.14,10.31-23.14,23.03,0,2.71.47,5.3,1.33,7.71-3.07,2.41-5.51,5.58-7.04,9.23-1.86-10.87-11.36-19.15-22.81-19.15-7.09,0-13.42,3.17-17.67,8.16-3.11-16.5-17.66-28.99-35.15-28.99-12.67,0-23.8,6.56-30.16,16.45-3.68-2.45-8.1-3.89-12.86-3.89-8.36,0-15.68,4.41-19.74,11.01-5.9.98-11.04,4.19-14.53,8.72-2.7-16.99-17.49-29.98-35.32-29.98-5.39,0-10.51,1.19-15.09,3.32-4.24-4.71-10.39-7.67-17.24-7.67-1.32,0-2.62.12-3.88.33-4.65-3.51-10.2-5.91-16.24-6.81,0,0-.01,0-.02,0-.55-.08-1.1-.15-1.65-.21-.06,0-.13-.01-.19-.02-.52-.05-1.03-.09-1.56-.12-.07,0-.14-.01-.21-.01-.57-.03-1.14-.04-1.72-.04,0,0-.02,0-.03,0s-.02,0-.03,0c-.58,0-1.15.02-1.72.04-.07,0-.14,0-.21.01-.52.03-1.04.07-1.56.12-.06,0-.13.01-.19.02-.56.06-1.11.13-1.65.21,0,0-.01,0-.02,0-6.04.9-11.59,3.3-16.24,6.81-1.26-.21-2.56-.33-3.88-.33-6.85,0-13,2.96-17.24,7.67-4.59-2.13-9.7-3.32-15.09-3.32-17.84,0-32.62,12.99-35.32,29.98-3.49-4.53-8.63-7.74-14.53-8.72-4.07-6.61-11.39-11.01-19.74-11.01-4.76,0-9.18,1.43-12.86,3.89-6.35-9.89-17.49-16.45-30.16-16.45-17.49,0-32.04,12.49-35.15,28.99-4.25-4.99-10.58-8.16-17.67-8.16-11.45,0-20.95,8.28-22.81,19.15-1.53-3.65-3.97-6.82-7.04-9.23.86-2.41,1.33-5.01,1.33-7.71,0-12.72-10.36-23.03-23.14-23.03-6.21,0-11.85,2.44-16,6.4-6.37-5.82-14.86-9.38-24.19-9.38-12.87,0-24.15,6.76-30.45,16.91-4.24-4.7-10.38-7.65-17.23-7.65-4.92,0-9.47,1.53-13.22,4.13-6.5-8.91-17.05-14.71-28.97-14.71-3.33,0-6.56.46-9.62,1.3-3.77-7.63-11.66-12.87-20.77-12.87-7.59,0-14.32,3.63-18.54,9.24-.25-.08-.51-.14-.77-.22-.1-.03-.2-.06-.31-.09-.54-.15-1.09-.28-1.65-.39-.13-.03-.26-.05-.39-.08-.57-.1-1.15-.18-1.74-.24-.1-.01-.2-.03-.31-.04-.68-.06-1.36-.1-2.06-.1,0,0-.02,0-.03,0s-.02,0-.03,0c-.69,0-1.38.04-2.06.1-.1,0-.2.03-.31.04-.59.06-1.17.14-1.74.24-.13.02-.26.05-.39.08-.56.11-1.11.24-1.65.39-.1.03-.2.06-.31.09-.25.07-.51.14-.77.22-4.22-5.61-10.95-9.24-18.54-9.24-9.12,0-17,5.25-20.77,12.87-3.06-.85-6.29-1.3-9.62-1.3-11.91,0-22.47,5.8-28.97,14.71-3.75-2.6-8.31-4.13-13.22-4.13-6.84,0-12.99,2.96-17.23,7.65-6.3-10.15-17.58-16.91-30.45-16.91-9.33,0-17.82,3.56-24.19,9.38-4.16-3.96-9.79-6.4-16-6.4-12.78,0-23.14,10.31-23.14,23.03,0,2.71.47,5.3,1.33,7.71-3.07,2.41-5.51,5.58-7.04,9.23-1.86-10.87-11.36-19.15-22.81-19.15-7.09,0-13.42,3.17-17.67,8.16-3.11-16.5-17.66-28.99-35.15-28.99-12.67,0-23.8,6.56-30.16,16.45-3.68-2.45-8.1-3.89-12.86-3.89-8.36,0-15.68,4.41-19.74,11.01-5.9.98-11.04,4.19-14.53,8.72-2.7-16.99-17.49-29.98-35.32-29.98-5.39,0-10.51,1.19-15.09,3.32-4.24-4.71-10.39-7.67-17.24-7.67-1.32,0-2.62.12-3.88.33-6-4.53-13.48-7.22-21.59-7.22C16.33,6.94.44,22.55.12,41.93h0v16.2h-.11v501.7l431.72,70.42,97.12-22.01,393.48-48.41h520.13V28.04h-.21Z"/></svg>