<?xml version="1.0" encoding="UTF-8"?><svg id="Layer_1" xmlns="http://www.w3.org/2000/svg" viewBox="0 0 290.45 90.14"><defs><style>.cls-1{fill:#fff;}.cls-2{fill:#c9f9fd;}</style></defs><polygon class="cls-1" points="285.44 60.09 280.43 60.09 275.42 60.09 270.42 60.09 270.42 55.08 270.42 50.08 270.42 45.07 270.42 40.06 270.42 35.05 270.42 30.05 265.41 30.05 265.41 25.04 265.41 20.03 260.4 20.03 260.4 15.02 260.4 10.02 255.39 10.02 255.39 5.01 250.39 5.01 245.38 5.01 245.38 0 240.37 0 235.36 0 235.36 5.01 230.35 5.01 225.35 5.01 220.34 5.01 220.34 10.02 215.33 10.02 215.33 15.02 210.32 15.02 205.32 15.02 205.32 20.03 200.31 20.03 200.31 25.04 200.31 30.05 195.3 30.05 195.3 35.05 195.3 40.06 195.3 45.07 190.29 45.07 185.28 45.07 180.28 45.07 175.27 45.07 170.26 45.07 170.26 40.06 165.25 40.06 165.25 35.05 160.25 35.05 155.24 35.05 155.24 30.05 150.23 30.05 145.22 30.05 140.22 30.05 135.21 30.05 130.2 30.05 125.19 30.05 120.18 30.05 120.18 35.05 115.18 35.05 110.17 35.05 110.17 40.06 105.16 40.06 100.15 40.06 100.15 45.07 95.15 45.07 90.14 45.07 90.14 50.08 85.13 50.08 85.13 55.08 80.12 55.08 75.12 55.08 75.12 50.08 70.11 50.08 65.1 50.08 65.1 45.07 60.09 45.07 60.09 50.08 55.08 50.08 50.08 50.08 50.08 55.08 50.08 60.09 45.07 60.09 40.06 60.09 35.05 60.09 30.05 60.09 25.04 60.09 20.03 60.09 15.02 60.09 10.02 60.09 10.02 65.1 5.01 65.1 5.01 70.11 0 70.11 0 75.12 5.01 75.12 5.01 80.12 10.02 80.12 15.02 80.12 20.03 80.12 25.04 80.12 30.05 80.12 30.05 75.12 35.05 75.12 40.06 75.12 45.07 75.12 45.07 80.12 50.08 80.12 50.08 85.13 55.08 85.13 55.08 90.14 60.09 90.14 65.1 90.14 70.11 90.14 75.12 90.14 80.12 90.14 85.13 90.14 90.14 90.14 95.15 90.14 100.15 90.14 105.16 90.14 110.17 90.14 115.18 90.14 120.18 90.14 120.18 85.13 125.19 85.13 130.2 85.13 130.2 80.12 135.21 80.12 140.22 80.12 145.22 80.12 150.23 80.12 155.24 80.12 155.24 85.13 160.25 85.13 165.25 85.13 170.26 85.13 175.27 85.13 180.28 85.13 185.28 85.13 190.29 85.13 195.3 85.13 200.31 85.13 205.32 85.13 205.32 80.12 210.32 80.12 215.33 80.12 220.34 80.12 225.35 80.12 230.35 80.12 230.35 75.12 235.36 75.12 240.37 75.12 245.38 75.12 245.38 80.12 250.39 80.12 250.39 85.13 255.39 85.13 260.4 85.13 265.41 85.13 270.42 85.13 270.42 80.12 275.42 80.12 275.42 75.12 275.42 70.11 280.43 70.11 285.44 70.11 290.45 70.11 290.45 65.1 290.45 60.09 285.44 60.09"/><polygon class="cls-2" points="249.59 7.49 254.59 7.49 254.59 12.5 254.59 17.51 259.6 17.51 259.6 22.51 259.6 27.52 259.6 32.53 259.6 37.54 259.6 42.54 259.6 47.55 264.61 47.55 269.62 47.55 270.42 47.55 270.42 45.07 270.42 40.06 270.42 35.05 270.42 30.05 265.41 30.05 265.41 25.04 265.41 20.03 260.4 20.03 260.4 15.02 260.4 10.02 255.39 10.02 255.39 5.01 250.39 5.01 249.59 5.01 249.59 7.49"/><polygon class="cls-2" points="285.44 60.09 280.43 60.09 275.42 60.09 270.42 60.09 270.42 57.57 269.62 57.57 264.61 57.57 264.61 62.58 264.61 67.58 259.6 67.58 259.6 72.59 254.59 72.59 249.59 72.59 244.58 72.59 239.57 72.59 239.57 67.58 234.56 67.58 234.56 62.58 229.55 62.58 224.55 62.58 219.54 62.58 219.54 67.58 214.53 67.58 209.52 67.58 204.52 67.58 199.51 67.58 194.5 67.58 194.5 72.59 189.49 72.59 184.49 72.59 179.48 72.59 174.47 72.59 169.46 72.59 164.45 72.59 159.45 72.59 154.44 72.59 149.43 72.59 144.42 72.59 144.42 67.58 139.42 67.58 134.41 67.58 129.4 67.58 124.39 67.58 119.38 67.58 119.38 72.59 114.38 72.59 109.37 72.59 109.37 77.6 104.36 77.6 99.35 77.6 94.35 77.6 89.34 77.6 84.33 77.6 79.32 77.6 74.32 77.6 69.31 77.6 64.3 77.6 59.29 77.6 54.28 77.6 49.28 77.6 45.07 77.6 45.07 80.12 50.08 80.12 50.08 85.13 55.08 85.13 55.08 90.14 60.09 90.14 65.1 90.14 70.11 90.14 75.12 90.14 80.12 90.14 85.13 90.14 90.14 90.14 95.15 90.14 100.15 90.14 105.16 90.14 110.17 90.14 115.18 90.14 120.18 90.14 120.18 85.13 125.19 85.13 130.2 85.13 130.2 80.12 135.21 80.12 140.22 80.12 145.22 80.12 150.23 80.12 155.24 80.12 155.24 85.13 160.25 85.13 165.25 85.13 170.26 85.13 175.27 85.13 180.28 85.13 185.29 85.13 190.29 85.13 195.3 85.13 200.31 85.13 205.32 85.13 205.32 80.12 210.32 80.12 215.33 80.12 220.34 80.12 225.35 80.12 230.35 80.12 230.35 75.12 235.36 75.12 240.37 75.12 245.38 75.12 245.38 80.12 250.39 80.12 250.39 85.13 255.39 85.13 260.4 85.13 265.41 85.13 270.42 85.13 270.42 80.12 275.42 80.12 275.42 75.12 275.42 70.11 280.43 70.11 285.44 70.11 290.45 70.11 290.45 65.1 290.45 60.09 285.44 60.09"/><polygon class="cls-2" points="44.27 72.59 39.26 72.59 39.26 67.58 34.25 67.58 34.25 62.58 29.25 62.58 24.24 62.58 19.23 62.58 19.23 67.58 14.22 67.58 9.22 67.58 5.01 67.58 5.01 70.11 0 70.11 0 75.12 5.01 75.12 5.01 80.12 10.02 80.12 15.02 80.12 20.03 80.12 25.04 80.12 30.05 80.12 30.05 75.12 35.05 75.12 40.06 75.12 44.27 75.12 44.27 72.59"/></svg>