<?xml version="1.0" encoding="UTF-8"?><svg id="Layer_1" xmlns="http://www.w3.org/2000/svg" viewBox="0 0 254.58 109.11"><defs><style>.cls-1{fill:#fff;}.cls-2{fill:#c9f9fd;}</style></defs><polygon class="cls-1" points="248.52 66.68 242.46 66.68 236.4 66.68 236.4 60.61 230.33 60.61 224.27 60.61 218.21 60.61 212.15 60.61 206.09 60.61 200.03 60.61 200.03 66.68 193.97 66.68 187.9 66.68 187.9 60.61 187.9 54.55 187.9 48.49 181.84 48.49 181.84 42.43 181.84 36.37 175.78 36.37 169.72 36.37 163.66 36.37 163.66 42.43 157.6 42.43 157.6 48.49 151.54 48.49 145.47 48.49 145.47 42.43 145.47 36.37 145.47 30.31 145.47 24.25 145.47 18.18 139.41 18.18 133.35 18.18 133.35 12.12 133.35 6.06 127.29 6.06 127.29 0 121.23 0 115.17 0 109.11 0 103.04 0 96.98 0 90.92 0 84.86 0 78.8 0 72.74 0 66.68 0 66.68 6.06 60.61 6.06 54.55 6.06 54.55 12.12 54.55 18.18 48.49 18.18 42.43 18.18 36.37 18.18 36.37 24.25 36.37 30.31 36.37 36.37 36.37 42.43 30.31 42.43 30.31 48.49 24.25 48.49 18.18 48.49 18.18 54.55 12.12 54.55 6.06 54.55 6.06 60.61 0 60.61 0 66.68 0 72.74 6.06 72.74 6.06 78.8 6.06 84.86 12.12 84.86 12.12 90.92 18.18 90.92 24.25 90.92 30.31 90.92 36.37 90.92 36.37 96.98 42.43 96.98 48.49 96.98 48.49 103.04 54.55 103.04 60.61 103.04 60.61 109.11 66.68 109.11 72.74 109.11 78.8 109.11 84.86 109.11 90.92 109.11 96.98 109.11 103.04 109.11 109.11 109.11 115.17 109.11 121.23 109.11 127.29 109.11 133.35 109.11 139.41 109.11 139.41 103.04 145.47 103.04 151.54 103.04 151.54 96.98 157.6 96.98 163.66 96.98 163.66 90.92 169.72 90.92 175.78 90.92 181.84 90.92 187.9 90.92 193.97 90.92 200.03 90.92 206.09 90.92 212.15 90.92 218.21 90.92 224.27 90.92 230.33 90.92 236.4 90.92 242.46 90.92 248.52 90.92 248.52 84.86 254.58 84.86 254.58 78.8 254.58 72.74 254.58 66.68 248.52 66.68"/><polygon class="cls-2" points="181.84 36.37 177.09 36.37 177.09 42.01 177.09 48.07 177.09 54.14 183.15 54.14 187.9 54.14 187.9 48.49 181.84 48.49 181.84 42.43 181.84 36.37"/><rect class="cls-2" x="122.54" y="0" width="4.75" height="5.64"/><polygon class="cls-2" points="134.66 23.83 134.66 29.89 134.66 35.95 140.72 35.95 145.47 35.95 145.47 30.31 145.47 24.25 145.47 18.18 139.41 18.18 134.66 18.18 134.66 23.83"/><rect class="cls-2" y="72.32" width="1.31" height=".42"/><polygon class="cls-2" points="248.52 66.68 243.76 66.68 243.76 72.32 237.7 72.32 237.7 78.38 231.64 78.38 225.58 78.38 219.52 78.38 213.46 78.38 207.4 78.38 201.33 78.38 195.27 78.38 189.21 78.38 183.15 78.38 177.09 78.38 171.03 78.38 164.97 78.38 158.9 78.38 152.84 78.38 152.84 84.44 146.78 84.44 140.72 84.44 140.72 90.5 134.66 90.5 128.6 90.5 128.6 96.57 122.54 96.57 116.47 96.57 110.41 96.57 104.35 96.57 98.29 96.57 92.23 96.57 86.17 96.57 80.11 96.57 74.04 96.57 67.98 96.57 61.92 96.57 55.86 96.57 49.8 96.57 49.8 90.5 43.74 90.5 37.68 90.5 37.68 84.44 31.61 84.44 25.55 84.44 25.55 78.38 19.49 78.38 13.43 78.38 7.37 78.38 6.06 78.38 6.06 78.8 6.06 84.86 12.12 84.86 12.12 90.92 18.18 90.92 24.25 90.92 30.31 90.92 36.37 90.92 36.37 96.98 42.43 96.98 48.49 96.98 48.49 103.04 54.55 103.04 60.61 103.04 60.61 109.11 66.68 109.11 72.74 109.11 78.8 109.11 84.86 109.11 90.92 109.11 96.98 109.11 103.04 109.11 109.11 109.11 115.17 109.11 121.23 109.11 127.29 109.11 133.35 109.11 139.41 109.11 139.41 103.04 145.47 103.04 151.54 103.04 151.54 96.98 157.6 96.98 163.66 96.98 163.66 90.92 169.72 90.92 175.78 90.92 181.84 90.92 187.9 90.92 193.97 90.92 200.03 90.92 206.09 90.92 212.15 90.92 218.21 90.92 224.27 90.92 230.33 90.92 236.4 90.92 242.46 90.92 248.52 90.92 248.52 84.86 254.58 84.86 254.58 78.8 254.58 72.74 254.58 66.68 248.52 66.68"/></svg>