<?xml version="1.0" encoding="UTF-8"?><svg id="Layer_1" xmlns="http://www.w3.org/2000/svg" viewBox="0 0 228.51 106.64"><defs><style>.cls-1{fill:#fff;}.cls-2{fill:#c9f9fd;}</style></defs><polygon class="cls-1" points="224.7 79.98 220.89 79.98 220.89 76.17 217.09 76.17 217.09 72.36 213.28 72.36 209.47 72.36 209.47 68.55 205.66 68.55 201.85 68.55 198.04 68.55 194.23 68.55 190.43 68.55 190.43 64.74 190.43 60.94 190.43 57.13 186.62 57.13 186.62 53.32 186.62 49.51 182.81 49.51 182.81 45.7 182.81 41.89 179 41.89 175.19 41.89 171.38 41.89 171.38 38.09 167.57 38.09 163.77 38.09 159.96 38.09 156.15 38.09 156.15 41.89 152.34 41.89 148.53 41.89 148.53 45.7 144.72 45.7 144.72 41.89 144.72 38.09 144.72 34.28 144.72 30.47 144.72 26.66 144.72 22.85 140.91 22.85 140.91 19.04 137.11 19.04 137.11 15.23 137.11 11.43 133.3 11.43 133.3 7.62 129.49 7.62 129.49 3.81 125.68 3.81 125.68 0 121.87 0 118.06 0 114.26 0 114.26 3.81 110.45 3.81 106.64 3.81 102.83 3.81 102.83 7.62 102.83 11.43 99.02 11.43 95.21 11.43 95.21 15.23 91.4 15.23 91.4 19.04 91.4 22.85 91.4 26.66 91.4 30.47 91.4 34.28 87.6 34.28 87.6 38.09 87.6 41.89 87.6 45.7 83.79 45.7 79.98 45.7 76.17 45.7 72.36 45.7 68.55 45.7 64.74 45.7 60.94 45.7 57.13 45.7 57.13 49.51 53.32 49.51 53.32 53.32 49.51 53.32 45.7 53.32 45.7 57.13 45.7 60.94 45.7 64.74 45.7 68.55 41.89 68.55 38.09 68.55 34.28 68.55 30.47 68.55 26.66 68.55 22.85 68.55 22.85 72.36 19.04 72.36 19.04 76.17 15.23 76.17 15.23 79.98 11.43 79.98 7.62 79.98 7.62 83.79 3.81 83.79 3.81 87.6 0 87.6 0 91.4 3.81 91.4 7.62 91.4 11.43 91.4 15.23 91.4 15.23 95.21 19.04 95.21 22.85 95.21 26.66 95.21 26.66 99.02 30.47 99.02 34.28 99.02 38.09 99.02 41.89 99.02 45.7 99.02 45.7 102.83 49.51 102.83 53.32 102.83 57.13 102.83 60.94 102.83 64.74 102.83 68.55 102.83 72.36 102.83 76.17 102.83 79.98 102.83 83.79 102.83 87.6 102.83 91.4 102.83 95.21 102.83 99.02 102.83 102.83 102.83 106.64 102.83 106.64 99.02 110.45 99.02 114.26 99.02 118.06 99.02 121.87 99.02 125.68 99.02 129.49 99.02 133.3 99.02 137.11 99.02 137.11 102.83 140.91 102.83 144.72 102.83 148.53 102.83 148.53 106.64 152.34 106.64 156.15 106.64 156.15 102.83 159.96 102.83 163.77 102.83 163.77 99.02 167.57 99.02 171.38 99.02 171.38 102.83 175.19 102.83 179 102.83 182.81 102.83 182.81 99.02 186.62 99.02 190.43 99.02 194.23 99.02 198.04 99.02 201.85 99.02 205.66 99.02 209.47 99.02 209.47 95.21 213.28 95.21 217.09 95.21 220.89 95.21 220.89 91.4 224.7 91.4 228.51 91.4 228.51 87.6 228.51 83.79 228.51 79.98 224.7 79.98"/><rect class="cls-2" x="130.1" y="7.62" width="3.2" height="2.69"/><polygon class="cls-2" points="137.11 11.43 133.91 11.43 133.91 14.12 133.91 17.93 133.91 21.74 133.91 25.55 133.91 29.35 133.91 33.16 137.72 33.16 137.72 29.35 141.53 29.35 144.72 29.35 144.72 26.66 144.72 22.85 140.92 22.85 140.92 19.04 137.11 19.04 137.11 15.23 137.11 11.43"/><polygon class="cls-2" points="175.8 44.59 179.61 44.59 179.61 48.4 179.61 52.2 179.61 56.01 183.42 56.01 186.62 56.01 186.62 53.32 186.62 49.51 182.81 49.51 182.81 45.7 182.81 41.89 179 41.89 175.8 41.89 175.8 44.59"/><rect class="cls-2" x="126.29" y="3.81" width="3.2" height="2.69"/><polygon class="cls-2" points="224.7 79.98 220.89 79.98 220.89 76.17 217.7 76.17 217.7 78.86 213.89 78.86 210.08 78.86 210.08 82.67 206.27 82.67 202.46 82.67 198.65 82.67 198.65 86.48 194.84 86.48 191.04 86.48 187.23 86.48 183.42 86.48 179.61 86.48 175.8 86.48 171.99 86.48 171.99 90.29 168.18 90.29 164.38 90.29 160.57 90.29 160.57 86.48 156.76 86.48 152.95 86.48 152.95 90.29 149.14 90.29 145.33 90.29 145.33 94.1 141.53 94.1 137.72 94.1 137.72 90.29 133.91 90.29 130.1 90.29 126.29 90.29 126.29 86.48 122.48 86.48 118.67 86.48 114.87 86.48 111.06 86.48 107.25 86.48 103.44 86.48 99.63 86.48 95.82 86.48 95.82 90.29 92.01 90.29 88.21 90.29 84.4 90.29 80.59 90.29 76.78 90.29 72.97 90.29 69.16 90.29 65.35 90.29 61.55 90.29 57.74 90.29 53.93 90.29 50.12 90.29 46.31 90.29 42.5 90.29 38.7 90.29 34.89 90.29 34.89 86.48 31.08 86.48 27.27 86.48 23.46 86.48 19.65 86.48 15.84 86.48 15.84 82.67 12.04 82.67 8.23 82.67 7.62 82.67 7.62 83.79 3.81 83.79 3.81 87.6 0 87.6 0 91.4 3.81 91.4 7.62 91.4 11.43 91.4 15.23 91.4 15.23 95.21 19.04 95.21 22.85 95.21 26.66 95.21 26.66 99.02 30.47 99.02 34.28 99.02 38.08 99.02 41.89 99.02 45.7 99.02 45.7 102.83 49.51 102.83 53.32 102.83 57.13 102.83 60.94 102.83 64.74 102.83 68.55 102.83 72.36 102.83 76.17 102.83 79.98 102.83 83.79 102.83 87.6 102.83 91.4 102.83 95.21 102.83 99.02 102.83 102.83 102.83 106.64 102.83 106.64 99.02 110.45 99.02 114.26 99.02 118.06 99.02 121.87 99.02 125.68 99.02 129.49 99.02 133.3 99.02 137.11 99.02 137.11 102.83 140.92 102.83 144.72 102.83 148.53 102.83 148.53 106.64 152.34 106.64 156.15 106.64 156.15 102.83 159.96 102.83 163.77 102.83 163.77 99.02 167.57 99.02 171.38 99.02 171.38 102.83 175.19 102.83 179 102.83 182.81 102.83 182.81 99.02 186.62 99.02 190.43 99.02 194.23 99.02 198.04 99.02 201.85 99.02 205.66 99.02 209.47 99.02 209.47 95.21 213.28 95.21 217.09 95.21 220.89 95.21 220.89 91.4 224.7 91.4 228.51 91.4 228.51 87.6 228.51 83.79 228.51 79.98 224.7 79.98"/></svg>