<?xml version="1.0" encoding="UTF-8"?><svg id="Layer_1" xmlns="http://www.w3.org/2000/svg" viewBox="0 0 70.71 23.7"><defs><style>.cls-1{fill:#8c4f49;}</style></defs><ellipse class="cls-1" cx="40.19" cy="12.97" rx="6.55" ry="2.51"/><path class="cls-1" d="M21.73,10.95c0,1.12-2.73,2.02-6.1,2.02s-6.1-.9-6.1-2.02,2.73-2.02,6.1-2.02,6.1.9,6.1,2.02Z"/><path class="cls-1" d="M38.41,1.19c0,.66-2.4,1.19-5.36,1.19s-5.36-.53-5.36-1.19,2.4-1.19,5.36-1.19,5.36.53,5.36,1.19Z"/><path class="cls-1" d="M30.96,6.1c0,.49-1.17.89-2.61.89s-2.61-.4-2.61-.89,1.17-.89,2.61-.89,2.61.4,2.61.89Z"/><ellipse class="cls-1" cx="30.43" cy="21.97" rx="5.87" ry="1.72"/><path class="cls-1" d="M59.99,21.11c0,.48-1.67.86-3.72.86s-3.72-.39-3.72-.86,1.67-.86,3.72-.86,3.72.39,3.72.86Z"/><path class="cls-1" d="M70.71,11.71c0,.69-1.83,1.26-4.09,1.26s-4.09-.56-4.09-1.26,1.83-1.26,4.09-1.26,4.09.56,4.09,1.26Z"/><path class="cls-1" d="M9.53,17.64c0,.53-2.13.97-4.76.97s-4.76-.43-4.76-.97,2.13-.97,4.76-.97,4.76.43,4.76.97Z"/></svg>
