<?xml version="1.0" encoding="UTF-8"?><svg id="Layer_1" xmlns="http://www.w3.org/2000/svg" viewBox="0 0 190.44 87.21"><defs><style>.cls-1{fill:#9f5a47;}.cls-2{fill:#010101;}.cls-3{fill:#090807;}.cls-4{fill:#030302;}.cls-5{fill:#ffb76c;}.cls-6{fill:#c87435;}.cls-7{fill:#020202;}.cls-8{fill:#bb7354;}.cls-9{fill:#070504;}.cls-10{fill:#c64744;}.cls-11{fill:#020201;}.cls-12{fill:#933735;}.cls-13{fill:#ffd7b3;}.cls-14{fill:#c12d1e;}.cls-15{fill:#040303;}.cls-16{fill:#f45e45;}.cls-17{fill:#c24b38;}.cls-18{fill:#bc7354;}.cls-19{fill:#010000;}.cls-20{fill:#010100;}.cls-21{fill:#c78b60;}.cls-22{fill:#e2c59c;}.cls-23{fill:#a54841;}.cls-24{fill:#e58b41;}.cls-25{fill:#a05b47;}.cls-26{fill:#f2a25a;}.cls-27{fill:#020101;}.cls-28{fill:#af3535;}.cls-29{fill:#ffd4cf;}.cls-30{fill:#ff7759;}.cls-31{fill:#e04b36;}.cls-32{fill:#030202;}</style></defs><path class="cls-30" d="M188.62,3.64c.57,0,1.14,0,1.7,0,.06,0,.1.05.12.15-.57.39-1.2.18-1.81.22-.61.02-1.23.02-1.84,0-4.71.05-9.42-.03-14.05.04-.27.4-.26.69-.1,1.07,1.64.28,3.36-.1,4.94.2.52.5.21,1.13.56,1.63.91.15,1.85.1,2.7.02.24-.24.23-.45.26-.65.13-.91.3-1.1,1.2-1.1.89,0,1.81-.16,2.68.16.3.65.28,1.25.06,1.82-.44.42-1.03.18-1.48.45-.33.41-.04,1.01-.41,1.44-.39.34-.97.1-1.42.36-.21.33-.19.66-.02,1.07,1.03.35,2.18-.1,3.16.27.24.23.3.45.31.68.04,1.46.04,2.92,0,4.39,0,.15-.05.3-.12.43-.41.45-1.03.12-1.51.41-.36.43.03,1.11-.43,1.54-1.14.17-2.28.26-3.42,0-.31-.27-.24-.64-.24-.99-.02-.8-.19-1.58-.24-2.34-.52-.31-1.08-.04-1.52-.33-.39-.44-.08-1.04-.35-1.53-.43-.25-.92-.08-1.38-.14-.65-.08-1.34.17-1.96-.21-.29-.42-.09-.95-.31-1.39-.36-.27-.78-.19-1.17-.19-5.71,0-11.41,0-17.12,0-.45,0-.91.06-1.32-.19-.4-.41-.14-1-.44-1.5-1.01-.35-2.17.12-3.15-.29-.44-.47-.19-1.05-.51-1.55-.9-.16-1.84-.15-2.73,0-.33.48-.12,1.03-.49,1.54-.95.46-2.11-.04-3.15.31-.35.44-.09,1.03-.45,1.46-.23.2-.53.21-.83.22-.38.01-.76,0-1.14,0-32.64,0-90.29,0-122.93,0-.5,0-1.01-.07-1.47.13-.32.44-.1.99-.36,1.41-.54.44-1.18.17-1.77.25-.52.04-1.06-.1-1.56.13-.31.43-.07.96-.27,1.4-.04.08-.1.14-.17.18-.42.2-.9.02-1.34.22-.43.44.02,1.16-.47,1.59-1.24.25-2.5.07-3.75.11-.54.01-1.11.12-1.6-.15-.41-.43-.16-1-.42-1.47-.39-.31-.93-.07-1.35-.29-.52-.37-.12-1.03-.46-1.45-.36-.21-.8-.04-1.17-.21-.08-.04-.14-.1-.16-.19.02-.04.03-.08.05-.12.04-.02.07-.05.11-.07.37-.18.81,0,1.21-.27.24-.66.07-1.37.12-2.06.03-.42-.08-.86.21-1.24.44-.3,1-.04,1.53-.36-.02-1.09.35-1.91,1.61-1.66.3-.29.28-.55.29-.8.03-.64.35-.99,1-.98.95.01,1.91-.14,2.78.12.44.47.19,1.04.43,1.51.33.23.69.2,1.14,0-.08-1.19.5-1.84,1.71-1.73.21-.37.21-.66.06-.96-.31-.24-.67-.17-1.01-.17-2.75,0-5.5,0-8.24,0-.3,0-.61.02-.9-.09-.14-.06-.38-.11-.18-.36.25-.16.53-.16.8-.17.3,0,.61,0,.91,0,51.7,0,128.41,0,180.11,0,.35,0,.71-.02,1.06.02.63.04,1.29-.18,1.88.22Z"/><path class="cls-23" d="M3.79,87.2c-.06.02-.11,0-.12-.05-.02-.07-.03-.14-.03-.21,0-.45,0-.89,0-1.32-.04-.07-.08-.08-.13-.08-.47,0-.94,0-1.42,0-.07,0-.1-.05-.11-.16.41-.31.89-.1,1.3-.32.21-.3.14-.63.08-.95-.36-.23-.69-.2-1.02-.06-.31.41,0,.97-.36,1.34-.07.03-.11.01-.13-.04-.02-.04-.03-.09-.03-.14,0-.49,0-.98,0-1.48-.06-.07-.11-.16-.15-.24-.07-1.14-.25-2.29.11-3.42.6-.28,1.22-.23,1.83-.05.44.42.06,1.08.44,1.52.36.27.78.16,1.18.16,25.62,0,76.24,0,101.85,0,.5,0,1.01-.09,1.52.16.39.59.29,1.21.12,1.77-.47.46-1.05.22-1.5.48-.19.28-.18.56-.02.86.38.26.82.17,1.24.17,10.22,0,20.44,0,30.67,0,15.55,0,31.1,0,46.64,0,.33,0,.66-.02.98.02.63.04,1.29-.18,1.88.22.02.06,0,.1-.05.13-.04.02-.09.03-.14.03-.54,0-1.09,0-1.63,0-.24.22-.55.23-.85.24-.35,0-.71,0-1.06,0-51.4,0-127.79,0-179.19,0-.5,0-1.01-.07-1.47.12-.3.41-.09.95-.44,1.3Z"/><path class="cls-17" d="M186.8,85.38c-26.63,0-53.25,0-79.88,0-.02,0-.04-.02-.06-.03-.02-.02-.04-.04-.04-.06,0-.5,0-1.01,0-1.5.04-.06.08-.08.13-.08.5,0,1.01,0,1.51,0,.06,0,.1,0,.14-.04.01-.02.04-.04.04-.06,0-.55,0-1.11,0-1.63-.04-.08-.09-.09-.14-.09-.23,0-.45,0-.68,0-26.12,0-77.24,0-103.36,0-.25,0-.5.03-.75-.02-.06-.01-.07-.07-.05-.13.24-.22.55-.23.85-.24.38,0,.76,0,1.14,0,51.43,0,127.86,0,179.28,0,.5,0,1.01.07,1.46-.12.3-.46.07-1,.37-1.41.6-.4,1.23-.32,1.86-.11.3.3.23.69.24,1.06.03.74-.07,1.49.07,2.21.47.37,1.1.04,1.52.43.02.06,0,.1-.05.13-.04.02-.09.03-.14.03-.54,0-1.09,0-1.63,0-.42.37-.99.09-1.45.34-.3.39,0,.95-.37,1.33Z"/><path class="cls-2" d="M3.64,1.82V.23c.07-.07.14-.14.23-.23h.59c52.23,0,129.46,0,181.69,0,.2,0,.4-.03.6.02.06.02.07.07.05.13.11.58.15,1.16-.03,1.73-.37.23-.79.15-1.18.15-8.2,0-16.41,0-24.61,0-43.62,0-112.25,0-155.87,0-.49,0-1.02.15-1.46-.21Z"/><path d="M3.79,87.2c0-.53,0-1.06,0-1.59.04-.03.08-.07.12-.07.23,0,.45,0,.68,0h182.21c0,.53,0,1.06,0,1.59-.04.03-.08.07-.12.07-.23,0-.45,0-.68,0H3.79Z"/><path class="cls-2" d="M0,54.5V18.32c.59-.16,1.19-.05,1.87-.06.38,1.22.05,2.48.17,3.7.05.45.02.91.02,1.36,0,9.72.02,19.44,0,29.15,0,.09-.02.18-.02.28-.04.53.04,1.06-.07,1.59-.03.08-.08.15-.16.21-.09.02-.17.03-.26.03-.51-.04-1.04.09-1.54-.07Z"/><path class="cls-19" d="M190.44,20.14v21.65c-.61.13-1.23.1-1.85.02-.31-.45-.19-.96-.2-1.44-.01-.67-.03-1.33,0-2,0-.1,0-.2,0-.29-.03-4.73-.03-9.46,0-14.19,0-.1,0-.19,0-.29-.03-.89-.01-1.78,0-2.67,0-.27,0-.55.19-.78.62-.11,1.24-.12,1.86,0Z"/><path class="cls-20" d="M190.44,83.57c-.58,0-1.15,0-1.73,0-.02,0-.04-.03-.06-.04-.01-.02-.03-.04-.03-.06,0-1.18,0-2.35,0-3.53-.24-.27-.24-.6-.24-.92,0-2.02-.02-4.05.01-6.07,0-.1,0-.19,0-.29.03-.56-.14-1.15.2-1.68.61-.06,1.23-.11,1.84.03v12.56Z"/><path class="cls-2" d="M0,3.79c.58,0,1.16,0,1.73,0,.02,0,.04.03.06.05,0,.02.03.04.03.06,0,2.94,0,5.88,0,8.82.05.09.09.17.13.26.11,1.12.19,2.24-.02,3.39-.69.07-1.31.12-1.92-.02V3.79Z"/><path class="cls-2" d="M188.62,3.79h1.82v12.56c-.59.16-1.18.05-1.79.06-.4-.52-.23-1.11-.25-1.66,0-.1,0-.2,0-.3-.04-3.27-.01-6.54-.02-9.81,0-.3.02-.61.24-.85Z"/><path class="cls-23" d="M188.62,41.79h1.82c.02.06,0,.1-.05.13-.04.02-.09.03-.14.03-.54,0-1.09,0-1.63,0-.55.38-1.17.19-1.76.22-1.09.03-2.19-.05-3.25.05-.36.46-.17.93-.21,1.36,0,.09-.05.17-.12.24-.09.04-.17.07-.27.07-.98-.03-1.96-.1-3.07.05-.09,4.77,0,9.49-.05,14.22.04,2.79.02,5.58,0,8.37,0,.32.03.67-.31.88-.1-.04-.17-.11-.21-.2-.13-.34-.1-.69-.1-1.04,0-7.73,0-15.45,0-23.18,0-.38-.03-.76.14-1.11.05-.09.13-.15.22-.2,1.16-.21,2.33-.07,3.49-.09.62-.02,1.25-.02,1.87,0,.92-.04,1.84-.01,2.77-.01.3,0,.6.01.84.23Z"/><path class="cls-4" d="M186.8,41.94h1.82c0,.53,0,1.06,0,1.59.04.03.08.07.12.07.48,0,.96,0,1.44,0,.07,0,.14.01.2.02.03.03.05.05.05.07,0,8.45,0,16.9,0,25.34-.05,0-.1.02-.15.03-.03-.04-.07-.07-.1-.11-.21-.43-.14-.89-.14-1.34,0-7.41,0-14.83,0-22.24,0-.4.05-.81-.12-1.17-.24-.2-.48-.18-.72-.1-.28.37-.19.79-.19,1.18,0,7.41,0,14.83,0,22.24,0,.43.04.86-.07,1.28-.03.09-.08.17-.15.24-.1.04-.18.02-.25-.07-.24-.53-.11-1.09-.14-1.64,0-.1,0-.19-.01-.29-.02-6.51-.03-13.01,0-19.52,0-.09,0-.19,0-.28-.01-.55-.01-1.09,0-1.64-.04-.49.08-.99-.1-1.47-.48-.36-1.23.05-1.61-.57-.15-.56-.24-1.11.11-1.64Z"/><path class="cls-27" d="M188.62,19.99c-.57,0-1.15,0-1.72,0-.02,0-.04-.02-.06-.04-.01-.02-.04-.04-.04-.06,0-.57,0-1.15,0-1.72-.34-.56-.31-1.13-.04-1.7.62-.28,1.24-.32,1.85.03v3.48Z"/><path class="cls-15" d="M3.64,18.32h-1.58c-.05-.05-.1-.1-.16-.15-.02-.01-.05,0-.07,0v-1.67c.57,0,1.15,0,1.72,0,.02,0,.04.02.06.04.01.02.04.04.04.06,0,.57,0,1.15,0,1.72Z"/><path class="cls-4" d="M188.62,70.85c-.58,0-1.16,0-1.74,0-.03-.04-.08-.08-.08-.12,0-.48,0-.96,0-1.43,0-.02.02-.04.02-.06.02-.02.04-.05.05-.05.58,0,1.16,0,1.74,0v1.67Z"/><path class="cls-3" d="M1.82,1.98c.58,0,1.16,0,1.74,0,.03.04.08.08.08.12,0,.48,0,.96,0,1.43,0,.02-.02.04-.02.06-.02.02-.04.05-.05.05-.58,0-1.16,0-1.74,0v-1.67Z"/><path class="cls-9" d="M186.8,1.98h1.82v1.67h-1.82c-.33-.56-.33-1.11,0-1.67Z"/><path class="cls-2" d="M186.8,85.38c0-.52,0-1.05,0-1.57,0-.02.02-.04.04-.06.02-.01.04-.04.06-.04.57,0,1.15,0,1.72,0v1.67h-1.82Z"/><path class="cls-25" d="M188.62,69.19v-.15h.15c.5-.32,1.01-.32,1.51,0h.15c.02.06,0,.1-.05.13-.04.02-.09.03-.14.03-.54,0-1.09,0-1.63,0Z"/><path class="cls-8" d="M0,54.5h1.67s.05.07.04.1c-.01.03-.03.05-.04.05-.52,0-1.03,0-1.55,0-.06,0-.1-.05-.11-.15Z"/><path class="cls-22" d="M186.95,1.82h-.15V.16c.06-.02.1,0,.12.05.02.04.03.09.03.14,0,.49,0,.98,0,1.48Z"/><path class="cls-1" d="M1.67,54.65v-.15h.15v.15h-.15Z"/><path class="cls-16" d="M3.64,1.82h183.16c.05-.08.1-.08.15,0,.52,0,1.03,0,1.55,0,.06,0,.1.05.11.15-.59.4-1.24.18-1.87.22-.3.04-.61.02-.91.02-51.74,0-128.48,0-180.22,0-.47,0-.96-.08-1.41.14-.29.39-.07.93-.42,1.28-.02.06,0,.12.05.13.12.02.25.02.37.02,3.17,0,6.35,0,9.52,0h.74s.06.05.06.07c.03.45.01,1.22-.03,1.56-.02.01-.04.03-.06.03-.5,0-1,0-1.48,0-.1.09-.17.16-.24.22,0,.51,0,1.01,0,1.52-.04.03-.08.07-.12.07-.53,0-1.06,0-1.59,0-.02,0-.04-.02-.06-.03-.02-.02-.04-.04-.05-.06,0-.55,0-1.11,0-1.66-.04-.03-.08-.07-.12-.07-1.08,0-2.17,0-3.25,0-.11.05-.18.16-.26.24v1.51s-.04.06-.06.06c-.5,0-1,0-1.51,0-.08.07-.15.14-.22.21-.05.17-.02.35-.02.52,0,.18,0,.35,0,.53,0,.17.03.35-.02.52-.02.02-.04.05-.06.05-.58,0-1.16,0-1.74,0-.28-.29-.23-.65-.23-1-.01-1.01,0-2.01,0-3.02,0-.3.04-.61-.14-.89-.27-.2-.56-.16-.86-.04-.26.29-.2.66-.2,1.01,0,2.16,0,4.33,0,6.49,0,.37.04.76-.23,1.08-.1.04-.18.02-.24-.07-.19-.35-.14-.74-.14-1.11,0-2.11,0-4.23,0-6.34,0-.35.04-.7-.13-1.02-.45-.29-1.04-.01-1.45-.39-.02-.06,0-.1.05-.13.04-.02.09-.03.14-.03.54,0,1.09,0,1.63,0,.42-.37.98-.09,1.45-.33.23-.3.15-.63.08-.95-.49-.34-1.1,0-1.53-.39-.02-.06,0-.1.05-.13.04-.02.09-.03.14-.03.54,0,1.09,0,1.63,0Z"/><path class="cls-16" d="M16.37,12.72v-1.59c.07-.07.14-.14.23-.23h126.5s.07-.06.07-.08c0-.5,0-1.01,0-1.51.08-.08.15-.15.23-.23,1.12,0,2.25,0,3.36,0,.08-.21.04-.39.05-.56,0-.18,0-.35,0-.53v-.47c.1-.12.16-.19.21-.25h3.35c.06.03.07.08.07.13,0,.5,0,1.01,0,1.51,0,.06,0,.1.04.14.02.01.04.04.06.04,1.16,0,2.32,0,3.48,0,.12.2.04.4.06.6.01.2,0,.4,0,.61v.56c.07.03.09.04.11.05.02,0,.05,0,.08,0h19.61s.05,0,.08,0c.02,0,.04.01.06.02.02.02.05.04.05.05,0,.58,0,1.16,0,1.74-.19.21-.45.2-.7.21-.25,0-.5,0-.76,0-43.26,0-111.53,0-154.79,0-.49,0-1.02.15-1.46-.21Z"/><path class="cls-16" d="M188.62,14.69c-.57,0-1.15,0-1.72,0-.02,0-.04.02-.06.04-.01.02-.04.04-.04.06,0,.52,0,1.05,0,1.57-.61.33-1.21.35-1.82,0,0-1.79,0-3.58,0-5.37-.04-.03-.08-.07-.12-.07-1.06,0-2.12,0-3.18,0-.1,0-.2.03-.29-.03-.02-.02-.04-.04-.04-.06,0-.5,0-1.01,0-1.5.08-.08.15-.15.23-.23.5,0,1,0,1.51,0,.02,0,.04-.03.06-.05.05-.17.02-.34.03-.52,0-.18,0-.35,0-.53,0-.17-.03-.35.02-.52.07-.07.14-.14.22-.21h1.51s.06-.04.06-.06c0-.55,0-1.11.01-1.66,0-.02-.03-.04-.04-.06-.58-.04-2.43-.05-3.36-.01-.09.08-.17.14-.24.2v1.52c-.03.05-.08.07-.13.07-1.14,0-2.27,0-3.41,0-.02,0-.04-.02-.06-.04-.01-.02-.04-.04-.04-.06,0-.55,0-1.11,0-1.63-.05-.08-.09-.09-.14-.09-1.72,0-3.43,0-5.15,0-.06,0-.1,0-.13-.05,0-.05-.03-.09-.03-.14,0-.48,0-.95,0-1.4.04-.04.06-.07.08-.07,4.82,0,9.64,0,14.46,0,.29.34.23.76.24,1.16,0,2.72,0,5.44,0,8.16,0,.35-.05.71.15,1.04.43.29,1.02.01,1.42.39v.15Z"/><path class="cls-16" d="M16.37,12.72h159.68c.37.42.09.99.33,1.45.39.3.96,0,1.33.37.57,0,1.15,0,1.72,0,.02,0,.04.03.06.04.01.02.03.04.03.06,0,.55,0,1.1,0,1.64.06.06.11.12.15.17v1.73c-.08.04-.16.03-.22-.04-.24-.38-.05-.84-.26-1.26-.46-.28-1-.09-1.51-.15-.56-.02-1.12.07-1.67-.09-.08-.04-.14-.1-.17-.18,0-.09.05-.16.13-.2.43-.22.95.02,1.38-.25.18-.31.16-.62.02-.97-.53-.26-1.11-.1-1.68-.12-.36.03-.71.02-1.06.02-44.54,0-114.09,0-158.63,0-.38,0-.76.01-1.13-.01-.1,0-.19-.01-.29-.01-.6-.03-1.21.11-1.8-.13-.03-.03-.06-.07-.1-.1.01-.05.02-.09.03-.14.36-.34.87-.12,1.26-.31.26-.28.13-.63.23-.93.06-.19.01-.57.42-.31.22.33.1.75.28,1.09.59.27,159.68.34,160.6.06.15-.27.12-.56.02-.82-.37-.25-.76-.19-1.13-.19-3.36,0-6.72,0-10.07,0-41.03,0-107.06,0-148.08,0-.52,0-1.06.09-1.57-.15-.1-.05-.14-.13-.12-.25h1.82Z"/><path class="cls-16" d="M45.45,3.79c4.21,0,8.42,0,12.63,0,.02,0,.04.02.06.04.01.02.04.04.04.06,0,.5,0,1,0,1.49-.03.03-.05.07-.07.07-1.11,0-2.22,0-3.33,0-.07.07-.15.14-.22.21-.05.17-.02.35-.02.52,0,.18,0,.35,0,.53,0,.17.03.35-.02.52-.02.02-.04.05-.06.05-1.16,0-2.32,0-3.48,0-.03-.04-.07-.08-.07-.12,0-.48,0-.96,0-1.44,0-.07-.01-.14-.01-.2-.03-.03-.05-.06-.07-.06-1.79,0-3.58,0-5.37,0-.33-.56-.33-1.11,0-1.67Z"/><path class="cls-16" d="M121.36,3.79c2.39,0,4.78,0,7.17,0,.02,0,.04.02.06.03.01.02.04.04.04.06,0,.5,0,1,0,1.5q-.16.07-1.57.07s-.04.02-.06.04c-.05.05-.11.11-.16.16-.06.17-.02.34-.03.51,0,.18,0,.35,0,.53,0,.17.02.35-.02.52-.02.02-.04.05-.05.05-.55,0-1.11,0-1.66,0-.02,0-.04-.03-.06-.05-.05-.19-.01-.39-.02-.59,0-.18,0-.35,0-.53,0-.2.02-.4-.02-.59-.02-.02-.04-.06-.06-.06-1.11,0-2.21,0-3.33,0-.05.05-.1.1-.16.15-.02.01-.05,0-.07,0-.07-.06-.12-.14-.15-.23-.07-.54-.19-1.09.15-1.59Z"/><path class="cls-16" d="M115.9,3.79v1.67c-1.79,0-3.58,0-5.37,0-.03-.04-.08-.08-.08-.11,0-.48,0-.96,0-1.44,0-.02.02-.04.03-.06.02-.02.04-.05.06-.05,1.79,0,3.58,0,5.37,0Z"/><path class="cls-16" d="M40,3.79v1.67c-1.79,0-3.58,0-5.37,0-.03-.04-.08-.08-.08-.11,0-.48,0-.96,0-1.44,0-.02.02-.04.03-.06.02-.02.04-.05.06-.05,1.79,0,3.58,0,5.37,0Z"/><path class="cls-16" d="M115.9,5.46c.57,0,1.15,0,1.72,0,.02,0,.04.02.06.04.01.02.04.04.04.06,0,.57,0,1.15,0,1.72-.57,0-1.15,0-1.72,0-.02,0-.04-.02-.06-.04-.01-.02-.04-.04-.04-.06,0-.57,0-1.15,0-1.72Z"/><path class="cls-16" d="M41.82,7.27h1.82c0,.58,0,1.16,0,1.74-.04.03-.08.08-.12.08-.55,0-1.1,0-1.63,0-.04-.04-.07-.06-.07-.08,0-.58,0-1.16,0-1.74Z"/><path class="cls-16" d="M40,5.46c.57,0,1.15,0,1.72,0,.02,0,.04.02.06.04.01.02.04.04.04.06,0,.57,0,1.15,0,1.72-.57,0-1.15,0-1.72,0-.02,0-.04-.02-.06-.04-.01-.02-.04-.04-.04-.06,0-.57,0-1.15,0-1.72Z"/><path class="cls-16" d="M119.54,7.27v-1.58c.06-.06.12-.13.19-.2.03-.02.05-.04.07-.04.52,0,1.04,0,1.57,0v1.76c-.06.04-.08.06-.1.06-.57,0-1.15,0-1.72,0Z"/><path class="cls-16" d="M12.73,16.36h-1.82v-1.58c.06-.06.12-.13.19-.2.05-.01.09-.03.14-.03.5,0,.99,0,1.49,0v.15c.33.56.33,1.11,0,1.67Z"/><path class="cls-16" d="M14.55,12.87c-.06-.02-.11,0-.13.05-.02.1-.02.19-.02.29,0,.4,0,.8,0,1.21,0,.02-.02.04-.03.06-.02.02-.04.05-.06.05-.53,0-1.06,0-1.58,0v-1.58c.06-.06.12-.13.19-.2.03-.02.05-.04.07-.04.52,0,1.04,0,1.57,0v.15Z"/><path class="cls-16" d="M177.71,14.54c-.52,0-1.05,0-1.57,0-.02,0-.04-.02-.06-.04-.01-.02-.04-.04-.04-.06,0-.57,0-1.15,0-1.72.52,0,1.05,0,1.57,0,.02,0,.04.02.06.04.01.02.04.04.04.06,0,.57,0,1.15,0,1.72Z"/><path class="cls-18" d="M1.98,12.87h-.15v-.15h.15v.15Z"/><path class="cls-2" d="M1.82,79.93v3.63c-.53,0-1.06,0-1.59,0-.03-.04-.07-.08-.08-.12,0-.15,0-.3,0-.45,0-8.16,0-16.32,0-24.48,0-.07-.04-.15.11-.23-.04.02-.02,0,0,0,.48,0,.96,0,1.44,0,.02,0,.04.02.07.02.02.02.05.04.05.05,0,.53,0,1.06,0,1.59v.15c.26.29.24.65.24,1,0,5.94,0,11.88,0,17.83,0,.35.02.71-.24,1Z"/><path class="cls-7" d="M1.98,85.38v-1.61c.06-.03.08-.05.1-.05.5,0,1,0,1.49,0,.14.16.06.34.07.51.01.2,0,.4,0,.6,0,.17.03.34-.03.51-.02.02-.04.04-.06.04-.53,0-1.05,0-1.58,0Z"/><path class="cls-1" d="M1.98,54.5h-.15v-1.67c.1-.02.18.01.23.09.18.53.25,1.06-.08,1.57Z"/><path class="cls-8" d="M1.98,52.84h-.15v-.15h.15s.04.05.06.08c-.02.03-.04.05-.06.08Z"/><path class="cls-30" d="M179.68,41.79c0-7.23,0-14.45,0-21.68,0-.02.02-.04.02-.07.02-.02.04-.05.05-.05.53,0,1.06,0,1.59,0,1.19.2,2.39-.02,3.58.11.42.36.16.93.43,1.33.44.28,1.01,0,1.44.35.36.41.12.98.35,1.45.42.33,1.05,0,1.47.39v.15c-.39.36-.93.14-1.38.35-.27.31-.19.7-.2,1.07,0,3.9,0,7.8,0,11.7,0,.4.05.81-.13,1.19-.41.5-1.07.12-1.55.45-.31.41-.02.98-.33,1.42-.41.42-1.03.04-1.46.37-.37.42,0,1.05-.4,1.46h-3.48Z"/><path class="cls-10" d="M188.62,47.24v.15c-.39.36-.94.13-1.38.36-.27.31-.19.7-.19,1.07,0,3.36,0,6.71,0,10.07,0,.4.06.81-.17,1.18-.16.16-.37.13-.57.13-1.33-.02-2.65,0-3.98-.01-.32,0-.65,0-.94-.19-.4-.42-.13-1.03-.4-1.47-.41-.27-.94-.05-1.3-.39,0-4.8,0-9.61,0-14.41,0-.02.01-.04.02-.07.02-.02.04-.05.05-.05,1.06,0,2.11,0,3.18,0,.05.05.1.1.16.15.02.01.05,0,.07,0,.34.36.11.88.37,1.34,1.01.27,2.1-.05,3.14.19.08.03.15.09.2.16.26.44.01.98.26,1.44.45.3,1.05-.03,1.48.36Z"/><path d="M179.53,18.17v49.05c-.55.48-1.15.52-1.89.11-.16-.25-.17-.53-.17-.8,0-7.03-.03-14.07.01-21.1-.05-1.76-.02-3.52-.02-5.29,0-6.97,0-13.95,0-20.92,0-.33-.02-.65.02-.98.03-.58-.16-1.19.22-1.73.57,0,1.15,0,1.72,0,.02,0,.04.02.06.04.01.02.04.04.04.06,0,.52,0,1.05,0,1.57Z"/><path class="cls-23" d="M186.8,45.42h-3.57c-.04-.05-.07-.07-.07-.09,0-.53,0-1.05,0-1.58h.15c1.15-.17,2.3-.03,3.48-.08.3.61.37,1.17,0,1.74Z"/><path class="cls-23" d="M186.8,45.42c0-.53,0-1.05,0-1.58,0-.02-.03-.04-.04-.06-.02-.01-.04-.03-.06-.03-1.13,0-2.25,0-3.38,0v-.15h3.48s.06-.01.07,0c.05.05.1.11.13.15.53,0,1.03,0,1.53,0,.02,0,.04.03.06.04.01.02.03.04.03.06,0,.57,0,1.14,0,1.71-.63.29-1.26.42-1.82-.15Z"/><path class="cls-19" d="M190.29,69.03h-1.51c0-8.4,0-16.8,0-25.2.04-.03.08-.08.11-.08.43,0,.86,0,1.29,0,.02,0,.04.02.06.03.02.02.05.04.05.06,0,8.4,0,16.8,0,25.2Z"/><path class="cls-23" d="M186.8,45.42s.06-.01.07,0c.06.05.11.1.16.15h1.58v1.67c-.57,0-1.15,0-1.72,0-.02,0-.04-.02-.06-.04-.01-.02-.04-.04-.04-.06,0-.57,0-1.15,0-1.72Z"/><path class="cls-12" d="M190.44,71h-1.82c-.34.29-.76.23-1.15.23-.78,0-1.56.04-2.33-.04-.1-.01-.19-.03-.28-.06-.82-.15-1.64-.03-2.46-.07-.34-.02-.7.04-1.09-.21-.25-.53-.3-1.12.02-1.71.26-.19.57-.16.87-.16,1.68-.02,3.37.04,5.04-.16.46-.06.96-.11,1.38.22.05.03.07.07.05.1-.02.03-.03.05-.05.05-.42.37-.98.09-1.45.32-.23.31-.15.64-.08.95.49.34,1.1,0,1.53.39.57,0,1.14,0,1.7,0,.06,0,.1.05.12.15Z"/><path class="cls-12" d="M1.82,83.57v.15c-.58,0-1.16,0-1.74,0-.03-.04-.07-.08-.08-.12,0-.23,0-.45,0-.68,0-8.24,0-16.47,0-24.71.04-.03.08-.08.12-.08.48,0,.96,0,1.44,0,.07,0,.14,0,.21-.01.03-.03.06-.05.06-.07,0-1.13,0-2.27,0-3.4-.05-.03-.07-.07-.05-.1.02-.03.04-.05.05-.05.07-.05.14-.1.21-.14.51-.09,1.01-.12,1.51.03.08.04.13.11.14.2-.03.08-.09.14-.16.18-.37.17-.8,0-1.24.25-.17.93-.1,1.91-.04,2.85.47.37.99.06,1.43.25.06.07.1.15.13.23.07.56.19,1.13-.16,1.66-.62.22-1.24.25-1.86-.02-.3-.38-.11-.89-.33-1.3-.29-.2-.58-.15-.85-.07-.27.65-.31,23.74-.05,24.56.38.26.91.04,1.27.39Z"/><path class="cls-12" d="M186.8,41.94v1.67c-.26.26-.6.23-.92.2-.86-.07-1.74.22-2.57-.2-.06.02-.1,0-.13-.05-.01-.02-.02-.04-.02-.07,0-.48,0-.96,0-1.43,0-.02.02-.04.03-.06.02-.02.04-.05.06-.05,1.18,0,2.37,0,3.55,0Z"/><path class="cls-12" d="M3.64,58.29v-.15c-.39-1.16-.37-2.32,0-3.48.04-.01.09-.02.13-.04.07.05.13.12.16.2.15.4,0,.86.23,1.32.64.21,1.35.08,2.04.13.39.02.81-.1,1.15.22.24.56.21,1.11-.01,1.65-.64.2-1.28-.05-1.88.16-.61.34-1.21.34-1.82,0Z"/><path class="cls-27" d="M3.64,54.65v3.48s-.06-.01-.07,0c-.06.05-.11.1-.16.15h-1.36c-.05-.03-.07-.07-.07-.12,0-1.13,0-2.26,0-3.39,0-.02.02-.04.03-.06.02-.02.04-.05.06-.05.53,0,1.06,0,1.58,0Z"/><path class="cls-1" d="M3.64,54.5c.12.02.13.03.15.15h-.15v-.15Z"/><path class="cls-14" d="M190.44,20.14h-1.82c-.2.18-.44.22-.7.23-2.15.06-4.29-.21-6.44-.24-.09-.04-.17-.1-.22-.18-.19-.54-.21-1.07.04-1.61.67-.26,1.41.15,2.05-.25,1.14-.22,2.28-.23,3.42,0,.44.43.11,1.06.38,1.54.45.3,1.05-.03,1.48.36.57,0,1.14,0,1.7,0,.06,0,.1.05.12.15Z"/><path class="cls-14" d="M0,16.36c.58,0,1.15,0,1.73,0,.02,0,.04-.03.06-.04.01-.02.03-.04.03-.06,0-1.13,0-2.25,0-3.38.05-.05.1-.05.15,0,.37.42.1.99.32,1.45.41.29.97.02,1.36.34.35.52.11,1.13.29,1.68.07.62.13,1.24-.03,1.85-.04.08-.1.14-.18.18-.09-.01-.16-.06-.2-.14-.2-.43,0-.94-.22-1.36-.46-.31-1.07.03-1.49-.36-.57,0-1.14,0-1.7,0-.06,0-.1-.05-.11-.15Z"/><path class="cls-14" d="M1.82,21.96c0-1.18,0-2.35,0-3.53,0-.02-.02-.04-.03-.06-.02-.01-.04-.04-.06-.04-.58,0-1.15,0-1.73,0-.02-.06,0-.1.05-.13.04-.02.09-.03.14-.03.54,0,1.09,0,1.63,0,.62-.11,1.24-.19,1.82.15.34.52.27,1.06.1,1.61-.37.44-.96.13-1.41.4-.27.41-.07.91-.18,1.36-.02.08-.05.16-.1.23-.06.08-.14.09-.22.04Z"/><path class="cls-14" d="M188.62,38.31c-.58,0-1.16,0-1.73,0-.02,0-.04.03-.06.05-.05.17-.02.34-.03.51,0,.18,0,.35,0,.53,0,.17.02.35-.02.52-.02.02-.04.05-.05.05-.5,0-1,0-1.51,0-.05.05-.11.11-.16.15-.02.01-.05,0-.07,0-.56.32-1.11.35-1.67,0-.02-.06,0-.11.05-.13.07-.02.14-.02.21-.03.45,0,.89,0,1.32,0,.03-.03.07-.05.07-.07,0-.5,0-.99,0-1.48.07-.12.16-.2.26-.27h3.39v.15Z"/><path class="cls-14" d="M183.32,40.12h1.67v1.67h-1.82c0-.52,0-1.03,0-1.55,0-.06.05-.1.15-.11Z"/><path class="cls-14" d="M3.79,16.36h1.44c.05.05.11.1.16.15h5.52c.34.56.32,1.13.03,1.71-.31.22-.68.15-1.02.17-1.71.06-3.42-.14-5.12.16-.34.06-.71.06-1-.22v-1.97Z"/><path class="cls-30" d="M3.64,20.14s.06.01.07,0c.06-.05.11-.1.16-.15h1.51c.05-.03.07-.07.07-.12,0-.45,0-.91,0-1.36,0-.05.02-.09.03-.14.02-.01.04-.04.06-.04,1.79,0,3.57,0,5.36,0,.28.28.24.65.24,1,0,7.78,0,15.57,0,23.35,0,.3,0,.61-.15.88-.4.45-1.03.13-1.5.43-.31.4-.05.99-.52,1.59-1.67.12-3.51.14-5.34,0,0-7.83,0-15.67,0-23.5,0-.02-.02-.04-.02-.07-.02-.02-.04-.05-.05-.05-.53,0-1.06,0-1.59,0v-.15c.37-.35.89-.11,1.3-.33.31-.39-.01-.96.37-1.33Z"/><path class="cls-31" d="M188.62,16.51h-1.82c-.08-.07-.13-.15-.16-.25-.1-.54-.15-1.08.16-1.65.6-.16,1.21-.28,1.82.07v1.6c.06.04.08.06.1.06.57,0,1.15,0,1.72,0,.02.06,0,.1-.05.13-.04.02-.09.03-.14.03-.54,0-1.09,0-1.63,0Z"/><path class="cls-31" d="M45.45,3.79v1.67h-1.58c-.06.06-.13.12-.2.19-.02.03-.04.05-.04.07,0,.52,0,1.04,0,1.56-.61.34-1.21.34-1.82,0-.37-.42-.09-.98-.34-1.45-.44-.32-1.06.03-1.48-.37-.33-.56-.33-1.11,0-1.67h5.45Z"/><path class="cls-31" d="M121.36,3.79v1.67c-.41.37-.98.08-1.43.36-.34.42,0,1.04-.38,1.46h-1.82c-.37-.42-.09-.98-.34-1.45-.44-.32-1.06.03-1.48-.37-.33-.56-.33-1.11,0-1.67h5.45Z"/><path class="cls-31" d="M179.53,18.17h3.64c.05-.05.1-.05.15,0,.02.06,0,.11-.05.13-.1.02-.19.02-.29.02-.5,0-1.01,0-1.51,0-.02,0-.04.02-.06.03-.02.02-.05.04-.05.05,0,.53,0,1.06,0,1.58-.35.36-.89.12-1.28.41-.21.37-.14.78-.14,1.17,0,6.3,0,12.6,0,18.91,0,.45.08.92-.24,1.31h-.15c-.28-.28-.24-.65-.24-1,0-7.21,0-14.41,0-21.62,0-.35-.04-.71.24-1Z"/><path class="cls-31" d="M183.32,18.17h-.15v-1.58c.06-.06.12-.13.19-.2.03-.02.05-.04.07-.04.52,0,1.04,0,1.57,0h1.82v1.82h-3.48Z"/><path class="cls-31" d="M3.79,16.36c-.06.02-.1,0-.12-.05-.02-.04-.03-.09-.03-.14,0-.49,0-.98,0-1.48-.04-.03-.05-.07-.04-.1.01-.03.03-.05.04-.05.58,0,1.16,0,1.74,0,.03.04.07.08.07.12,0,.48,0,.96,0,1.44,0,.07,0,.14.01.2.03.03.05.06.07.06,1.79,0,3.58,0,5.37,0,.56-.38,1.19-.18,1.79-.22.6.03,1.22-.13,1.79.17.03.04.05.08.08.12-.02.04-.04.09-.05.13-.58.31-1.2.14-1.8.17-.61.02-1.23.02-1.84,0-2.08-.01-4.16.14-6.24-.13-.3-.04-.61-.03-.85-.25Z"/><path class="cls-31" d="M3.64,14.54v.15c-.52,0-1.05,0-1.57,0-.02,0-.04-.02-.06-.04-.01-.02-.04-.04-.04-.06,0-.57,0-1.15,0-1.72.52,0,1.05,0,1.57,0,.02,0,.04.02.06.04.01.02.04.04.04.06,0,.52,0,1.05,0,1.57Z"/><path class="cls-31" d="M188.62,23.62h-1.78c-.07-.24-.03-.44-.04-.63,0-.18,0-.35,0-.53v-.6c-.2-.12-.4-.04-.59-.06-.2-.01-.4,0-.6,0h-.56c-.04-.06-.06-.08-.06-.1,0-.5,0-1,0-1.49-.04-.06-.08-.08-.13-.08-1.08,0-2.16,0-3.24,0-.07,0-.15,0-.22-.02-.06-.02-.07-.07-.05-.13,1.24,0,2.47,0,3.71,0,.05.05.11.1.16.15,1.13,0,2.27,0,3.4,0v3.48Z"/><path class="cls-31" d="M188.62,41.79h-3.64c-.34-.53-.28-1.09-.08-1.65.37-.54,1.03-.28,1.49-.5.31-.41.07-.94.43-1.37.56-.05,1.18-.1,1.8.03v3.48Z"/><path class="cls-31" d="M3.79,18.32h1.44c.05-.05.11-.1.16-.15h5.52c.04.1.02.18-.07.23-1.01.3-2.05.08-3.07.14-.64.04-1.3-.1-1.93.12-.26.42-.05.93-.39,1.36-.52.29-1.12.2-1.72.17-.04-.02-.08-.05-.12-.07,0-.05.02-.09.03-.14v-1.67h.15Z"/><path class="cls-31" d="M3.64,20.14c0,.52,0,1.05,0,1.57,0,.02-.02.04-.04.06-.02.01-.04.04-.06.04-.52,0-1.05,0-1.57,0v-1.75c.06-.04.08-.06.1-.06.52,0,1.05,0,1.57,0v.15Z"/><path class="cls-26" d="M177.71,18.17v27.25c-.39.36-.94.14-1.37.37-.28.34-.2.76-.2,1.15,0,4.58,0,9.16,0,13.75,0,.42.07.86-.21,1.24-.44.21-.96-.04-1.41.24-.31.41-.07,1-.44,1.42-.24.2-.54.21-.84.23-.3.01-.61,0-.91,0-43.07,0-111.14,0-154.21,0-.57,0-1.16.1-1.69-.18-.42-.42-.18-1-.45-1.45-.44-.33-.99-.04-1.45-.25-.28-.38-.21-.82-.21-1.24,0-4.58,0-9.17,0-13.75,0-.37.05-.76-.11-1.1-.4-.29-.93-.08-1.34-.43-.28-.35-.18-.83-.18-1.27,0-8.14,0-16.27,0-24.41,0-.43.02-.86-.03-1.28,0-.09,0-.18.04-.27.43-.39,1.02-.08,1.49-.34.3-.4,0-.96.37-1.33v-.15s.08-.07.11-.1c.09-.05.19-.08.29-.1.43-.06.86-.04,1.28-.04,44.38,0,113.75,0,158.13,0,.52,0,1.07-.14,1.53.24v.15c.35.37.11.88.33,1.3.44.32,1.06-.03,1.48.37Z"/><path d="M14.55,12.87c45.41,0,115.83,0,161.24,0,.02,0,.04.02.06.03.01.02.04.04.04.06,0,.5,0,1.01,0,1.49-.04.07-.08.08-.14.08-.23,0-.45,0-.68,0H15.35c-.23,0-.45,0-.68,0-.02,0-.04-.01-.06-.02-.02-.02-.05-.04-.05-.05,0-.53,0-1.06,0-1.59Z"/><path class="cls-13" d="M175.89,16.36H14.7c-.31-.56-.31-1.11,0-1.67h161.19c.33.56.33,1.11,0,1.67Z"/><path class="cls-27" d="M12.73,16.36v-1.67h1.82c.12.56.12,1.11,0,1.67h-1.82Z"/><path class="cls-13" d="M177.71,18.17c-.57,0-1.15,0-1.72,0-.02,0-.04-.02-.06-.04-.01-.02-.04-.04-.04-.06,0-.52,0-1.05,0-1.57h1.82v1.67Z"/><path class="cls-11" d="M175.89,16.36v-1.67c.58,0,1.16,0,1.74,0,.03.04.08.08.08.12,0,.48,0,.96,0,1.43,0,.02-.02.04-.02.06-.02.02-.04.05-.05.05-.58,0-1.16,0-1.74,0Z"/><path class="cls-21" d="M14.55,16.36v-1.67h.15v1.67h-.15Z"/><path d="M12.73,18.17v.15c.14.26.07.54.07.82,0,8.41-.14,16.83.05,25.24.16,7.2.03,14.4.12,21.59,0,.45.07.91-.16,1.34-.72.43-1.34.4-1.9-.09v-8.93c-.42-.63-.17-1.34-.22-2.01-.05-3.94-.01-7.88-.02-11.82,0-.3.02-.61.24-.85v-27.1h1.82c.33.56.33,1.11,0,1.67Z"/><path class="cls-13" d="M12.73,18.17v-1.67h1.82v1.6c-.06.04-.08.06-.1.06-.57,0-1.15,0-1.72,0Z"/><path class="cls-10" d="M175.89,72.82s.06.01.07,0c.06-.05.11-.1.16-.15h6.96s.07.08.07.12c0,.48,0,.96,0,1.44,0,.07.01.14.02.2.03.03.05.05.07.05.55,0,1.11,0,1.65,0,.06.04.08.08.08.13,0,1.13,0,2.27,0,3.4,0,.02-.02.04-.03.06-.02.01-.04.04-.06.04-1.76,0-3.53,0-5.28,0-.06-.04-.08-.08-.08-.13,0-.5,0-1.01,0-1.51,0-.05-.02-.09-.03-.14-.02-.01-.04-.04-.06-.04-.55,0-1.11,0-1.67,0-.12.19-.04.4-.05.59-.02.2,0,.4,0,.6-.01.2.04.4-.03.58-.03.02-.05.04-.07.04-.55,0-1.1,0-1.66,0-.12-.2-.04-.4-.06-.6-.01-.2,0-.4,0-.6-.01-.2.05-.4-.03-.58-.03-.02-.06-.04-.08-.04-1.06,0-2.12,0-3.18,0-.1,0-.2,0-.3,0-.11.2-.04.4-.05.59-.01.2,0,.4,0,.6-.01.19.05.4-.03.59-.21.05-.41.02-.61.02-.18,0-.35,0-.53,0h-.57s-.07.06-.07.08c0,.58,0,1.16,0,1.74h-23.63c-.38-.41-.1-.99-.36-1.43-.44-.29-1.01-.02-1.47-.38-.35-.38-.1-.95-.36-1.48-.92-.21-1.88-.13-2.8-.05-.38.47-.09,1.05-.51,1.6-1.11.21-2.34.26-3.57-.02-.41-.45-.08-1.07-.36-1.54-.48-.25-1.02,0-1.47-.28-.38-.44-.08-1.03-.35-1.54-.36-.19-.74-.17-1.11-.02-.3.49,0,1.09-.34,1.54-.44.31-1,.06-1.47.28-.32.46,0,1.06-.33,1.52-.45.34-1.02.07-1.49.31-.3.46.02,1.06-.37,1.48h-50.45c-.38-.41-.09-.99-.38-1.47-1.05-.33-2.19.12-3.25-.28-.38-.44-.09-1.03-.35-1.54-.47-.23-1.01-.07-1.52-.13-1.68,0-3.36,0-4.96.04-.35.57-.08,1.14-.42,1.57-.69.31-2.79.33-3.62.04-.43-.41-.12-1.04-.43-1.48-.67-.2-2.1-.21-2.85-.02-.31.42-.03,1-.39,1.47-.47.34-1.07.17-1.63.21-.54.04-1.1-.09-1.62.12-.3.47-.02,1.05-.4,1.46H12.73c0-.58,0-1.16,0-1.74-.04-.03-.08-.08-.12-.08-.48,0-.96,0-1.44,0-.07,0-.14,0-.21-.01-.03-.03-.06-.05-.06-.07,0-.55,0-1.11,0-1.66-.04-.03-.08-.07-.12-.07-.48,0-.96,0-1.44,0-.12.05-.18.16-.27.24v1.51s-.04.06-.06.06c-.55,0-1.1.01-1.66.01-.02,0-.04-.02-.06-.04-.01-.02-.04-.04-.04-.06,0-.55,0-1.1,0-1.66-.19-.12-.4-.04-.59-.06-.2-.02-.4,0-.6,0-.2-.01-.4.04-.58-.03-.02-.03-.04-.05-.04-.07,0-.5,0-1,0-1.48.09-.09.16-.16.22-.23.51,0,1.01,0,1.52,0,.03-.04.07-.08.07-.12,0-.48,0-.96,0-1.44.05-.12.16-.18.23-.26h7.04s.1-.02.14-.03c3.58-.06,7.15-.02,10.55-.03.58.52.34,1.1.63,1.49.43.25.97.04,1.4.36.38.38.13.96.46,1.53,1.47.12,3.01.08,4.47.01.28-.24.26-.48.29-.7.12-.84.31-1.04,1.17-1.05.9,0,1.81-.13,2.61.12.45.49.22,1.07.46,1.51.34.22.67.19,1.02.05.32-.41.07-1.02.46-1.41.38-.37.93-.19,1.36-.42.3-.37.09-.9.4-1.27.17-.18.39-.21.62-.22.25-.02.5-.01.76-.01,36.08,0,97.15,0,133.23,0,.44,0,.92-.11,1.31.21Z"/><path class="cls-29" d="M186.8,1.98v1.67H3.79c0-.53,0-1.06,0-1.59.04-.03.08-.07.12-.07.23,0,.45,0,.68,0h182.21Z"/><path class="cls-29" d="M188.62,14.54c-.58,0-1.16,0-1.74,0-.03-.04-.08-.07-.08-.11,0-.23,0-.45,0-.68V3.79h1.82v10.75Z"/><path class="cls-29" d="M1.98,12.72c0-2.95,0-5.9,0-8.85,0-.02.03-.04.05-.06.02,0,.04-.03.06-.03.48,0,.96,0,1.44,0,.02,0,.04.02.07.02.02.02.05.04.05.05,0,1.74,0,3.48,0,5.22,0,1.18,0,2.35,0,3.53,0,.02-.02.04-.03.06-.02.01-.04.04-.06.04-.53,0-1.05,0-1.58,0Z"/><path class="cls-29" d="M186.8,79.93c0,.58,0,1.16,0,1.74-.04.03-.08.07-.12.07-.23,0-.45,0-.68,0H3.64v-1.67c.21-.42.62-.38.99-.38,2.71,0,5.41-.03,8.12,0,.48-.04.96-.02,1.44-.02,14.36,0,28.71,0,43.07,0,.3,0,.61,0,.91.02,4.24-.03,8.48-.03,12.72,0,1.82-.02,3.64-.03,5.46,0,1.23-.03,2.45-.03,3.68,0,2.22-.05,29.44-.02,31.66-.02,5.93,0,11.86,0,17.79,0,.3,0,.61-.02.91.02.63-.02,1.27-.02,1.9,0,1.81-.03,3.63-.03,5.44,0,3.03-.03,6.06-.03,9.09,0,4.57-.05,9.13-.02,13.7-.02,3.3,0,6.61-.03,9.91.02,5.18-.04,10.36-.01,15.54-.01.25,0,.5.01.73.14.04.03.07.07.11.1Z"/><path class="cls-29" d="M188.62,72.82v7.11h-1.82c-.2-.22-.24-.5-.24-.78-.01-1.87-.02-3.73,0-5.6,0-.28.03-.56.31-.84.54-.14,1.15-.25,1.74.1Z"/><path class="cls-29" d="M1.82,21.96h.15c.52-.34,1.05-.23,1.56-.11.35.29.34.65.34,1,0,7.56.03,15.13-.01,22.69,0,2.38.06,4.76-.03,7.06-.66.4-1.21.3-1.76.24-.09-.04-.18-.09-.26-.16v-30.73Z"/><path class="cls-29" d="M186.8,38.15v-14.31s.06-.07.08-.07c.58,0,1.16,0,1.74,0v14.38c-.61.31-1.21.33-1.82,0Z"/><path class="cls-29" d="M188.62,67.22c-.58,0-1.16,0-1.73,0-.02,0-.04-.03-.06-.05,0-.02-.03-.04-.03-.06,0-2.33,0-4.67,0-7,0-4.2,0-8.4,0-12.6,0-.02.02-.04.03-.06.02-.02.04-.05.05-.05.58,0,1.16,0,1.74,0v19.83Z"/><path class="cls-29" d="M1.82,79.93v-19.83c.58,0,1.16,0,1.74,0,.03.04.07.08.07.12,0,.13,0,.25,0,.38v19.25s-.06.08-.08.08c-.58,0-1.16,0-1.74,0Z"/><path class="cls-10" d="M10.91,56.32h-.15c-.54.14-1.09.06-1.61.05-.43-.42-.16-1-.43-1.5-.61-.25-1.29-.08-1.96-.13-.44-.03-.91.09-1.3-.23,0-.57,0-1.15,0-1.72,0-.02-.02-.04-.04-.06-.02-.01-.04-.03-.06-.03-.5,0-1,0-1.49,0-.04.04-.08.08-.11.11-.02.01-.04.04-.06.04-.57,0-1.15,0-1.72,0v-.15c.53,0,1.06,0,1.58,0,.02,0,.04-.03.06-.05,0-.02.03-.04.03-.06,0-2.33,0-4.67,0-7,.03,0,.06.01.07,0,.06-.05.11-.1.16-.15h5.18c.07-.21.04-.39.04-.56,0-.18,0-.35,0-.53v-.48c.09-.1.16-.18.22-.24h1.6v12.72Z"/><path class="cls-6" d="M12.73,67.37V18.32c.06-.02.11,0,.13.05.05.14.02.3.02.44,0,3.55,0,7.11,0,10.66v15.86s.04.06.06.06c.52.04,1.05,0,1.54.02.03.05.06.07.06.09,0,5.47,0,10.94,0,16.4.3.31.22.7.24,1.07.04.65-.08,1.31.1,1.95.43.36,1.02.09,1.48.46.36.35.12.94.37,1.37.63.26,156.1.29,157,.01-.04-1.14.52-1.8,1.74-1.7.27-.68.12-1.32.17-1.94.03-.42-.09-.87.24-1.23v-16.26c.09-.1.16-.17.22-.24h1.6v21.95c-.42.37-.98.09-1.45.34-.32.44.03,1.05-.37,1.48-.22.2-.5.23-.78.24-.28.01-.56,0-.83,0-44.37,0-113.75,0-158.12,0-.54,0-1.12.14-1.61-.24-.37-.42-.09-.98-.34-1.45-.44-.32-1.06.03-1.48-.37Z"/><path class="cls-19" d="M14.55,69.19h161.34v1.82H14.79c-.05-.05-.1-.1-.16-.15-.02-.01-.05,0-.07,0v-1.67Z"/><path class="cls-4" d="M175.89,69.19c0-.57,0-1.15,0-1.72,0-.02.02-.04.04-.06.02-.01.04-.04.06-.04.57,0,1.15,0,1.72,0,0,.57,0,1.15,0,1.72,0,.02-.02.04-.04.06-.02.01-.04.04-.06.04-.57,0-1.15,0-1.72,0Z"/><path class="cls-23" d="M188.62,72.67h-1.88s-.1.09-.17.15h-1.34c-.1-.05-.18-.15-.25-.24v-1.57h3.64v1.67Z"/><path class="cls-23" d="M179.53,67.37c0,.52,0,1.05,0,1.57,0,.02.02.04.04.06.02.01.04.04.06.04.57,0,1.15,0,1.72,0,.05.03.07.07.05.1-.02.03-.04.05-.05.05,0,.53,0,1.06,0,1.59.04.03.08.08.12.08,1.08,0,2.17,0,3.25,0,.07,0,.15,0,.22.02.06.02.07.07.05.13h-9.09s-.06-.06-.09-.09c-.18-.54-.15-1.09-.02-1.64.04-.08.09-.14.17-.18.44-.2.94-.02,1.4-.2.32-.44.03-1,.28-1.44.03-.03.06-.06.09-.08h1.58c.05-.05.1-.1.16-.15.02-.01.05,0,.07,0v.15Z"/><path class="cls-23" d="M181.35,69.19v-.15c1.18,0,2.36,0,3.54,0,.02,0,.04-.03.06-.04.06-.17.02-.34.03-.51,0-.18,0-.35,0-.53v-.5c.09-.09.16-.16.23-.23.46,0,.91,0,1.36,0,.05.05.11.1.16.15h1.89v1.67c-.63,0-1.26,0-1.89,0-.05.05-.11.1-.16.15h-5.22Z"/><path class="cls-23" d="M3.64,58.29h1.82c0,.57,0,1.14,0,1.71,0,.02-.02.04-.03.06-.02.01-.04.04-.06.04-.5,0-.99,0-1.53,0-.03-.04-.08-.1-.13-.15-.01-.01-.05,0-.07,0v-1.67Z"/><path class="cls-23" d="M137.57,78.12s-.01.06,0,.07c.05.06.1.11.15.16v1.58h-5.45c-.34-.52-.27-1.07-.1-1.62.38-.58,1.06-.3,1.58-.54.26-.48-.05-1.17.51-1.56.49-.2.97-.19,1.46-.01.55.38.3,1.03.5,1.52.4.34.98,0,1.35.39Z"/><path class="cls-23" d="M70.91,79.93v-1.6c.06-.05.14-.11.26-.21.1-.03.28,0,.45,0,.17,0,.35,0,.52,0h.51c.13-.17.06-.35.07-.52.01-.2,0-.4,0-.6,0-.17-.04-.34.03-.51.02-.02.04-.04.06-.04.57,0,1.15,0,1.72,0,.36.36.1.87.33,1.29.39.32.98,0,1.39.34.47.59.44,1.21.11,1.84h-5.45Z"/><path class="cls-23" d="M175.89,71v1.67c-.31.15-.65.07-.97.07-36.24,0-97.48,0-133.72,0-4.64.64-9.31.47-13.94.24-4.17-.2-8.34-.14-12.51-.25-.08,0-.14-.04-.21-.07v-1.67c-.04-.12,0-.19.12-.22.58-.08,1.16-.02,1.74-.02,44.29,0,113.58,0,157.88,0,.54,0,1.12-.14,1.61.24Z"/><path class="cls-23" d="M10.91,56.32v1.97h-5.45c-.02-.06,0-.11.05-.13.1-.02.19-.02.29-.02.47,0,.95,0,1.4,0,.04-.04.07-.06.07-.08,0-.53,0-1.06,0-1.58-.05-.09-.03-.16.05-.23.45-.22.94-.18,1.4-.09.65.13,1.29.11,1.94.08.09,0,.17.03.24.08Z"/><path class="cls-23" d="M10.91,67.22s.06-.01.07,0c.06.05.11.1.16.15h1.58s.06.06.09.09c.18.55.12,1.12.11,1.68-.05.09-.11.1-.2.05h-1.58c-.06-.06-.13-.13-.2-.19-.01-.05-.03-.09-.03-.14,0-.55,0-1.09,0-1.64Z"/><path class="cls-23" d="M12.73,69.19h.15c.5-.34,1.04-.23,1.58-.12.09.04.15.1.2.19.13.54.24,1.08-.11,1.6v.15h-1.58c-.06-.06-.13-.12-.2-.19-.02-.03-.04-.05-.04-.07,0-.52,0-1.04,0-1.56Z"/><path class="cls-23" d="M7.28,56.32v.15h-3.42c-.04-.05-.07-.07-.07-.09,0-.58,0-1.15,0-1.73h1.67c.36.36.1.89.34,1.3.43.33,1.06-.04,1.48.37Z"/><path class="cls-5" d="M174.05,18.17c.05.25.02.45.03.65,0,.18,0,.35,0,.53v.57c.05.04.07.07.09.07.55,0,1.11,0,1.65,0,.06.04.08.08.08.13,0,.13,0,.25,0,.38,0,7.59,0,15.19,0,22.78,0,.1.04.2-.04.28-.02.01-.04.04-.06.04-45.39,0-115.79,0-161.17,0-.04-.04-.07-.05-.07-.07,0-7.77,0-15.54,0-23.33.06-.06.14-.12.23-.2,0,0,.02-.01.05-.01.48,0,.96,0,1.44,0,.02,0,.04-.02.06-.03.01-.02.04-.04.04-.06,0-.5,0-1.01,0-1.49.09-.09.16-.16.23-.23h157.45Z"/><path class="cls-24" d="M175.89,61.92c0,1.13,0,2.27,0,3.4-.04.03-.08.07-.12.07-.48,0-.96,0-1.44,0-.11.06-.19.15-.27.26v1.49s-.04.06-.06.06c-44.19,0-113.39,0-157.58,0-.12-.19-.04-.4-.05-.59-.01-.2,0-.4,0-.6-.01-.2.05-.4-.03-.59-.21-.06-.41-.02-.6-.03-.18,0-.35,0-.53,0-.2,0-.4.03-.58-.02-.03-.03-.06-.04-.06-.06,0-1.13,0-2.27,0-3.4.03,0,.06.01.07,0,.06-.05.11-.1.16-.15h1.52s.05.04.06.06c.03.57,0,1.15.02,1.7.06.03.08.06.1.06,44.14,0,113.28,0,157.42,0,.05,0,.09-.02.14-.03.02-.02.05-.04.05-.06,0-.5,0-1.01,0-1.51.08-.08.15-.15.22-.22h1.36s.1.1.16.15c.02.01.05,0,.07,0Z"/><path class="cls-28" d="M137.57,78.12c-.52,0-1.04,0-1.57,0-.02,0-.04-.02-.06-.03-.01-.02-.04-.04-.04-.06,0-.5,0-.99,0-1.52-.04-.03-.1-.08-.15-.13-.01-.01,0-.05,0-.07.05-.05.1-.05.15,0,.57,0,1.15,0,1.72,0,.02,0,.04.02.06.04.01.02.04.04.04.06,0,.57,0,1.15,0,1.72h-.15Z"/><path class="cls-28" d="M1.98,54.5v-1.67c1.16.16,2.27-.68,3.46-.24.38.61.27,1.23.19,1.85-.03.1-.08.18-.15.26-.57.25-1.13.29-1.69-.05-.06-.04-.11-.09-.15-.15h-1.67Z"/><path class="cls-28" d="M7.28,56.32c-.57,0-1.15,0-1.72,0-.02,0-.04-.02-.06-.04-.01-.02-.04-.04-.04-.06,0-.52,0-1.05,0-1.57v-.15c1.18,0,2.37,0,3.55,0,.03.04.08.08.08.11,0,.48,0,.96,0,1.44,0,.07,0,.14.01.21.03.03.05.06.07.06.53,0,1.06,0,1.59,0,.02.06,0,.1-.05.13-.02.01-.04.02-.06.02-.55,0-1.09,0-1.63,0-.05-.05-.08-.08-.12-.12-.02-.01-.04-.03-.06-.03-.52,0-1.04,0-1.57,0Z"/><path class="cls-28" d="M12.73,79.93H3.88c-.05.05-.1.1-.16.15-.02.01-.05,0-.07,0h-1.82c-.04-.1-.02-.18.08-.24.41-.24.91-.05,1.5-.38,0-6.25,0-12.59,0-18.85-.54-.41-1.08-.16-1.5-.42-.03-.03-.07-.07-.1-.1,0-.05.02-.09.03-.14h1.82c.47-.2.99.09,1.47-.17.29-.45,0-1.03.29-1.5.06-.07.14-.12.22-.15,1.57-.12,3.14-.09,4.71-.07.23,0,.45.04.63.2.22.31.19.67.19,1.01,0,2.6.01,5.21,0,7.81,0,.57-.09,1.14.09,1.68.46.36,1.07.05,1.51.37.34.43.07,1,.33,1.47.44.37,1.1-.01,1.54.41.22.55.24,1.1-.03,1.64-.31.28-.71.23-1.08.23-1.61,0-3.23,0-4.84,0-.32,0-.66-.04-.97.14-.34.41-.07,1-.41,1.45-.37.37-.96.11-1.42.38-.23.33-.22.69-.06,1.06.44.3,1.02.01,1.47.36.36.4.11.97.35,1.45.33.24.69.15,1.03.07.39-.5-.02-1.33.71-1.6.5-.19,1.04-.18,1.51.06.39.44.13,1.01.37,1.46.44.32,1.02.05,1.53.44.22.55.31,1.16-.06,1.78Z"/><path class="cls-28" d="M188.62,72.82h-1.77c-.03.07-.05.09-.05.11,0,2.33,0,4.67,0,7h-16.36c-.36-.59-.26-1.2-.08-1.76.46-.42,1.04-.18,1.49-.42.33-.43.03-1.01.47-1.56,1.12-.23,2.34-.19,3.48-.02.46.51.19,1.1.48,1.55.35.2.7.2,1.06,0,.27-.46.01-1.03.38-1.49.57-.28,1.18-.21,1.73-.05.43.48.2,1.05.5,1.64,1.5.09,3.06.05,4.68,0,.19-1.05.17-2.01.04-2.94-.5-.33-1.08-.07-1.5-.41-.37-.41-.1-1-.44-1.53-2.22-.18-4.51.02-6.79-.1-.08-.05-.14-.13-.18-.22-.1-.58-.23-1.17.17-1.71.36-.23.78-.16,1.17-.19,2.34-.13,4.66.23,7,.18.3,0,.6-.07.89.07.37.41.09.98.36,1.42.43.27.87.13,1.31.09.66-.05,1.34-.24,1.97.15v.15Z"/><path class="cls-28" d="M179.68,58.14c.53,0,1.06,0,1.59,0,.03.04.08.08.08.12,0,.48,0,.96,0,1.43,0,.07,0,.14.01.21.03.03.05.06.07.06,1.71,0,3.42,0,5.14,0,.05.05.1.1.16.15.02.01.05,0,.07,0,.29.31.23.7.23,1.07.01,1.58,0,3.15,0,4.73,0,.32-.05.65.16.95.43.27,1.02,0,1.42.38v.15c-.61.39-1.27.21-1.91.17-.45-.03-.89-.18-1.32.06-.31.43-.04,1.02-.44,1.47-1.19.11-2.42-.03-3.64.07-.61.2-1.21.2-1.81-.07-.24-.58-.33-1.14.04-1.7.06.02.12,0,.13-.05.02-.12.03-.24.03-.37,0-2.94,0-5.88,0-8.81Z"/><path class="cls-28" d="M58.18,79.93c0-.58,0-1.16,0-1.74.04-.03.08-.07.12-.07,1.06,0,2.12,0,3.18,0,.1,0,.2.03.29-.03.02-.02.04-.04.04-.06,0-.55,0-1.11,0-1.65.04-.06.08-.08.13-.08,1.14,0,2.27,0,3.41,0,.02,0,.04.02.06.04.01.02.04.04.04.06,0,.55,0,1.11,0,1.64.03.03.05.07.07.07,1.16,0,2.32,0,3.48,0,.02,0,.04-.03.06-.05.05-.19.01-.39.02-.59,0-.18,0-.35,0-.53,0-.2-.03-.4.01-.58.03-.03.04-.07.06-.07,1.79,0,3.58,0,5.38,0,.05.09.03.16-.05.22-.43.26-.94.04-1.38.26-.32.4-.04.96-.39,1.37-.4.33-.96.07-1.42.33-.35.42,0,1.04-.4,1.46h-12.73Z"/><path class="cls-28" d="M137.72,78.12c1.18,0,2.36,0,3.54,0,.02,0,.04-.03.06-.04.01-.02.03-.04.03-.06,0-.55,0-1.1,0-1.66.19-.12.4-.04.59-.06.2-.02.4,0,.6,0h1.21c.2,0,.4,0,.6,0,.2,0,.4-.03.58.02.02.03.05.05.05.07,0,.55,0,1.1,0,1.65.04.03.08.07.12.07.48,0,.95,0,1.43,0,.07,0,.14.01.2.01.03.03.06.05.06.07,0,.58,0,1.15,0,1.73h-9.09c-.34-.55-.2-1.16-.2-1.75.03-.03.05-.07.08-.1.04.01.08.02.13.03Z"/><path class="cls-28" d="M76.36,79.93v-1.58c-.05-.05-.1-.1-.15-.16-.01-.02,0-.05,0-.07.05-.05.1-.05.15,0,1.18,0,2.35,0,3.53,0,.02,0,.04.02.06.03.01.02.04.04.04.06,0,.58,0,1.15,0,1.73h-3.64Z"/><path class="cls-28" d="M132.26,78.27v1.67h-1.82c0-.57,0-1.15,0-1.72,0-.02.02-.04.04-.06.02-.01.04-.04.06-.04.57,0,1.15,0,1.72,0,.05.03.06.07.05.1-.02.03-.03.05-.05.05Z"/><path class="cls-28" d="M14.55,72.67h10.98c.06.05.11.1.16.15h14.08c.06-.05.12-.1.17-.15h135.96v.15H40.07c-.13.17-.06.35-.07.52-.01.2,0,.4,0,.61v.5c-.22.07-.39.04-.56.04-.18,0-.35,0-.53,0-.17,0-.35-.02-.47,0-.11.09-.19.15-.26.21v1.52c-.03.06-.08.07-.13.07-.53,0-1.06,0-1.59,0-.02,0-.04-.02-.06-.04-.01-.02-.03-.04-.03-.06,0-.55,0-1.1,0-1.64-.03-.03-.05-.07-.07-.07-1.11,0-2.22,0-3.35,0-.05.06-.12.14-.2.23-.03.14,0,.32-.01.49,0,.18,0,.35,0,.53v.51c-.22.09-.43.03-.62.04-.2.01-.4,0-.61,0h-4.17c-.12-.19-.04-.39-.06-.59-.02-.2,0-.4,0-.6-.01-.2.04-.4-.03-.58-.03-.02-.05-.04-.07-.04-.55,0-1.11,0-1.65,0-.13-.17-.06-.35-.07-.52-.01-.2,0-.4,0-.6,0-.17.05-.35-.04-.51-.15-.05-.3-.03-.45-.03-3.33,0-6.66,0-9.99,0-.12,0-.25,0-.37-.02-.06,0-.07-.07-.05-.13Z"/><path class="cls-28" d="M132.26,78.27v-.15c0-.57,0-1.15,0-1.72,0-.02.02-.04.04-.06.02-.01.04-.04.06-.04.57,0,1.15,0,1.72,0,.05-.05.1-.05.15,0,0,.02.01.06,0,.07-.05.05-.11.1-.15.13,0,.53,0,1.02,0,1.52,0,.02-.02.04-.04.06-.02.01-.04.04-.06.04-.5,0-.99,0-1.52,0-.03.04-.08.1-.13.15-.01.01-.05,0-.07,0Z"/><path class="cls-28" d="M135.9,76.3h-1.82c0-.58,0-1.16,0-1.74.04-.03.08-.08.12-.08.53,0,1.06,0,1.59,0,.02,0,.04.02.07.02.02.02.05.04.05.05,0,.58,0,1.16,0,1.74Z"/><path class="cls-28" d="M76.36,78.12h-.15c-.52,0-1.05,0-1.57,0-.02,0-.04-.02-.06-.04-.01-.02-.04-.04-.04-.06,0-.52,0-1.05,0-1.57v-.15c.57,0,1.15,0,1.72,0,.02,0,.04.02.06.04.01.02.04.04.04.06,0,.57,0,1.15,0,1.72Z"/><path class="cls-32" d="M12.73,67.37c.57,0,1.15,0,1.72,0,.02,0,.04.02.06.04.01.02.04.04.04.06,0,.57,0,1.15,0,1.72h-1.67s.01-.06,0-.07c-.05-.06-.1-.11-.15-.16v-1.58Z"/></svg>