<?xml version="1.0" encoding="UTF-8"?><svg id="Layer_1" xmlns="http://www.w3.org/2000/svg" viewBox="0 0 254.13 54.42"><defs><style>.cls-1{fill:#ffa200;}.cls-2{fill:#fff;}.cls-3{fill:#fed000;}</style></defs><polygon class="cls-3" points="233.7 52.24 233.7 51.4 228.65 51.4 228.65 50.56 226.97 50.56 226.97 49.71 224.44 49.71 224.44 48.87 223.6 48.87 223.6 47.19 221.92 47.19 221.92 46.35 221.07 46.35 221.07 44.67 220.23 44.67 220.23 42.15 219.39 42.15 219.39 25.1 220.23 25.1 220.23 21.73 221.07 21.73 221.07 20.89 221.92 20.89 221.92 18.37 222.76 18.37 222.76 17.53 223.6 17.53 223.6 15.84 224.44 15.84 224.44 15 225.28 15 225.28 14.16 226.97 14.16 226.97 13.32 228.65 13.32 228.65 12.48 230.33 12.48 230.33 11.64 246.55 11.64 246.55 12.48 248.23 12.48 248.23 13.32 249.92 13.32 249.92 14.16 251.6 14.16 251.6 15 252.44 15 252.44 16.69 253.28 16.69 253.28 17.53 254.13 17.53 254.13 47.19 253.28 47.19 253.28 48.87 252.44 48.87 252.44 50.56 250.76 50.56 250.76 51.4 248.23 51.4 248.23 52.24 233.7 52.24"/><polygon class="cls-3" points="235.7 50.24 235.7 49.4 230.65 49.4 230.65 48.56 228.97 48.56 228.97 47.71 226.44 47.71 226.44 46.87 225.6 46.87 225.6 45.19 223.92 45.19 223.92 44.35 223.07 44.35 223.07 42.67 222.23 42.67 222.23 40.15 221.39 40.15 221.39 27.1 222.23 27.1 222.23 23.73 223.07 23.73 223.07 22.89 223.92 22.89 223.92 20.37 224.76 20.37 224.76 19.53 225.6 19.53 225.6 17.84 226.44 17.84 226.44 17 227.28 17 227.28 16.16 228.97 16.16 228.97 15.32 230.65 15.32 230.65 14.48 232.33 14.48 232.33 13.64 244.55 13.64 244.55 14.48 246.23 14.48 246.23 15.32 247.92 15.32 247.92 16.16 249.6 16.16 249.6 17 250.44 17 250.44 18.69 251.28 18.69 251.28 19.53 252.13 19.53 252.13 35.1 250.44 35.1 250.44 36.35 251.28 36.35 251.28 38.03 252.13 38.03 252.13 45.19 251.28 45.19 251.28 46.87 250.44 46.87 250.44 48.56 248.76 48.56 248.76 49.4 246.23 49.4 246.23 50.24 235.7 50.24"/><path class="cls-3" d="M236.44,49.5v-.84h-5.05v-.84h-1.68v-.84h-2.53v-.84h-.84v-1.68h-1.68v-.84h-.84v-1.68h-.84v-2.52h-.84v-11.57h.84v-3.36h.84v-.84h.84v-2.52h.84v-.84h.84v-1.68h.84v-.84h.84v-.84h1.68v-.84h1.68v-.84h1.68v-.84h10.73v.84h1.68v.84h1.68v.84h1.68v.84h.84v1.68h.84v.84h.84v14.09h-1.68v.84h-1.68v.2h1.68v1.68h.84v1.68h.84v5.68h-.84v1.68h-.84v1.68h-1.68v.84h-2.52v.84h-9.05ZM239.81,25.31v-.2h-1.05v.2h1.05Z"/><path class="cls-3" d="M248.54,22.27v-.84h-.84v-1.68h-.84v-.84h-1.68v-.84h-1.68v-.84h-1.68v-.84h-6.73v.84h-1.68v.84h-1.68v.84h-1.68v.84h-.84v.84h-.84v1.68h-.84v.84h-.84v2.52h-.84v.84h-.84v3.36h-.84v7.57h.84v2.52h.84v1.68h.84v.84h1.68v1.68h.84v.84h2.53v.84h1.68v.84h5.05v.84h5.05v-.84h2.53v-.84h1.68v-1.68h.84v-1.68h.84v-1.68h-.84v-1.68h-.84v-1.68h-10.94v-.84h-1.68v-1.68h-.84v-2.52h1.68v.84h1.68v.84h8.42v-.84h1.68v-.84h1.68v-10.09h-.84ZM235.92,26.47v-1.68h.84v-.47h0v-1.22h5.05v.84h.84v3.36h-6.73v-.84Z"/><polygon class="cls-3" points="136.21 54.15 136.21 53.27 133.57 53.27 133.57 51.51 132.69 51.51 132.69 50.63 131.81 50.63 131.81 48.88 130.93 48.88 130.93 47.12 130.05 47.12 130.05 43.6 129.17 43.6 129.17 42.72 128.29 42.72 128.29 38.32 127.41 38.32 127.41 35.68 126.53 35.68 126.53 31.28 125.65 31.28 125.65 5.97 126.53 5.97 126.53 4.21 128.29 4.21 128.29 3.33 129.17 3.33 129.17 2.45 141.29 2.45 141.29 3.33 143.05 3.33 143.05 4.21 144.81 4.21 144.81 5.97 145.69 5.97 145.69 6.85 147.46 6.85 147.46 9.49 148.34 9.49 148.34 10.37 149.22 10.37 149.22 11.25 159.98 11.25 159.98 10.37 160.86 10.37 160.86 8.61 161.75 8.61 161.75 5.97 162.63 5.97 162.63 4.21 163.51 4.21 163.51 3.33 164.39 3.33 164.39 2.45 180.91 2.45 180.91 3.33 181.79 3.33 181.79 4.21 182.67 4.21 182.67 5.09 183.55 5.09 183.55 6.85 184.43 6.85 184.43 27.77 183.55 27.77 183.55 33.92 182.67 33.92 182.67 36.56 181.79 36.56 181.79 42.72 180.91 42.72 180.91 43.6 180.03 43.6 180.03 47.12 179.15 47.12 179.15 48.88 178.27 48.88 178.27 49.76 177.39 49.76 177.39 50.63 176.51 50.63 176.51 51.51 157.34 51.51 157.34 50.63 155.58 50.63 155.58 48.88 155.38 48.88 155.38 50.63 154.5 50.63 154.5 51.51 152.74 51.51 152.74 53.27 150.1 53.27 150.1 54.15 136.21 54.15"/><polygon class="cls-3" points="138.21 52.15 138.21 51.27 135.57 51.27 135.57 49.51 134.69 49.51 134.69 48.63 133.81 48.63 133.81 46.88 132.93 46.88 132.93 45.12 132.05 45.12 132.05 41.6 131.17 41.6 131.17 40.72 130.29 40.72 130.29 36.32 129.41 36.32 129.41 33.68 128.53 33.68 128.53 29.28 127.65 29.28 127.65 7.97 128.53 7.97 128.53 6.21 130.29 6.21 130.29 5.33 131.17 5.33 131.17 4.45 139.29 4.45 139.29 5.33 141.05 5.33 141.05 6.21 142.81 6.21 142.81 7.97 143.69 7.97 143.69 8.85 145.46 8.85 145.46 11.49 146.34 11.49 146.34 12.37 147.22 12.37 147.22 15.88 147.9 15.88 147.9 15.01 148.78 15.01 148.78 14.13 149.66 14.13 149.66 13.25 161.3 13.25 161.3 14.13 161.98 14.13 161.98 12.37 162.86 12.37 162.86 10.61 163.75 10.61 163.75 7.97 164.63 7.97 164.63 6.21 165.51 6.21 165.51 5.33 166.39 5.33 166.39 4.45 178.91 4.45 178.91 5.33 179.79 5.33 179.79 6.21 180.67 6.21 180.67 7.09 181.55 7.09 181.55 8.85 182.43 8.85 182.43 25.77 181.55 25.77 181.55 31.92 180.67 31.92 180.67 34.56 179.79 34.56 179.79 40.72 178.91 40.72 178.91 41.6 178.03 41.6 178.03 45.12 177.15 45.12 177.15 46.88 176.27 46.88 176.27 47.76 175.39 47.76 175.39 48.63 174.51 48.63 174.51 49.51 159.34 49.51 159.34 48.63 157.58 48.63 157.58 46.88 156.7 46.88 156.7 46 155.82 46 155.82 45.12 155.14 45.12 155.14 46.88 153.38 46.88 153.38 48.63 152.5 48.63 152.5 49.51 150.74 49.51 150.74 51.27 148.1 51.27 148.1 52.15 138.21 52.15"/><polygon class="cls-3" points="138.95 51.41 138.95 50.53 136.31 50.53 136.31 48.77 135.43 48.77 135.43 47.89 134.55 47.89 134.55 46.13 133.67 46.13 133.67 44.38 132.79 44.38 132.79 40.86 131.91 40.86 131.91 39.98 131.03 39.98 131.03 35.58 130.15 35.58 130.15 32.94 129.27 32.94 129.27 28.54 128.39 28.54 128.39 8.71 129.27 8.71 129.27 6.95 131.03 6.95 131.03 6.07 131.91 6.07 131.91 5.19 138.55 5.19 138.55 6.07 140.31 6.07 140.31 6.95 142.07 6.95 142.07 8.71 142.95 8.71 142.95 9.59 144.71 9.59 144.71 12.23 145.59 12.23 145.59 13.11 146.47 13.11 146.47 16.63 147.36 16.63 147.36 18.39 147.76 18.39 147.76 16.63 148.64 16.63 148.64 15.75 149.52 15.75 149.52 14.87 150.4 14.87 150.4 13.99 160.56 13.99 160.56 14.87 161.44 14.87 161.44 15.75 162.32 15.75 162.32 16.63 162.73 16.63 162.73 13.11 163.61 13.11 163.61 11.35 164.49 11.35 164.49 8.71 165.37 8.71 165.37 6.95 166.25 6.95 166.25 6.07 167.13 6.07 167.13 5.19 178.17 5.19 178.17 6.07 179.05 6.07 179.05 6.95 179.93 6.95 179.93 7.83 180.81 7.83 180.81 9.59 181.69 9.59 181.69 25.02 180.81 25.02 180.81 31.18 179.93 31.18 179.93 33.82 179.05 33.82 179.05 39.98 178.17 39.98 178.17 40.86 177.29 40.86 177.29 44.38 176.41 44.38 176.41 46.13 175.53 46.13 175.53 47.01 174.65 47.01 174.65 47.89 173.77 47.89 173.77 48.77 160.08 48.77 160.08 47.89 158.32 47.89 158.32 46.13 157.44 46.13 157.44 45.25 156.56 45.25 156.56 44.38 155.68 44.38 155.68 42.62 155.28 42.62 155.28 43.5 154.4 43.5 154.4 46.13 152.64 46.13 152.64 47.89 151.76 47.89 151.76 48.77 150 48.77 150 50.53 147.36 50.53 147.36 51.41 138.95 51.41"/><polygon class="cls-3" points="178.81 10.71 178.81 9.83 177.93 9.83 177.93 8.95 177.05 8.95 177.05 8.07 176.17 8.07 176.17 7.19 175.29 7.19 174.41 7.19 173.53 7.19 172.65 7.19 171.77 7.19 170.89 7.19 170.01 7.19 169.13 7.19 169.13 8.07 168.25 8.07 168.25 8.95 167.37 8.95 167.37 9.83 167.37 10.71 166.49 10.71 166.49 11.59 166.49 12.47 166.49 13.35 165.61 13.35 165.61 14.23 165.61 15.11 164.73 15.11 164.73 15.99 164.73 16.87 164.73 17.75 164.73 18.63 164.73 19.51 163.84 19.51 163.84 20.39 163.84 21.26 163.84 22.14 162.96 22.14 162.96 23.02 162.08 23.02 162.08 22.14 162.08 21.26 162.08 20.39 162.08 19.51 161.2 19.51 161.2 18.63 160.32 18.63 160.32 17.75 159.44 17.75 159.44 16.87 158.56 16.87 158.56 15.99 157.68 15.99 156.8 15.99 155.92 15.99 155.04 15.99 154.16 15.99 153.28 15.99 152.4 15.99 152.4 16.87 151.52 16.87 151.52 17.75 150.64 17.75 150.64 18.63 149.76 18.63 149.76 19.51 149.76 20.39 148.88 20.39 148.88 21.26 148 21.26 148 22.14 148 23.02 147.12 23.02 147.12 23.9 147.12 24.78 146.24 24.78 145.36 24.78 145.36 23.9 145.36 23.02 145.36 22.14 145.36 21.26 145.36 20.39 145.36 19.51 145.36 18.63 144.47 18.63 144.47 17.75 144.47 16.87 144.47 15.99 144.47 15.11 143.59 15.11 143.59 14.23 142.71 14.23 142.71 13.35 142.71 12.47 142.71 11.59 141.83 11.59 140.95 11.59 140.95 10.71 140.07 10.71 140.07 9.83 140.07 8.95 139.19 8.95 138.31 8.95 138.31 8.07 137.43 8.07 136.55 8.07 136.55 7.19 135.67 7.19 134.79 7.19 133.91 7.19 133.91 8.07 133.03 8.07 133.03 8.95 132.15 8.95 131.27 8.95 131.27 9.83 131.27 10.71 130.39 10.71 130.39 11.59 130.39 12.47 130.39 13.35 130.39 14.23 130.39 15.11 130.39 15.99 130.39 16.87 130.39 17.75 130.39 18.63 130.39 19.51 130.39 20.39 130.39 21.26 130.39 22.14 130.39 23.02 130.39 23.9 130.39 24.78 130.39 25.66 130.39 26.54 131.27 26.54 131.27 27.42 131.27 28.3 131.27 29.18 131.27 30.06 131.27 30.94 132.15 30.94 132.15 31.82 132.15 32.7 132.15 32.7 132.15 33.58 133.03 33.58 133.03 33.58 133.03 34.46 133.03 34.99 133.03 34.99 133.03 35.34 133.03 36.22 133.03 37.1 133.03 37.98 133.03 37.98 133.91 37.98 133.91 38.86 133.91 38.86 134.79 38.86 134.79 39.39 134.79 39.39 134.79 39.74 134.79 40.62 134.79 41.5 134.79 42.38 134.79 42.38 135.67 42.38 135.67 43.25 135.67 44.13 135.67 44.13 136.55 44.13 136.55 45.01 136.55 45.89 136.55 45.89 137.43 45.89 137.43 46.77 137.43 46.77 138.31 46.77 138.31 47.65 138.31 48.53 138.31 48.53 139.19 48.53 140.07 48.53 140.07 48.53 140.95 48.53 140.95 49.41 141.83 49.41 141.83 49.41 142.71 49.41 143.59 49.41 143.59 49.41 144.47 49.41 144.47 49.41 145.36 49.41 145.36 49.41 145.36 48.53 146.24 48.53 146.24 48.53 147.12 48.53 147.12 48.53 148 48.53 148 48.53 148 47.65 148 46.77 148.88 46.77 148.88 46.77 149.76 46.77 149.76 45.89 150.64 45.89 150.64 45.01 150.64 44.13 151.52 44.13 152.4 44.13 152.4 44.13 152.4 43.25 152.4 42.38 152.4 41.5 153.28 41.5 153.28 41.5 153.28 41.5 153.28 40.62 153.28 39.74 153.28 38.86 154.16 38.86 154.16 38.86 154.16 38.86 154.16 37.98 154.16 37.1 154.16 36.22 155.04 36.22 155.04 37.1 155.04 37.98 155.04 37.98 155.92 37.98 155.92 38.86 156.8 38.86 156.8 39.74 156.8 40.62 156.8 40.62 157.68 40.62 157.68 41.5 157.68 42.38 157.68 42.38 158.56 42.38 158.56 43.25 159.44 43.25 159.44 44.13 159.44 44.13 160.32 44.13 160.32 45.01 160.32 45.89 161.2 45.89 161.2 45.89 162.08 45.89 162.08 46.77 162.96 46.77 162.96 46.77 163.84 46.77 163.84 46.77 164.73 46.77 164.73 46.77 165.61 46.77 165.61 46.77 166.49 46.77 166.49 46.77 167.37 46.77 167.37 46.77 168.25 46.77 168.25 46.77 169.13 46.77 170.01 46.77 170.01 46.77 170.89 46.77 171.77 46.77 171.77 46.77 171.77 45.89 172.65 45.89 172.65 45.89 172.65 45.01 173.53 45.01 173.53 45.01 173.53 44.13 174.41 44.13 174.41 44.13 174.41 43.25 174.41 42.38 175.29 42.38 175.29 42.38 175.29 41.5 175.29 40.62 175.29 39.74 175.29 39.39 175.29 39.39 175.29 38.86 176.17 38.86 176.17 38.86 176.17 38.86 176.17 37.98 177.05 37.98 177.05 37.98 177.05 37.1 177.05 36.22 177.05 35.34 177.05 34.99 177.05 34.99 177.05 34.46 177.05 33.58 177.05 32.7 177.05 31.82 177.05 31.82 177.93 31.82 177.93 30.94 177.93 30.94 177.93 30.06 177.93 29.18 178.81 29.18 178.81 28.3 178.81 27.42 178.81 26.54 178.81 26.54 178.81 26.19 178.81 25.66 178.81 24.78 178.81 23.9 178.81 23.02 179.69 23.02 179.69 22.14 179.69 22.14 179.69 21.26 179.69 20.39 179.69 20.03 179.69 19.51 179.69 18.63 179.69 17.75 179.69 16.87 179.69 15.99 179.69 15.11 179.69 14.23 179.69 13.35 179.69 12.47 179.69 11.59 178.81 11.59 178.81 10.71"/><polygon class="cls-3" points="56.51 50.08 56.51 49.24 54.82 49.24 54.82 48.4 53.14 48.4 53.14 47.56 52.3 47.56 52.3 45.88 51.46 45.88 51.46 44.19 50.61 44.19 50.61 24.62 51.46 24.62 51.46 22.1 52.3 22.1 52.3 21.26 53.14 21.26 53.14 19.58 53.98 19.58 53.98 17.89 55.66 17.89 55.66 17.05 56.51 17.05 56.51 15.37 59.03 15.37 59.03 14.53 76.93 14.53 76.93 15.37 79.46 15.37 79.46 16.21 81.14 16.21 81.14 17.05 81.98 17.05 81.98 17.89 83.67 17.89 83.67 19.58 84.51 19.58 84.51 20.42 85.35 20.42 85.35 22.1 86.19 22.1 86.19 43.35 85.35 43.35 85.35 44.19 84.51 44.19 84.51 45.88 83.67 45.88 83.67 46.72 82.82 46.72 82.82 47.56 81.14 47.56 81.14 48.4 79.46 48.4 79.46 49.24 77.77 49.24 77.77 50.08 56.51 50.08"/><polygon class="cls-3" points="58.51 48.08 58.51 47.24 56.82 47.24 56.82 46.4 55.14 46.4 55.14 45.56 54.3 45.56 54.3 43.88 53.46 43.88 53.46 42.19 52.61 42.19 52.61 26.62 53.46 26.62 53.46 24.1 54.3 24.1 54.3 23.26 55.14 23.26 55.14 21.58 55.98 21.58 55.98 19.89 57.66 19.89 57.66 19.05 58.51 19.05 58.51 17.37 61.03 17.37 61.03 16.53 74.93 16.53 74.93 17.37 77.46 17.37 77.46 18.21 79.14 18.21 79.14 19.05 79.98 19.05 79.98 19.89 81.67 19.89 81.67 21.58 82.51 21.58 82.51 22.42 83.35 22.42 83.35 24.1 84.19 24.1 84.19 41.35 83.35 41.35 83.35 42.19 82.51 42.19 82.51 43.88 81.67 43.88 81.67 44.72 80.82 44.72 80.82 45.56 79.14 45.56 79.14 46.4 77.46 46.4 77.46 47.24 75.77 47.24 75.77 48.08 58.51 48.08"/><path class="cls-3" d="M59.25,47.34v-.84h-1.68v-.84h-1.68v-.84h-.84v-1.68h-.84v-1.68h-.84v-14.09h.84v-2.52h.84v-.84h.84v-1.68h.84v-1.68h1.68v-.84h.84v-1.68h2.53v-.84h12.42v.84h2.53v.84h1.68v.84h.84v.84h1.68v1.68h.84v.84h.84v1.68h.84v15.77h-.84v.84h-.84v1.68h-.84v.84h-.84v.84h-1.68v.84h-1.68v.84h-1.68v.84h-15.79ZM68.51,34.09v-1.05h-1.05v.2h.84v.84h.21Z"/><path class="cls-3" d="M80.61,26v-.84h-.84v-.84h-.84v-1.68h-1.68v-.84h-.84v-.84h-1.68v-.84h-2.53v-.84h-8.42v.84h-2.53v1.68h-.84v.84h-1.68v1.68h-.84v1.68h-.84v.84h-.84v2.52h-.84v10.09h.84v1.68h.84v1.68h.84v.84h1.68v.84h1.68v.84h11.78v-.84h1.68v-.84h1.68v-.84h1.68v-.84h.84v-.84h.84v-1.68h.84v-.84h.84v-11.77h-.84v-.84ZM65.46,34.41v-3.36h1.68v-.84h2.53v.84h.84v.84h.84v1.68h-.84v2.52h-4.21v-.84h-.84v-.84Z"/><polygon class="cls-3" points="81.17 51.75 81.17 50.76 80.18 50.76 80.18 48.79 79.19 48.79 79.19 45.82 78.2 45.82 78.2 22.48 79.19 22.48 79.19 11.6 80.18 11.6 80.18 5.67 81.17 5.67 81.17 3.69 82.16 3.69 82.16 2.7 83.15 2.7 83.15 1.71 97.58 1.71 97.58 2.7 98.57 2.7 98.57 5.67 117.39 5.67 117.39 6.65 119.37 6.65 119.37 7.64 120.36 7.64 120.36 9.62 121.35 9.62 121.35 24.05 120.36 24.05 120.36 25.04 119.37 25.04 119.37 26.03 118.38 26.03 118.38 27.02 102.96 27.02 102.96 26.03 101.54 26.03 101.54 27.02 100.55 27.02 100.55 35.92 99.56 35.92 99.56 45.82 98.57 45.82 98.57 48.79 97.58 48.79 97.58 49.77 96.59 49.77 96.59 51.75 81.17 51.75"/><polygon class="cls-3" points="83.17 49.75 83.17 48.76 82.18 48.76 82.18 46.79 81.19 46.79 81.19 43.82 80.2 43.82 80.2 24.48 81.19 24.48 81.19 13.6 82.18 13.6 82.18 7.67 83.17 7.67 83.17 5.69 84.16 5.69 84.16 4.7 85.15 4.7 85.15 3.71 95.58 3.71 95.58 4.7 96.57 4.7 96.57 7.67 115.39 7.67 115.39 8.65 117.37 8.65 117.37 9.64 118.36 9.64 118.36 11.62 119.35 11.62 119.35 22.05 118.36 22.05 118.36 23.04 117.37 23.04 117.37 24.03 116.38 24.03 116.38 25.02 104.96 25.02 104.96 24.03 101.98 24.03 101.98 23.04 100.53 23.04 100.53 24.03 99.54 24.03 99.54 25.02 98.55 25.02 98.55 33.92 97.56 33.92 97.56 43.82 96.57 43.82 96.57 46.79 95.58 46.79 95.58 47.77 94.59 47.77 94.59 49.75 83.17 49.75"/><polygon class="cls-3" points="83.91 49.01 83.91 48.02 82.92 48.02 82.92 46.04 81.93 46.04 81.93 43.08 80.94 43.08 80.94 25.23 81.93 25.23 81.93 14.34 82.92 14.34 82.92 8.41 83.91 8.41 83.91 6.43 84.9 6.43 84.9 5.44 85.89 5.44 85.89 4.45 94.84 4.45 94.84 5.44 95.83 5.44 95.83 9.4 96.78 9.4 96.78 8.41 114.65 8.41 114.65 9.4 116.63 9.4 116.63 10.39 117.62 10.39 117.62 12.36 118.61 12.36 118.61 21.31 117.62 21.31 117.62 22.3 116.63 22.3 116.63 23.29 115.64 23.29 115.64 24.28 105.7 24.28 105.7 23.29 102.73 23.29 102.73 22.3 99.79 22.3 99.79 23.29 98.8 23.29 98.8 24.28 97.81 24.28 97.81 33.18 96.82 33.18 96.82 43.08 95.83 43.08 95.83 46.04 94.84 46.04 94.84 47.03 93.85 47.03 93.85 49.01 83.91 49.01"/><polygon class="cls-3" points="97.79 20.3 98.78 20.3 98.78 20.3 99.77 20.3 100.76 20.3 101.75 20.3 101.75 20.3 102.75 20.3 102.75 20.3 103.74 20.3 103.74 20.3 104.73 20.3 104.73 21.29 105.72 21.29 106.71 21.29 107.7 21.29 107.7 22.28 107.7 22.28 108.69 22.28 108.69 22.28 109.68 22.28 109.68 22.28 110.67 22.28 111.66 22.28 111.66 22.28 112.65 22.28 112.65 22.28 113.64 22.28 113.64 22.28 113.64 21.29 114.63 21.29 114.63 21.29 114.63 20.3 115.62 20.3 115.62 20.3 115.62 19.31 116.61 19.31 116.61 19.31 116.61 18.32 116.61 17.33 116.61 16.34 116.61 16.32 116.61 16.32 116.61 15.35 116.61 14.36 115.62 14.36 115.62 13.37 115.62 12.39 114.63 12.39 114.63 11.4 113.64 11.4 112.65 11.4 112.65 10.41 111.66 10.41 110.67 10.41 109.68 10.41 108.69 10.41 107.7 10.41 106.71 10.41 105.72 10.41 104.73 10.41 103.74 10.41 102.75 10.41 101.75 10.41 100.76 10.41 99.77 10.41 98.78 10.41 98.78 11.4 97.79 11.4 96.8 11.4 95.81 11.4 95.81 12.39 95.81 13.37 94.82 13.37 93.83 13.37 93.83 12.39 93.83 11.4 93.83 10.41 93.83 9.42 93.83 8.43 93.83 7.44 92.84 7.44 92.84 6.45 91.85 6.45 90.86 6.45 89.87 6.45 88.88 6.45 87.89 6.45 87.89 7.44 86.9 7.44 86.9 8.43 85.91 8.43 85.91 9.42 85.91 10.41 84.92 10.41 84.92 11.4 84.92 12.39 84.92 13.37 84.92 14.36 84.92 15.35 84.92 16.34 83.93 16.34 83.93 17.33 83.93 18.32 83.93 19.31 83.93 20.3 83.93 21.29 83.93 22.28 83.93 23.27 83.93 24.26 83.93 25.25 83.93 26.24 83.93 27.23 82.94 27.23 82.94 28.21 82.94 29.2 82.94 30.19 82.94 31.18 82.94 32.17 82.94 33.16 82.94 34.15 82.94 35.14 82.94 36.13 82.94 37.12 82.94 38.11 82.94 39.1 82.94 40.09 82.94 41.08 82.94 41.08 83.93 41.08 83.93 42.07 83.93 43.05 83.93 44.04 84.92 44.04 84.92 45.03 84.92 46.02 84.92 46.02 85.91 46.02 85.91 47.01 85.91 47.01 86.9 47.01 87.89 47.01 87.89 47.01 88.88 47.01 88.88 47.01 89.87 47.01 90.86 47.01 91.85 47.01 91.85 47.01 91.85 46.02 91.85 45.03 92.84 45.03 92.84 44.04 93.83 44.04 93.83 43.05 93.83 42.07 93.83 41.08 94.82 41.08 94.82 41.08 94.82 40.09 94.82 39.1 94.82 38.11 94.82 37.12 94.82 36.13 94.82 35.14 94.82 34.15 94.82 33.16 94.82 32.17 94.82 31.18 95.81 31.18 95.81 30.19 95.81 30.19 95.81 29.2 95.81 28.21 95.81 28.19 95.81 27.23 95.81 26.24 95.81 25.25 95.81 24.26 95.81 23.27 95.81 22.28 96.8 22.28 96.8 21.29 97.79 21.29 97.79 20.3"/><polygon class="cls-3" points="13.21 53.46 13.21 52.58 11.45 52.58 11.45 51.7 10.57 51.7 10.57 50.82 9.68 50.82 9.68 49.94 8.8 49.94 8.8 48.18 7.92 48.18 7.92 46.43 7.04 46.43 7.04 45.55 6.16 45.55 6.16 42.91 5.28 42.91 5.28 42.03 4.4 42.03 4.4 38.51 3.52 38.51 3.52 35.87 2.64 35.87 2.64 34.11 1.76 34.11 1.76 30.59 .88 30.59 .88 25.31 0 25.31 0 10.55 .88 10.55 .88 6.16 1.76 6.16 1.76 4.4 3.52 4.4 3.52 3.52 6.16 3.52 6.16 2.64 20.05 2.64 20.05 3.52 22.69 3.52 22.69 4.4 23.57 4.4 23.57 6.16 24.45 6.16 24.45 7.92 25.33 7.92 25.33 8.8 35.22 8.8 35.22 7.92 36.1 7.92 36.1 4.4 36.98 4.4 36.98 3.52 37.86 3.52 37.86 1.76 39.62 1.76 39.62 .88 41.38 .88 41.38 0 54.39 0 54.39 .88 57.03 .88 57.03 1.76 57.91 1.76 57.91 3.52 58.79 3.52 58.79 5.28 59.67 5.28 59.67 30.59 58.79 30.59 58.79 38.51 57.91 38.51 57.91 42.91 57.03 42.91 57.03 45.55 55.27 45.55 55.27 47.3 54.39 47.3 54.39 48.18 52.62 48.18 52.62 49.06 51.75 49.06 51.75 49.94 47.34 49.94 47.34 50.82 36.1 50.82 36.1 49.94 33.46 49.94 33.46 49.06 32.58 49.06 32.58 48.18 32.38 48.18 32.38 49.94 30.61 49.94 30.61 50.82 29.73 50.82 29.73 52.58 27.09 52.58 27.09 53.46 13.21 53.46"/><polygon class="cls-3" points="15.21 51.46 15.21 50.58 13.45 50.58 13.45 49.7 12.57 49.7 12.57 48.82 11.68 48.82 11.68 47.94 10.8 47.94 10.8 46.18 9.92 46.18 9.92 44.43 9.04 44.43 9.04 43.55 8.16 43.55 8.16 40.91 7.28 40.91 7.28 40.03 6.4 40.03 6.4 36.51 5.52 36.51 5.52 33.87 4.64 33.87 4.64 32.11 3.76 32.11 3.76 28.59 2.88 28.59 2.88 23.31 2 23.31 2 12.55 2.88 12.55 2.88 8.16 3.76 8.16 3.76 6.4 5.52 6.4 5.52 5.52 8.16 5.52 8.16 4.64 18.05 4.64 18.05 5.52 20.69 5.52 20.69 6.4 21.57 6.4 21.57 8.16 22.45 8.16 22.45 9.92 23.33 9.92 23.33 12.55 25.77 12.55 25.77 11.68 26.65 11.68 26.65 10.8 33.9 10.8 33.9 11.68 35.66 11.68 35.66 12.55 37.22 12.55 37.22 9.92 38.1 9.92 38.1 6.4 38.98 6.4 38.98 5.52 39.86 5.52 39.86 3.76 41.62 3.76 41.62 2.88 43.38 2.88 43.38 2 52.39 2 52.39 2.88 55.03 2.88 55.03 3.76 55.91 3.76 55.91 5.52 56.79 5.52 56.79 7.28 57.67 7.28 57.67 28.59 56.79 28.59 56.79 36.51 55.91 36.51 55.91 40.91 55.03 40.91 55.03 43.55 53.27 43.55 53.27 45.3 52.39 45.3 52.39 46.18 50.63 46.18 50.63 47.06 49.74 47.06 49.74 47.94 45.34 47.94 45.34 48.82 38.1 48.82 38.1 47.94 35.46 47.94 35.46 47.06 34.58 47.06 34.58 46.18 33.7 46.18 33.7 45.3 32.82 45.3 32.82 44.43 31.25 44.43 31.25 46.18 30.37 46.18 30.37 47.94 28.61 47.94 28.61 48.82 27.73 48.82 27.73 50.58 25.09 50.58 25.09 51.46 15.21 51.46"/><polygon class="cls-3" points="15.95 50.72 15.95 49.84 14.19 49.84 14.19 48.96 13.31 48.96 13.31 48.08 12.43 48.08 12.43 47.2 11.55 47.2 11.55 45.44 10.67 45.44 10.67 43.68 9.79 43.68 9.79 42.8 8.9 42.8 8.9 40.17 8.02 40.17 8.02 39.29 7.14 39.29 7.14 35.77 6.26 35.77 6.26 33.13 5.38 33.13 5.38 31.37 4.5 31.37 4.5 27.85 3.62 27.85 3.62 22.57 2.74 22.57 2.74 13.3 3.62 13.3 3.62 8.9 4.5 8.9 4.5 7.14 6.26 7.14 6.26 6.26 8.9 6.26 8.9 5.38 17.31 5.38 17.31 6.26 19.95 6.26 19.95 7.14 20.83 7.14 20.83 8.9 21.71 8.9 21.71 10.66 22.59 10.66 22.59 13.3 23.47 13.3 23.47 15.06 23.87 15.06 23.87 14.18 24.75 14.18 24.75 13.3 26.51 13.3 26.51 12.42 27.39 12.42 27.39 11.54 33.16 11.54 33.16 12.42 34.92 12.42 34.92 13.3 36.68 13.3 36.68 14.18 37.56 14.18 37.56 15.94 37.96 15.94 37.96 10.66 38.84 10.66 38.84 7.14 39.72 7.14 39.72 6.26 40.6 6.26 40.6 4.5 42.36 4.5 42.36 3.62 44.12 3.62 44.12 2.74 51.64 2.74 51.64 3.62 54.29 3.62 54.29 4.5 55.17 4.5 55.17 6.26 56.05 6.26 56.05 8.02 56.93 8.02 56.93 27.85 56.05 27.85 56.05 35.77 55.17 35.77 55.17 40.17 54.29 40.17 54.29 42.8 52.53 42.8 52.53 44.56 51.64 44.56 51.64 45.44 49.88 45.44 49.88 46.32 49 46.32 49 47.2 44.6 47.2 44.6 48.08 38.84 48.08 38.84 47.2 36.2 47.2 36.2 46.32 35.32 46.32 35.32 45.44 34.44 45.44 34.44 44.56 33.56 44.56 33.56 43.68 32.68 43.68 32.68 41.92 31.39 41.92 31.39 43.68 30.51 43.68 30.51 45.44 29.63 45.44 29.63 47.2 27.87 47.2 27.87 48.08 26.99 48.08 26.99 49.84 24.35 49.84 24.35 50.72 15.95 50.72"/><polygon class="cls-3" points="54.05 9.14 54.05 8.26 53.17 8.26 53.17 7.38 53.17 6.5 52.29 6.5 52.29 5.62 51.41 5.62 50.53 5.62 49.64 5.62 49.64 4.74 48.76 4.74 47.88 4.74 47 4.74 46.12 4.74 46.12 5.62 45.24 5.62 44.36 5.62 44.36 6.5 43.48 6.5 42.6 6.5 42.6 7.38 42.6 8.26 41.72 8.26 41.72 9.14 40.84 9.14 40.84 10.02 40.84 10.9 40.84 11.78 40.84 12.66 39.96 12.66 39.96 13.54 39.96 14.42 39.96 15.3 39.96 16.18 39.96 17.06 39.96 17.93 39.96 18.81 39.96 19.69 39.96 20.57 39.96 21.45 39.08 21.45 38.2 21.45 38.2 20.57 38.2 19.69 37.32 19.69 37.32 18.81 37.32 17.93 36.44 17.93 35.56 17.93 35.56 17.06 35.56 16.18 34.68 16.18 34.68 15.3 33.8 15.3 32.92 15.3 32.92 14.42 32.04 14.42 31.16 14.42 31.16 13.54 30.27 13.54 29.39 13.54 29.39 14.42 28.51 14.42 28.51 15.3 27.63 15.3 26.75 15.3 26.75 16.18 25.87 16.18 25.87 17.06 25.87 17.93 24.99 17.93 24.99 18.81 24.99 19.69 24.11 19.69 24.11 20.57 23.23 20.57 23.23 21.45 23.23 22.33 23.23 23.21 22.35 23.21 22.35 22.33 22.35 21.45 22.35 20.57 22.35 19.69 22.35 18.81 22.35 17.93 22.35 17.06 21.47 17.06 21.47 16.18 21.47 15.3 20.59 15.3 20.59 14.42 20.59 13.54 20.59 12.66 19.71 12.66 19.71 11.78 19.71 10.9 18.83 10.9 18.83 10.02 18.83 9.14 17.95 9.14 17.95 8.26 17.07 8.26 16.19 8.26 15.31 8.26 15.31 7.38 14.43 7.38 13.55 7.38 12.67 7.38 11.78 7.38 10.9 7.38 10.9 8.26 10.02 8.26 9.14 8.26 8.26 8.26 8.26 9.14 7.38 9.14 6.5 9.14 6.5 10.02 6.5 10.9 5.62 10.9 5.62 11.78 5.62 12.66 5.62 13.54 5.62 14.42 5.62 15.3 4.74 15.3 4.74 16.18 4.74 17.06 4.74 17.58 4.74 17.58 4.74 17.93 4.74 18.81 4.74 19.69 4.74 20.57 4.74 20.57 5.62 20.57 5.62 21.45 5.62 22.33 5.62 23.21 5.62 24.09 5.62 24.97 5.62 25.85 6.5 25.85 6.5 26.73 6.5 27.61 6.5 28.49 6.5 29.37 6.5 29.37 7.38 29.37 7.38 30.25 7.38 31.13 8.26 31.13 8.26 32.01 8.26 32.89 8.26 33.77 8.26 33.77 9.14 33.77 9.14 34.3 9.14 34.65 9.14 35.53 9.14 36.41 9.14 36.41 9.14 37.29 10.02 37.29 10.02 38.17 10.9 38.17 10.9 39.04 10.9 39.92 10.9 40.8 10.9 40.8 11.78 40.8 11.78 41.68 11.78 41.68 12.67 41.68 12.67 42.56 12.67 43.44 12.67 43.44 13.55 43.44 13.55 44.32 13.55 45.2 13.55 45.2 14.43 45.2 14.43 46.08 14.43 46.08 14.43 46.08 15.31 46.08 15.31 46.96 16.19 46.96 16.19 47.84 16.19 47.84 17.07 47.84 17.07 47.84 17.95 47.84 17.95 48.72 18.83 48.72 18.83 48.72 19.71 48.72 20.59 48.72 21.47 48.72 21.47 48.72 22.35 48.72 22.35 48.72 22.35 47.84 23.23 47.84 23.23 47.84 24.11 47.84 24.11 47.84 24.99 47.84 24.99 47.84 24.99 46.96 24.99 46.08 25.87 46.08 25.87 46.08 25.87 46.08 25.87 45.2 26.75 45.2 27.63 45.2 27.63 45.2 27.63 44.32 27.63 43.44 28.51 43.44 28.51 42.56 28.51 42.56 28.51 41.68 29.39 41.68 29.39 41.68 29.39 40.8 29.39 39.92 30.27 39.92 30.27 39.92 30.27 39.04 30.27 38.17 30.27 37.29 30.27 36.41 31.16 36.41 31.16 35.53 31.16 34.65 32.04 34.65 32.04 35.53 32.04 36.41 32.04 36.41 32.04 36.41 32.92 36.41 32.92 37.29 32.92 38.17 32.92 39.04 32.92 39.04 33.8 39.04 33.8 39.92 33.8 39.92 34.68 39.92 34.68 40.8 34.68 41.68 34.68 41.68 35.56 41.68 35.56 42.56 36.44 42.56 36.44 43.44 36.44 43.44 37.32 43.44 37.32 44.32 38.2 44.32 38.2 45.2 38.2 45.2 39.08 45.2 39.96 45.2 39.96 45.2 40.84 45.2 40.84 46.08 40.84 46.08 40.84 46.08 41.72 46.08 42.6 46.08 42.6 46.08 42.6 46.08 42.6 45.2 43.48 45.2 43.48 45.2 44.36 45.2 44.36 45.2 45.24 45.2 45.24 45.2 46.12 45.2 47 45.2 47 45.2 47 44.32 47.88 44.32 47.88 43.44 48.76 43.44 48.76 43.44 49.64 43.44 49.64 43.44 49.64 42.56 50.53 42.56 50.53 42.56 50.53 42.56 50.53 41.68 50.53 40.8 51.41 40.8 52.29 40.8 52.29 40.8 52.29 40.8 52.29 39.92 52.29 39.04 52.29 38.17 53.17 38.17 53.17 38.17 53.17 37.29 53.17 36.41 53.17 35.53 53.17 35.18 53.17 35.18 53.17 34.65 53.17 33.77 53.17 33.77 54.05 33.77 54.05 33.77 54.05 32.89 54.05 32.01 54.05 31.13 54.05 30.78 54.05 30.78 54.05 30.25 54.05 29.37 54.05 28.49 54.05 27.61 54.05 26.73 54.05 25.85 54.93 25.85 54.93 25.85 54.93 24.97 54.93 24.09 54.93 23.21 54.93 23.21 54.93 22.86 54.93 22.33 54.93 21.45 54.93 20.57 54.93 19.69 54.93 18.81 54.93 17.93 54.93 17.06 54.93 16.18 54.93 15.3 54.93 14.42 54.93 13.54 54.93 12.66 54.93 11.78 54.93 10.9 54.93 10.02 54.05 10.02 54.05 9.14"/><polygon class="cls-3" points="178.19 50.8 178.26 49.96 177.42 49.89 177.49 49.05 176.66 48.98 176.88 46.46 176.04 46.39 176.4 42.2 175.57 42.13 175.86 38.77 175.02 38.7 176.81 18.36 177.65 18.44 177.8 16.76 178.64 16.84 178.86 14.32 179.7 14.4 179.77 13.56 181.45 13.71 181.52 12.87 193.48 13.92 193.41 14.76 195.08 14.91 195.01 15.74 195.85 15.82 195.63 18.33 196.47 18.4 196.25 20.92 197.08 20.99 194.71 48.03 193.87 47.96 193.72 49.63 192.88 49.56 192.74 51.23 191.9 51.16 191.82 52 178.19 50.8"/><polygon class="cls-3" points="180.35 48.98 180.43 48.14 179.59 48.07 179.66 47.23 178.82 47.16 179.04 44.64 178.2 44.57 178.57 40.38 177.73 40.31 178.03 36.96 177.19 36.88 178.63 20.53 179.47 20.61 179.61 18.93 180.45 19 180.67 16.49 181.51 16.56 181.58 15.73 183.26 15.87 183.34 15.04 191.31 15.74 191.24 16.58 192.92 16.72 192.84 17.56 193.68 17.63 193.46 20.15 194.3 20.22 194.08 22.73 194.91 22.81 192.89 45.86 192.05 45.79 191.9 47.46 191.07 47.39 190.92 49.06 190.08 48.99 190.01 49.83 180.35 48.98"/><polygon class="cls-3" points="181.16 48.31 181.23 47.47 180.39 47.39 180.46 46.56 179.63 46.48 179.85 43.97 179.01 43.9 179.38 39.71 178.54 39.63 178.83 36.28 178 36.21 179.3 21.34 180.14 21.41 180.29 19.73 181.12 19.81 181.34 17.29 182.18 17.37 182.26 16.53 183.93 16.68 184.01 15.84 190.51 16.41 190.44 17.25 192.11 17.4 192.04 18.23 192.88 18.31 192.66 20.82 193.5 20.9 193.27 23.41 194.11 23.48 192.21 45.06 191.38 44.98 191.23 46.66 190.39 46.59 190.24 48.26 189.4 48.19 189.33 49.03 181.16 48.31"/><polygon class="cls-3" points="191.68 25.28 191.68 25.28 191.11 25.23 191.18 24.39 191.25 23.55 191.33 22.71 190.49 22.64 190.56 21.8 190.64 20.96 190.71 20.13 189.87 20.05 189.95 19.21 189.11 19.14 188.27 19.07 188.34 18.23 187.5 18.16 186.66 18.08 185.83 18.01 185.75 18.85 184.91 18.77 184.08 18.7 184 19.54 183.16 19.46 183.09 20.3 183.02 21.14 182.94 21.98 182.1 21.9 182.03 22.74 181.96 23.58 181.12 23.5 181.04 24.34 180.97 25.18 180.9 26.02 180.82 26.85 180.75 27.69 180.68 28.53 180.6 29.37 180.53 30.2 180.46 31.04 180.38 31.88 180.31 32.72 180.29 32.97 180.23 33.56 180.16 34.39 180.16 34.39 180.16 34.39 180.66 34.44 180.74 34.44 180.74 34.44 181 34.47 180.97 34.85 180.97 34.85 180.94 35.09 180.93 35.3 180.85 36.14 180.8 36.69 180.78 36.98 180.7 37.82 181.54 37.89 181.47 38.73 181.44 39.11 181.44 39.11 181.4 39.57 181.32 40.4 181.25 41.24 181.17 42.08 181.59 42.12 182.01 42.15 181.94 42.99 181.87 43.83 181.79 44.67 182.63 44.74 182.56 45.58 183.4 45.65 183.32 46.49 184.16 46.56 185 46.64 185.72 46.7 185.84 46.71 186.68 46.78 186.74 46.79 187.51 46.86 187.59 46.02 188.43 46.09 188.43 46.09 188.43 46.09 188.5 45.26 188.54 44.86 188.57 44.42 188.99 44.46 189.41 44.49 189.41 44.49 189.41 44.49 189.48 43.72 189.49 43.65 189.56 42.82 190.4 42.89 190.4 42.89 190.4 42.89 190.44 42.47 190.47 42.05 190.55 41.22 190.57 40.91 190.62 40.38 190.69 39.54 190.77 38.7 190.84 37.86 190.91 37.03 190.99 36.19 191.06 35.35 191.14 34.51 191.21 33.68 191.25 33.24 191.28 32.84 191.36 32 191.43 31.16 191.5 30.33 191.58 29.49 191.64 28.72 191.65 28.65 191.72 27.81 191.8 26.97 191.8 26.94 191.87 26.14 191.92 25.58 191.95 25.3 191.68 25.28"/><polygon class="cls-3" points="197.84 52.93 197.84 51.99 193.13 51.99 193.13 51.05 191.24 51.05 191.24 50.11 189.36 50.11 189.36 48.23 188.41 48.23 188.41 47.28 187.47 47.28 187.47 34.03 188.41 34.03 188.41 32.15 189.36 32.15 189.36 30.33 188.41 30.33 188.41 15.2 189.36 15.2 189.36 12.37 190.3 12.37 190.3 11.43 191.24 11.43 191.24 9.55 192.18 9.55 192.18 8.61 194.07 8.61 194.07 7.66 195.01 7.66 195.01 6.72 198.78 6.72 198.78 5.78 216.75 5.78 216.75 6.72 222.41 6.72 222.41 7.66 224.29 7.66 224.29 8.61 226.18 8.61 226.18 9.55 227.12 9.55 227.12 10.49 228.06 10.49 228.06 12.37 229 12.37 229 24.68 228.06 24.68 228.06 45.4 227.12 45.4 227.12 47.28 226.18 47.28 226.18 48.23 225.23 48.23 225.23 50.11 223.35 50.11 223.35 51.05 221.46 51.05 221.46 51.99 219.58 51.99 219.58 52.93 197.84 52.93"/><polygon class="cls-3" points="199.84 50.93 199.84 49.99 195.13 49.99 195.13 49.05 193.24 49.05 193.24 48.11 191.36 48.11 191.36 46.23 190.41 46.23 190.41 45.28 189.47 45.28 189.47 36.03 190.41 36.03 190.41 34.15 191.36 34.15 191.36 32.27 193.24 32.27 193.24 32.1 192.3 32.1 192.3 31.16 191.36 31.16 191.36 28.33 190.41 28.33 190.41 17.2 191.36 17.2 191.36 14.37 192.3 14.37 192.3 13.43 193.24 13.43 193.24 11.55 194.18 11.55 194.18 10.61 196.07 10.61 196.07 9.66 197.01 9.66 197.01 8.72 200.78 8.72 200.78 7.78 214.75 7.78 214.75 8.72 220.41 8.72 220.41 9.66 222.29 9.66 222.29 10.61 224.18 10.61 224.18 11.55 225.12 11.55 225.12 12.49 226.06 12.49 226.06 14.37 227.01 14.37 227.01 22.68 226.06 22.68 226.06 26.45 225.12 26.45 225.12 28.5 226.06 28.5 226.06 43.4 225.12 43.4 225.12 45.28 224.18 45.28 224.18 46.23 223.23 46.23 223.23 48.11 221.35 48.11 221.35 49.05 219.46 49.05 219.46 49.99 217.58 49.99 217.58 50.93 199.84 50.93"/><polygon class="cls-3" points="200.58 50.19 200.58 49.25 195.87 49.25 195.87 48.31 193.98 48.31 193.98 47.37 192.1 47.37 192.1 45.48 191.15 45.48 191.15 44.54 190.21 44.54 190.21 36.77 191.15 36.77 191.15 34.89 192.1 34.89 192.1 33.01 193.98 33.01 193.98 31.36 193.04 31.36 193.04 30.42 192.1 30.42 192.1 27.59 191.15 27.59 191.15 17.94 192.1 17.94 192.1 15.11 193.04 15.11 193.04 14.17 193.98 14.17 193.98 12.29 194.93 12.29 194.93 11.35 196.81 11.35 196.81 10.41 197.75 10.41 197.75 9.46 201.52 9.46 201.52 8.52 214.01 8.52 214.01 9.46 219.67 9.46 219.67 10.41 221.55 10.41 221.55 11.35 223.44 11.35 223.44 12.29 224.38 12.29 224.38 13.23 225.32 13.23 225.32 15.11 226.26 15.11 226.26 21.94 225.32 21.94 225.32 25.71 224.38 25.71 224.38 26.65 223.44 26.65 223.44 27.36 224.38 27.36 224.38 29.24 225.32 29.24 225.32 42.66 224.38 42.66 224.38 44.54 223.44 44.54 223.44 45.48 222.49 45.48 222.49 47.37 220.61 47.37 220.61 48.31 218.72 48.31 218.72 49.25 216.84 49.25 216.84 50.19 200.58 50.19"/><polygon class="cls-3" points="224.26 19.94 224.26 19 224.26 18.06 224.26 17.11 224.26 17.11 223.32 17.11 223.32 16.17 223.32 15.23 222.38 15.23 222.38 14.29 221.44 14.29 221.44 13.35 220.49 13.35 219.55 13.35 219.55 12.41 218.61 12.41 217.66 12.41 217.66 11.46 216.72 11.46 215.78 11.46 214.84 11.46 213.89 11.46 212.95 11.46 212.01 11.46 212.01 10.52 211.07 10.52 210.12 10.52 209.18 10.52 208.24 10.52 207.3 10.52 206.35 10.52 205.41 10.52 204.47 10.52 203.52 10.52 203.52 11.46 202.58 11.46 201.64 11.46 200.7 11.46 199.75 11.46 199.75 12.41 198.81 12.41 198.81 13.35 197.87 13.35 196.93 13.35 196.93 14.29 195.98 14.29 195.98 15.23 195.98 16.17 195.04 16.17 195.04 17.11 194.1 17.11 194.1 18.06 194.1 19 194.1 19.94 193.15 19.94 193.15 20.88 193.15 21.82 193.15 22.6 193.15 22.6 193.15 22.77 193.15 23.71 193.15 24.65 193.15 25.59 193.15 25.59 194.1 25.59 194.1 26.53 194.1 27.47 194.1 28.42 195.04 28.42 195.04 29.36 195.98 29.36 195.98 30.3 196.93 30.3 197.87 30.3 197.87 31.24 198.81 31.24 199.75 31.24 199.75 32.18 200.7 32.18 201.64 32.18 202.58 32.18 203.52 32.18 204.47 32.18 205.41 32.18 205.41 33.12 206.35 33.12 207.3 33.12 208.24 33.12 209.18 33.12 210.12 33.12 211.07 33.12 211.07 33.12 212.01 33.12 212.01 33.12 212.01 34.07 212.01 35.01 211.07 35.01 210.12 35.01 210.12 34.07 209.18 34.07 208.24 34.07 207.3 34.07 206.35 34.07 205.41 34.07 204.47 34.07 203.52 34.07 203.52 33.12 202.58 33.12 201.64 33.12 200.7 33.12 199.75 33.12 198.81 33.12 197.87 33.12 196.93 33.12 196.93 34.07 195.98 34.07 195.98 35.01 195.04 35.01 194.1 35.01 194.1 35.95 194.1 36.89 193.15 36.89 193.15 37.83 193.15 38.78 192.21 38.78 192.21 39.55 192.21 39.72 192.21 39.72 192.21 40.66 192.21 41.6 192.21 42.54 193.15 42.54 193.15 43.48 193.15 43.48 194.1 43.48 194.1 44.43 194.1 45.37 195.04 45.37 195.98 45.37 195.98 46.31 195.98 46.31 196.93 46.31 196.93 46.31 197.87 46.31 197.87 47.25 198.81 47.25 199.75 47.25 200.7 47.25 201.64 47.25 202.58 47.25 202.58 48.19 202.58 48.19 203.52 48.19 204.47 48.19 204.47 48.19 205.41 48.19 205.41 48.19 206.35 48.19 206.35 48.19 207.3 48.19 208.24 48.19 208.24 48.19 209.18 48.19 209.18 48.19 210.12 48.19 211.07 48.19 211.07 48.19 212.01 48.19 212.01 48.19 212.95 48.19 212.95 48.19 213.89 48.19 213.89 48.19 214.84 48.19 214.84 48.19 214.84 47.25 215.78 47.25 216.72 47.25 216.72 47.25 216.72 46.31 217.66 46.31 217.66 46.31 218.61 46.31 218.61 45.37 219.55 45.37 220.49 45.37 220.49 45.37 220.49 45.37 220.49 44.43 220.49 43.48 221.44 43.48 221.44 43.48 221.44 42.54 222.38 42.54 222.38 42.54 222.38 41.6 222.38 40.66 223.32 40.66 223.32 40.66 223.32 39.72 223.32 38.78 223.32 37.83 223.32 36.89 223.32 35.95 223.32 35.01 223.32 34.07 223.32 33.12 223.32 32.18 223.32 31.24 222.38 31.24 222.38 30.3 222.38 29.36 221.44 29.36 221.44 28.42 220.49 28.42 220.49 27.47 219.55 27.47 219.55 26.53 218.61 26.53 217.66 26.53 216.72 26.53 215.78 26.53 214.84 26.53 214.84 25.59 213.89 25.59 212.95 25.59 212.01 25.59 211.07 25.59 210.12 25.59 209.18 25.59 209.18 24.65 209.18 23.73 212.01 23.71 212.01 24.65 212.95 24.65 213.89 24.65 214.84 24.65 215.78 24.65 216.72 24.65 217.66 24.65 218.61 24.65 219.55 24.65 220.49 24.65 220.49 24.65 221.44 24.65 221.44 24.65 222.38 24.65 222.38 24.65 222.38 23.71 223.32 23.71 223.32 23.71 223.32 22.77 223.32 21.82 223.32 20.88 223.32 19.94 224.26 19.94 224.26 19.94"/><polygon class="cls-3" points="181.91 19.73 181.91 18.81 179.14 18.81 179.14 16.96 178.21 16.96 178.21 4.71 179.14 4.71 179.14 1.94 180.06 1.94 180.06 1.02 180.98 1.02 180.98 .09 196.01 .09 196.01 1.94 197.86 1.94 197.86 16.96 196.94 16.96 196.94 17.89 196.01 17.89 196.01 18.81 194.16 18.81 194.16 19.73 181.91 19.73"/><polygon class="cls-3" points="183.91 17.73 183.91 16.81 181.14 16.81 181.14 14.96 180.21 14.96 180.21 6.71 181.14 6.71 181.14 3.94 182.06 3.94 182.06 3.02 182.98 3.02 182.98 2.09 194.01 2.09 194.01 3.94 195.86 3.94 195.86 14.96 194.94 14.96 194.94 15.89 194.01 15.89 194.01 16.81 192.16 16.81 192.16 17.73 183.91 17.73"/><polygon class="cls-3" points="184.65 16.99 184.65 16.07 181.88 16.07 181.88 14.22 180.95 14.22 180.95 7.45 181.88 7.45 181.88 4.68 182.8 4.68 182.8 3.76 183.73 3.76 183.73 2.84 193.27 2.84 193.27 4.68 195.12 4.68 195.12 14.22 194.2 14.22 194.2 15.15 193.27 15.15 193.27 16.07 191.42 16.07 191.42 16.99 184.65 16.99"/><polygon class="cls-3" points="193.12 12.22 193.12 11.3 193.12 10.38 193.12 9.45 193.12 9.23 193.12 9.23 193.12 8.53 193.12 7.61 193.12 6.68 192.2 6.68 191.27 6.68 191.27 5.76 191.27 4.84 190.35 4.84 189.42 4.84 188.5 4.84 187.57 4.84 186.65 4.84 185.73 4.84 185.73 5.76 184.8 5.76 184.8 6.68 183.88 6.68 183.88 7.61 183.88 8.53 183.88 9.45 183.88 9.45 182.95 9.45 182.95 9.45 182.95 10.38 182.95 11.3 182.95 12.22 182.95 12.22 183.88 12.22 183.88 13.15 183.88 14.07 183.88 14.07 184.8 14.07 184.8 14.07 185.73 14.07 185.73 14.07 186.65 14.07 186.65 14.99 186.65 14.99 187.57 14.99 187.57 14.99 188.5 14.99 188.5 14.99 189.42 14.99 189.42 14.07 190.35 14.07 190.35 14.07 191.27 14.07 191.27 14.07 191.27 13.15 192.2 13.15 192.2 13.15 192.2 12.22 193.12 12.22 193.12 12.22"/><polygon class="cls-3" points="112.57 53.73 112.64 52.05 99.12 51.45 99.17 50.61 97.55 50.54 97.58 49.7 95.9 49.62 95.94 48.78 95.1 48.74 95.13 47.9 94.29 47.86 94.33 47.02 93.49 46.99 93.57 45.31 91.88 45.23 92.72 26.52 93.56 26.56 93.64 24.88 94.48 24.91 94.51 24.07 95.35 24.11 95.43 22.43 97.11 22.5 97.15 21.67 98.83 21.74 98.87 20.9 99.71 20.94 99.74 20.1 101.43 20.17 101.47 19.33 113.24 19.86 113.58 12.3 114.42 12.34 114.79 3.94 115.63 3.97 115.67 3.13 116.51 3.17 116.55 2.33 130.22 2.94 130.19 3.78 131.03 3.82 130.99 4.66 133.52 4.77 133.48 5.61 134.32 5.65 133.48 24.36 132.64 24.32 132.34 31.05 131.5 31.01 130.68 49.49 129.83 49.45 129.76 51.13 128.92 51.1 128.85 52.78 128 52.74 127.93 54.42 112.57 53.73"/><polygon class="cls-3" points="114.66 51.82 114.73 50.14 101.24 49.54 101.29 48.7 99.63 48.63 99.67 47.79 97.99 47.71 98.02 46.87 97.18 46.83 97.22 45.99 96.38 45.96 96.42 45.12 95.58 45.08 95.65 43.4 93.97 43.32 94.63 28.61 95.47 28.64 95.54 26.96 96.38 27 96.42 26.16 97.26 26.2 97.34 24.52 99.02 24.59 99.06 23.75 100.74 23.83 100.78 22.99 101.62 23.02 101.65 22.18 103.34 22.26 103.37 21.42 115.15 21.95 115.49 14.39 116.33 14.42 116.7 6.02 117.54 6.06 117.58 5.22 118.42 5.26 118.46 4.42 128.14 4.85 128.1 5.69 128.94 5.73 128.91 6.57 131.43 6.68 131.39 7.52 132.23 7.56 131.57 22.27 130.73 22.24 130.43 28.96 129.59 28.92 128.89 44.66 128.77 47.4 127.93 47.37 127.85 49.05 127.01 49.01 126.94 50.69 126.09 50.65 126.02 52.33 114.66 51.82"/><path class="cls-3" d="M115.43,51.12l.11-2.52-1.05-.05-.04.84-12.42-.56.04-.84-1.67-.07.04-.84-1.68-.08.04-.84-.84-.04.04-.84-.84-.04.04-.84-.84-.04.08-1.68-1.68-.08.59-13.24.84.04.07-1.68.84.04.04-.84.84.04.08-1.68,1.68.08.04-.84,1.68.08.04-.84.84.04.04-.84,1.68.08.04-.84,10.73.48-.04.84,1.05.05.37-8.4.84.04.37-8.4.84.04.04-.84.84.04.04-.84,8.2.37-.04.84.84.04-.04.84,2.52.11-.04.84.84.04-.59,13.23-.84-.04-.3,6.72-.84-.04-.83,18.48-.84-.04-.08,1.68-.84-.04-.08,1.68-.84-.04-.08,1.68-9.88-.44ZM111.01,36.81v-.2s-.2,0-.2,0l-.84-.04v.2s1.04.05,1.04.05Z"/><path class="cls-3" d="M129.24,10.17l-.71-.03.04-.84-.84-.04-.84-.04-.84-.04.04-.84-.84-.04.04-.84-.84-.04-.84-.04-.84-.04-.84-.04-.84-.04-.04.84-.84-.04-.04.84-.84-.04-.04.84-.04.84-.04.84-.04.84-.04.84-.04.84-.04.84-.04.84-.04.84-.04.84-.84-.04-.04.84-.04.84-.04.84-.04.84-.04.84-.04.84-.04.84-.04.84-.04.84-.04.84-.04.84-.04.84-.84-.04-.84-.04.04-.84-.84-.04.04-.84-.84-.04-.84-.04-.84-.04.04-.84-.84-.04-.84-.04-.84-.04-.84-.04-.84-.04-.84-.04-.84-.04-.84-.04-.04.84-.84-.04-.84-.04-.04.84-.84-.04-.04.84-.84-.04-.84-.04-.04.84-.84-.04-.84-.04-.04.84-.04.84-.84-.04-.04.84-.84-.04-.04.84-.04.84-.84-.04-.04.84-.04.84-.04.84-.04.84-.04.84-.04.84-.04.84-.03.69v.15s-.04.84-.04.84v.02s-.04.82-.04.82l-.04.84h0s.8.04.8.04h.04s.84.04.84.04l-.04.82v.02s0,.02,0,.02l-.04.82.56.03h.28s-.02.43-.02.43l-.02.42.84.04-.04.84.84.04v.28s-.04.56-.04.56h0s.84.04.84.04l.56.03h.28s-.02.43-.02.43l-.02.42.84.04.84.04-.04.82v.02h0s.84.04.84.04l.84.04.84.04.56.03h.28s.28.03.28.03l.56.03.84.04.84.04.84.04.84.04.84.04h0s.02-.41.02-.41l.02-.43h.04s.8.04.8.04l.84.04.84.04.04-.84.56.03h.28s.03.01.03.01l.81.04-.04.84.84.04-.04.8v.04s0,.02,0,.02l-.04.82-.04.84.84.04.84.04.84.04h.08s.77.04.77.04l.42.02.42.02.84.04.84.04.04-.84.04-.84.84.04.04-.84.04-.84.84.04.04-.84.04-.84.84.04.02-.43.02-.41.04-.84.04-.84.04-.84.02-.43.02-.41.04-.84.04-.84.04-.84.02-.42.02-.42.02-.43.02-.41.04-.84.04-.84.04-.84.04-.84.04-.84.04-.84v-.04s.04-.8.04-.8l.02-.42.02-.42v-.28s.04-.56.04-.56l.04-.84.04-.84.02-.42.02-.42.84.04h0l.02-.42.02-.42.02-.42.02-.42.02-.42.02-.42.04-.84.04-.84.04-.84.04-.84.04-.84h.28s.56.04.56.04h0l.04-.84.04-.84.04-.8v-.04s0-.04,0-.04l.04-.8.02-.42.02-.42.02-.42.02-.42.02-.41.02-.43.04-.84.04-.84.04-.84.04-.84h-.13s0,0,0,0ZM107.91,37.83l.04-.84.04-.84.02-.46h0l.02-.37h0s0-.04,0-.04l.04-.8.84.04h0l.04-.84.84.04.84.04h0l.02-.42.02-.42h.28s.56.04.56.04l-.04.84.84.04-.04.8v.04h0s.84.04.84.04l-.04.84-.04.84-.04.84-.04.84-.04.84-.84-.04-.84-.04-.84-.04-.84-.04-.84-.04-.84-.04.04-.84Z"/><polygon class="cls-2" points="185.65 16.05 185.65 15.13 182.88 15.13 182.88 13.28 181.95 13.28 181.95 8.51 182.88 8.51 182.88 5.74 183.8 5.74 183.8 4.82 184.73 4.82 184.73 3.9 192.27 3.9 192.27 5.74 194.12 5.74 194.12 13.28 193.2 13.28 193.2 14.21 192.27 14.21 192.27 15.13 190.42 15.13 190.42 16.05 185.65 16.05"/><path class="cls-1" d="M191.27,4.9v1.85h1.85v5.54h-.92v.92h-.92v.92h-1.85v.92h-2.77v-.92h-2.77v-1.85h-.92v-2.77h.92v-2.77h.92v-.92h.92v-.92h5.55M193.27,2.9h-9.55v.92h-.92v.92h-.92v2.77h-.92v6.77h.92v1.85h2.77v.92h6.77v-.92h1.85v-.92h.92v-.92h.92V4.74h-1.85v-1.85h0Z"/><polygon class="cls-1" points="192.2 10.22 191.27 10.22 191.27 11.14 190.35 11.14 189.42 11.14 189.42 12.06 188.5 12.06 187.57 12.06 186.65 12.06 186.65 11.14 185.73 11.14 184.8 11.14 183.88 11.14 183.88 10.22 183.88 9.51 182.95 9.51 182.95 10.44 182.95 11.36 182.95 12.28 183.88 12.28 183.88 13.21 183.88 14.13 184.8 14.13 185.73 14.13 186.65 14.13 186.65 15.05 187.57 15.05 188.5 15.05 189.42 15.05 189.42 14.13 190.35 14.13 191.27 14.13 191.27 13.21 192.2 13.21 192.2 12.28 193.12 12.28 193.12 11.36 193.12 10.44 193.12 9.51 193.12 9.29 192.2 9.29 192.2 10.22"/><polygon class="cls-2" points="182.24 47.46 182.31 46.62 181.47 46.55 181.55 45.71 180.71 45.63 180.93 43.12 180.09 43.05 180.46 38.86 179.62 38.79 179.92 35.44 179.08 35.36 180.21 22.48 181.05 22.55 181.19 20.88 182.03 20.95 182.25 18.44 183.09 18.51 183.17 17.67 184.84 17.82 184.92 16.98 189.42 17.38 189.35 18.22 191.03 18.37 190.95 19.2 191.79 19.28 191.57 21.79 192.41 21.86 192.19 24.38 193.03 24.45 191.31 44.03 190.47 43.96 190.32 45.64 189.48 45.56 189.33 47.24 188.5 47.16 188.42 48 182.24 47.46"/><path class="cls-1" d="M185.83,18.07l.84.07.84.07.84.07-.07.84.84.07.84.07-.07.84.84.07-.07.84-.07.84-.07.84.84.07-.07.84-.07.84-.07.84.84.07-.07.84-.07.84-.07.84-.07.84-.07.84-.07.84-.07.84-.07.84-.07.84-.07.84-.07.84-.07.84-.07.84-.07.84-.07.84-.07.84-.07.84-.07.84-.07.84-.07.84-.07.84-.84-.07-.07.84-.07.84-.84-.07-.07.84-.07.84-.84-.07-.07.84-.84-.07-.84-.07-.84-.07-.84-.07-.84-.07.07-.84-.84-.07.07-.84-.84-.07.07-.84.07-.84.07-.84-.84-.07.07-.84.07-.84.07-.84.07-.84.07-.84-.84-.07.07-.84.07-.84.07-.84.07-.84-.84-.07.07-.84.07-.84.07-.84.07-.84.07-.84.07-.84.07-.84.07-.84.07-.84.07-.84.07-.84.07-.84.07-.84.84.07.07-.84.07-.84.84.07.07-.84.07-.84.07-.84.84.07.07-.84.84.07.84.07.07-.84M184.01,15.9l-.07.84-1.68-.15-.07.84-.84-.07-.18,1.99-.05.52-.84-.07-.15,1.68-.84-.07-.18,1.99-.07.84-.07.84-.07.84-.07.84-.07.84-.07.84-.07.84-.07.84-.07.84-.07.84-.07.84-.07.84-.07.84-.18,1.99.84.07-.05.52-.07.84-.18,1.99.84.07-.05.52-.07.84-.07.84-.18,1.99.84.07-.05.52-.18,1.99.84.07-.07.84.84.07-.07.84,1.99.18.84.07.84.07.84.07.84.07.84.07,1.99.18.07-.84.84.07.15-1.68.84.07.15-1.68.84.07.18-1.99.07-.84.07-.84.07-.84.07-.84.07-.84.07-.84.07-.84.07-.84.07-.84.07-.84.07-.84.07-.84.07-.84.07-.84.07-.84.07-.84.07-.84.07-.84.07-.84.07-.84.07-.84.18-1.99-.84-.07.05-.52.18-1.99-.84-.07.05-.52.18-1.99-.84-.07.07-.84-1.68-.15.07-.84-1.99-.18-.84-.07-.84-.07-.84-.07-1.99-.18h0Z"/><path class="cls-2" d="M237.44,48.56v-.84h-5.05v-.84h-1.68v-.84h-2.53v-.84h-.84v-1.68h-1.68v-.84h-.84v-1.68h-.84v-2.52h-.84v-9.57h.84v-3.36h.84v-.84h.84v-2.52h.84v-.84h.84v-1.68h.84v-.84h.84v-.84h1.68v-.84h1.68v-.84h1.68v-.84h8.73v.84h1.68v.84h1.68v.84h1.68v.84h.84v1.68h.84v.84h.84v12.09h-1.68v.84h-1.68v.84h-10.42v-.84h-.53v1.36h1.68v.84h10.94v1.68h.84v1.68h.84v3.68h-.84v1.68h-.84v1.68h-1.68v.84h-2.53v.84h-7.05ZM241.65,26.37v-1.36h-.84v-.84h-3.05v1.68h-.84v.52h4.73Z"/><path class="cls-1" d="M241.81,16.44v.84h1.68v.84h1.68v.84h1.68v.84h.84v1.68h.84v.84h.84v10.09h-1.68v.84h-1.68v.84h-8.42v-.84h-1.68v-.84h-1.68v2.52h.84v1.68h1.68v.84h10.94v1.68h.84v1.68h.84v1.68h-.84v1.68h-.84v1.68h-1.68v.84h-2.53v.84h-5.05v-.84h-5.05v-.84h-1.68v-.84h-2.53v-.84h-.84v-1.68h-1.68v-.84h-.84v-1.68h-.84v-2.52h-.84v-7.57h.84v-3.36h.84v-.84h.84v-2.52h.84v-.84h.84v-1.68h.84v-.84h.84v-.84h1.68v-.84h1.68v-.84h1.68v-.84h6.73M235.92,27.37h6.73v-3.36h-.84v-.84h-5.05v1.68h-.84v2.52M243.81,14.44h-10.73v.84h-1.68v.84h-1.68v.84h-1.68v.84h-.84v.84h-.84v1.68h-.84v.84h-.84v2.52h-.84v.84h-.84v3.36h-.84v11.57h.84v2.52h.84v1.68h.84v.84h1.68v1.68h.84v.84h2.53v.84h1.68v.84h5.05v.84h9.05v-.84h2.53v-.84h1.68v-1.68h.84v-1.68h.84v-5.68h-.84v-1.68h-.84v-1.68h-1.68v-.2h1.68v-.84h1.68v-14.09h-.84v-.84h-.84v-1.68h-.84v-.84h-1.68v-.84h-1.68v-.84h-1.68v-.84h0ZM238.76,25.17h1.05v.2h-1.05v-.2h0Z"/><polygon class="cls-2" points="201.58 49.25 201.58 48.31 196.87 48.31 196.87 47.37 194.98 47.37 194.98 46.43 193.1 46.43 193.1 44.54 192.15 44.54 192.15 43.6 191.21 43.6 191.21 37.83 192.15 37.83 192.15 35.95 193.1 35.95 193.1 34.07 194.98 34.07 194.98 33.13 195.93 33.13 195.93 32.18 196.87 32.18 196.87 31.36 194.98 31.36 194.98 30.42 194.04 30.42 194.04 29.48 193.1 29.48 193.1 26.65 192.15 26.65 192.15 19 193.1 19 193.1 16.17 194.04 16.17 194.04 15.23 194.98 15.23 194.98 13.35 195.93 13.35 195.93 12.41 197.81 12.41 197.81 11.47 198.75 11.47 198.75 10.52 202.52 10.52 202.52 9.58 213.01 9.58 213.01 10.52 218.66 10.52 218.66 11.47 220.55 11.47 220.55 12.41 222.44 12.41 222.44 13.35 223.38 13.35 223.38 14.29 224.32 14.29 224.32 16.17 225.26 16.17 225.26 21 224.32 21 224.32 24.77 223.38 24.77 223.38 25.71 220.55 25.71 220.55 26.53 221.49 26.53 221.49 27.48 222.44 27.48 222.44 28.42 223.38 28.42 223.38 30.3 224.32 30.3 224.32 41.72 223.38 41.72 223.38 43.6 222.44 43.6 222.44 44.54 221.49 44.54 221.49 46.43 219.61 46.43 219.61 47.37 217.72 47.37 217.72 48.31 215.84 48.31 215.84 49.25 201.58 49.25"/><path class="cls-1" d="M212.01,10.58v.94h5.66v.94h1.89v.94h1.89v.94h.94v.94h.94v1.88h.94v2.83h-.94v3.77h-.94v.94h-10.37v-.94h-2.83v1.88h5.66v.94h4.71v.94h.94v.94h.94v.94h.94v1.88h.94v9.42h-.94v1.88h-.94v.94h-.94v1.88h-1.89v.94h-1.89v.94h-1.89v.94h-12.26v-.94h-4.71v-.94h-1.89v-.94h-1.89v-1.88h-.94v-.94h-.94v-3.77h.94v-1.88h.94v-1.88h1.89v-.94h.94v-.94h6.6v.94h6.6v.94h1.89v-1.88h-6.6v-.94h-5.66v-.94h-1.89v-.94h-1.89v-.94h-.94v-.94h-.94v-2.83h-.94v-5.65h.94v-2.83h.94v-.94h.94v-1.88h.94v-.94h1.89v-.94h.94v-.94h3.77v-.94h8.48M214.01,8.58h-12.48v.94h-3.77v.94h-.94v.94h-1.89v.94h-.94v1.88h-.94v.94h-.94v2.83h-.94v9.65h.94v2.83h.94v.94h.94v1.65h-1.89v1.88h-.94v1.88h-.94v7.77h.94v.94h.94v1.88h1.89v.94h1.89v.94h4.71v.94h16.26v-.94h1.89v-.94h1.89v-.94h1.89v-1.88h.94v-.94h.94v-1.88h.94v-13.42h-.94v-1.88h-.94v-.71h.94v-.94h.94v-3.77h.94v-6.83h-.94v-1.88h-.94v-.94h-.94v-.94h-1.89v-.94h-1.89v-.94h-5.66v-.94h0Z"/><polygon class="cls-2" points="139.95 50.47 139.95 49.59 137.31 49.59 137.31 47.83 136.43 47.83 136.43 46.95 135.55 46.95 135.55 45.19 134.67 45.19 134.67 43.44 133.79 43.44 133.79 39.92 132.91 39.92 132.91 39.04 132.03 39.04 132.03 34.64 131.15 34.64 131.15 32 130.27 32 130.27 27.6 129.39 27.6 129.39 9.77 130.27 9.77 130.27 8.01 132.03 8.01 132.03 7.13 132.91 7.13 132.91 6.25 137.55 6.25 137.55 7.13 139.31 7.13 139.31 8.01 141.07 8.01 141.07 9.77 141.95 9.77 141.95 10.65 143.71 10.65 143.71 13.29 144.59 13.29 144.59 14.17 145.47 14.17 145.47 17.69 146.36 17.69 146.36 22.08 147 22.08 147 20.32 147.88 20.32 147.88 19.45 148.76 19.45 148.76 17.69 149.64 17.69 149.64 16.81 150.52 16.81 150.52 15.93 151.4 15.93 151.4 15.05 159.56 15.05 159.56 15.93 160.44 15.93 160.44 16.81 161.32 16.81 161.32 17.69 162.2 17.69 162.2 18.57 163.73 18.57 163.73 14.17 164.61 14.17 164.61 12.41 165.49 12.41 165.49 9.77 166.37 9.77 166.37 8.01 167.25 8.01 167.25 7.13 168.13 7.13 168.13 6.25 177.17 6.25 177.17 7.13 178.05 7.13 178.05 8.01 178.93 8.01 178.93 8.89 179.81 8.89 179.81 10.65 180.69 10.65 180.69 24.08 179.81 24.08 179.81 30.24 178.93 30.24 178.93 32.88 178.05 32.88 178.05 39.04 177.17 39.04 177.17 39.92 176.29 39.92 176.29 43.44 175.41 43.44 175.41 45.19 174.53 45.19 174.53 46.07 173.65 46.07 173.65 46.95 172.77 46.95 172.77 47.83 161.08 47.83 161.08 46.95 159.32 46.95 159.32 45.19 158.44 45.19 158.44 44.31 157.56 44.31 157.56 43.44 156.68 43.44 156.68 41.68 155.8 41.68 155.8 39.92 154.28 39.92 154.28 42.56 153.4 42.56 153.4 45.19 151.64 45.19 151.64 46.95 150.76 46.95 150.76 47.83 149 47.83 149 49.59 146.36 49.59 146.36 50.47 139.95 50.47"/><path class="cls-1" d="M176.17,7.25v.88h.88v.88h.88v.88h.88v1.76h.88v11.43h-.88v6.16h-.88v2.64h-.88v6.16h-.88v.88h-.88v3.52h-.88v1.76h-.88v.88h-.88v.88h-.88v.88h-9.69v-.88h-1.76v-1.76h-.88v-.88h-.88v-.88h-.88v-1.76h-.88v-1.76h-.88v-.88h-.88v-1.76h-.88v2.64h-.88v2.64h-.88v2.64h-1.76v1.76h-.88v.88h-1.76v1.76h-2.64v.88h-4.4v-.88h-2.64v-1.76h-.88v-.88h-.88v-1.76h-.88v-1.76h-.88v-3.52h-.88v-.88h-.88v-4.4h-.88v-2.64h-.88v-4.4h-.88v-15.83h.88v-1.76h1.76v-.88h.88v-.88h2.64v.88h1.76v.88h1.76v1.76h.88v.88h1.76v2.64h.88v.88h.88v3.52h.88v6.16h1.76v-1.76h.88v-1.76h.88v-.88h.88v-1.76h.88v-.88h.88v-.88h.88v-.88h6.16v.88h.88v.88h.88v.88h.88v.88h.88v3.52h.88v-.88h.88v-2.64h.88v-4.4h.88v-1.76h.88v-2.64h.88v-1.76h.88v-.88h.88v-.88h7.04M178.17,5.25h-11.04v.88h-.88v.88h-.88v1.76h-.88v2.64h-.88v1.76h-.88v3.52h-.4v-.88h-.88v-.88h-.88v-.88h-10.16v.88h-.88v.88h-.88v.88h-.88v1.76h-.4v-1.76h-.88v-3.52h-.88v-.88h-.88v-2.64h-1.76v-.88h-.88v-1.76h-1.76v-.88h-1.76v-.88h-6.64v.88h-.88v.88h-1.76v1.76h-.88v19.83h.88v4.4h.88v2.64h.88v4.4h.88v.88h.88v3.52h.88v1.76h.88v1.76h.88v.88h.88v1.76h2.64v.88h8.4v-.88h2.64v-1.76h1.76v-.88h.88v-1.76h1.76v-2.64h.88v-.88h.4v1.76h.88v.88h.88v.88h.88v1.76h1.76v.88h13.69v-.88h.88v-.88h.88v-.88h.88v-1.76h.88v-3.52h.88v-.88h.88v-6.16h.88v-2.64h.88v-6.16h.88v-15.43h-.88v-1.76h-.88v-.88h-.88v-.88h-.88v-.88h0Z"/><path class="cls-2" d="M60.25,46.4v-.84h-1.68v-.84h-1.68v-.84h-.84v-1.68h-.84v-1.68h-.84v-12.09h.84v-2.52h.84v-.84h.84v-1.68h.84v-1.68h1.68v-.84h.84v-1.68h2.53v-.84h10.42v.84h2.53v.84h1.68v.84h.84v.84h1.68v1.68h.84v.84h.84v1.68h.84v13.77h-.84v.84h-.84v1.68h-.84v.84h-.84v.84h-1.68v.84h-1.68v.84h-1.68v.84h-13.78ZM69.51,35.15v-3.04h-.84v-.84h-.53v.84h-1.68v2.2h.84v.84h2.21Z"/><path class="cls-1" d="M72.19,19.33v.84h2.53v.84h1.68v.84h.84v.84h1.68v1.68h.84v.84h.84v1.68h.84v11.77h-.84v.84h-.84v1.68h-.84v.84h-.84v.84h-1.68v.84h-1.68v.84h-1.68v.84h-11.78v-.84h-1.68v-.84h-1.68v-.84h-.84v-1.68h-.84v-1.68h-.84v-10.09h.84v-2.52h.84v-.84h.84v-1.68h.84v-1.68h1.68v-.84h.84v-1.68h2.53v-.84h8.42M65.46,35.31h.84v.84h4.21v-2.52h.84v-1.68h-.84v-.84h-.84v-.84h-2.53v.84h-1.68v4.2M74.19,17.33h-12.42v.84h-2.53v1.68h-.84v.84h-1.68v1.68h-.84v1.68h-.84v.84h-.84v2.52h-.84v14.09h.84v1.68h.84v1.68h.84v.84h1.68v.84h1.68v.84h15.78v-.84h1.68v-.84h1.68v-.84h1.68v-.84h.84v-.84h.84v-1.68h.84v-.84h.84v-15.77h-.84v-1.68h-.84v-.84h-.84v-1.68h-1.68v-.84h-.84v-.84h-1.68v-.84h-2.53v-.84h0ZM67.46,33.1h1.05v1.05h-.21v-.84h-.84v-.2h0Z"/><polygon class="cls-2" points="84.91 48.07 84.91 47.08 83.92 47.08 83.92 45.1 82.93 45.1 82.93 42.14 81.94 42.14 81.94 26.29 82.93 26.29 82.93 15.4 83.92 15.4 83.92 9.47 84.91 9.47 84.91 7.49 85.9 7.49 85.9 6.5 86.89 6.5 86.89 5.51 93.84 5.51 93.84 6.5 94.83 6.5 94.83 10.46 97.78 10.46 97.78 9.47 113.65 9.47 113.65 10.46 115.63 10.46 115.63 11.45 116.62 11.45 116.62 13.42 117.61 13.42 117.61 20.37 116.62 20.37 116.62 21.36 115.63 21.36 115.63 22.35 114.64 22.35 114.64 23.34 106.7 23.34 106.7 22.35 103.73 22.35 103.73 21.36 98.79 21.36 98.79 22.35 97.8 22.35 97.8 23.34 96.81 23.34 96.81 32.24 95.82 32.24 95.82 42.14 94.83 42.14 94.83 45.1 93.84 45.1 93.84 46.09 92.85 46.09 92.85 48.07 84.91 48.07"/><path class="cls-1" d="M92.84,6.51v.99h.99v5.94h1.98v-1.98h2.97v-.99h13.86v.99h1.98v.99h.99v1.98h.99v4.95h-.99v.99h-.99v.99h-.99v.99h-5.94v-.99h-2.97v-.99h-6.93v.99h-.99v.99h-.99v8.9h-.99v9.89h-.99v2.97h-.99v.99h-.99v1.98h-5.94v-.99h-.99v-1.98h-.99v-2.97h-.99v-13.85h.99v-10.88h.99v-5.94h.99v-1.98h.99v-.99h.99v-.99h4.95M94.84,4.51h-8.95v.99h-.99v.99h-.99v1.98h-.99v5.94h-.99v10.88h-.99v17.85h.99v2.97h.99v1.98h.99v.99h9.94v-1.98h.99v-.99h.99v-2.97h.99v-9.89h.99v-8.9h.99v-.99h.99v-.99h2.93v.99h2.97v.99h9.94v-.99h.99v-.99h.99v-.99h.99v-8.95h-.99v-1.98h-.99v-.99h-1.98v-.99h-17.86v.99h-.95v-3.96h-.99v-.99h0Z"/><polygon class="cls-2" points="16.95 49.78 16.95 48.9 15.19 48.9 15.19 48.02 14.31 48.02 14.31 47.14 13.43 47.14 13.43 46.26 12.55 46.26 12.55 44.5 11.67 44.5 11.67 42.74 10.79 42.74 10.79 41.86 9.9 41.86 9.9 39.23 9.02 39.23 9.02 38.35 8.14 38.35 8.14 34.83 7.26 34.83 7.26 32.19 6.38 32.19 6.38 30.43 5.5 30.43 5.5 26.91 4.62 26.91 4.62 21.63 3.74 21.63 3.74 14.36 4.62 14.36 4.62 9.96 5.5 9.96 5.5 8.2 7.26 8.2 7.26 7.32 9.9 7.32 9.9 6.44 16.31 6.44 16.31 7.32 18.95 7.32 18.95 8.2 19.83 8.2 19.83 9.96 20.71 9.96 20.71 11.72 21.59 11.72 21.59 14.36 22.47 14.36 22.47 16.12 23.35 16.12 23.35 18.75 23.99 18.75 23.99 16.99 24.87 16.99 24.87 15.24 25.75 15.24 25.75 14.36 27.51 14.36 27.51 13.48 28.39 13.48 28.39 12.6 32.16 12.6 32.16 13.48 33.92 13.48 33.92 14.36 35.68 14.36 35.68 15.24 36.56 15.24 36.56 16.99 38.32 16.99 38.32 18.75 38.96 18.75 38.96 11.72 39.84 11.72 39.84 8.2 40.72 8.2 40.72 7.32 41.6 7.32 41.6 5.56 43.36 5.56 43.36 4.68 45.12 4.68 45.12 3.8 50.64 3.8 50.64 4.68 53.29 4.68 53.29 5.56 54.17 5.56 54.17 7.32 55.05 7.32 55.05 9.08 55.93 9.08 55.93 26.91 55.05 26.91 55.05 34.83 54.17 34.83 54.17 39.23 53.29 39.23 53.29 41.86 51.53 41.86 51.53 43.62 50.64 43.62 50.64 44.5 48.88 44.5 48.88 45.38 48 45.38 48 46.26 43.6 46.26 43.6 47.14 39.84 47.14 39.84 46.26 37.2 46.26 37.2 45.38 36.32 45.38 36.32 44.5 35.44 44.5 35.44 43.62 34.56 43.62 34.56 42.74 33.68 42.74 33.68 40.98 32.8 40.98 32.8 40.11 31.92 40.11 31.92 37.47 31.27 37.47 31.27 40.98 30.39 40.98 30.39 42.74 29.51 42.74 29.51 44.5 28.63 44.5 28.63 46.26 26.87 46.26 26.87 47.14 25.99 47.14 25.99 48.9 23.35 48.9 23.35 49.78 16.95 49.78"/><path class="cls-1" d="M49.64,4.8v.88h2.64v.88h.88v1.76h.88v1.76h.88v15.83h-.88v7.92h-.88v4.4h-.88v2.64h-1.76v1.76h-.88v.88h-1.76v.88h-.88v.88h-4.4v.88h-1.76v-.88h-2.64v-.88h-.88v-.88h-.88v-.88h-.88v-.88h-.88v-1.76h-.88v-.88h-.88v-2.64h-.88v-1.76h-.88v1.76h-.88v3.52h-.88v1.76h-.88v1.76h-.88v1.76h-1.76v.88h-.88v1.76h-2.64v.88h-4.4v-.88h-1.76v-.88h-.88v-.88h-.88v-.88h-.88v-1.76h-.88v-1.76h-.88v-.88h-.88v-2.64h-.88v-.88h-.88v-3.52h-.88v-2.64h-.88v-1.76h-.88v-3.52h-.88v-5.28h-.88v-5.28h.88v-4.4h.88v-1.76h1.76v-.88h2.64v-.88h4.4v.88h2.64v.88h.88v1.76h.88v1.76h.88v2.64h.88v1.76h.88v6.16h.88v-2.64h.88v-.88h.88v-1.76h.88v-1.76h.88v-.88h1.76v-.88h.88v-.88h1.76v.88h1.76v.88h1.76v.88h.88v1.76h1.76v1.76h.88v1.76h1.76v-8.8h.88v-3.52h.88v-.88h.88v-1.76h1.76v-.88h1.76v-.88h3.52M51.64,2.8h-7.52v.88h-1.76v.88h-1.76v1.76h-.88v.88h-.88v3.52h-.88v5.28h-.4v-1.76h-.88v-.88h-1.76v-.88h-1.76v-.88h-5.76v.88h-.88v.88h-1.76v.88h-.88v.88h-.4v-1.76h-.88v-2.64h-.88v-1.76h-.88v-1.76h-.88v-.88h-2.64v-.88h-8.4v.88h-2.64v.88h-1.76v1.76h-.88v4.4h-.88v9.28h.88v5.28h.88v3.52h.88v1.76h.88v2.64h.88v3.52h.88v.88h.88v2.64h.88v.88h.88v1.76h.88v1.76h.88v.88h.88v.88h.88v.88h1.76v.88h8.4v-.88h2.64v-1.76h.88v-.88h1.76v-1.76h.88v-1.76h.88v-1.76h1.28v1.76h.88v.88h.88v.88h.88v.88h.88v.88h2.64v.88h5.76v-.88h4.4v-.88h.88v-.88h1.76v-.88h.88v-1.76h1.76v-2.64h.88v-4.4h.88v-7.92h.88V8.08h-.88v-1.76h-.88v-1.76h-.88v-.88h-2.64v-.88h0Z"/><path class="cls-2" d="M116.47,50.22l.11-2.52-3.05-.14-.04.84-10.41-.47.04-.84-1.68-.08.04-.84-1.68-.08.04-.84-.84-.04.04-.84-.84-.04.04-.84-.84-.04.08-1.68-1.68-.07.5-11.24.84.04.07-1.68.84.04.04-.84.84.04.08-1.68,1.68.08.04-.84,1.68.08.04-.84.84.04.04-.84,1.68.08.04-.84,8.73.39-.04.84,2.52.11-.04.84.52.02.41-9.24.84.04.38-8.4.84.04.04-.84.84.04.04-.84,6.2.28-.04.84.84.04-.04.84,2.52.11-.04.84.84.04-.5,11.24-.84-.04-.3,6.72-.84-.04-.83,18.48-.84-.04-.07,1.68-.84-.04-.08,1.68-.84-.04-.08,1.68-7.88-.35ZM111.97,37.92l.1-2.2-.84-.04.04-.84-1.37-.06-.04.84-.84-.04-.1,2.2,3.05.14Z"/><path class="cls-1" d="M121.07,7.34l.84.04.84.04.84.04.84.04.84.04-.04.84.84.04-.04.84.84.04.84.04.84.04-.04.84.84.04-.04.84-.04.84-.04.84-.04.84-.04.84-.04.84-.04.84-.04.84-.04.84-.04.84-.04.84-.84-.04-.04.84-.04.84-.04.84-.04.84-.04.84-.04.84-.04.84-.04.84-.84-.04-.04.84-.04.84-.04.84-.04.84-.04.84-.04.84-.04.84-.04.84-.04.84-.04.84-.04.84-.04.84-.04.84-.04.84-.04.84-.04.84-.04.84-.04.84-.04.84-.04.84-.04.84-.04.84-.84-.04-.04.84-.04.84-.84-.04-.04.84-.04.84-.84-.04-.04.84-.04.84-.84-.04-.84-.04-.84-.04-.84-.04-.84-.04-.84-.04-.84-.04.04-.84.04-.84.04-.84-.84-.04.04-.84-.84-.04-.84-.04-.04.84-.84-.04-.84-.04-.84-.04-.04.84-.84-.04-.84-.04-.84-.04-.84-.04-.84-.04-.84-.04-.84-.04-.84-.04-.84-.04-.84-.04.04-.84-.84-.04-.84-.04.04-.84-.84-.04-.84-.04.04-.84-.84-.04.04-.84-.84-.04.04-.84-.84-.04.04-.84.04-.84-.84-.04-.84-.04.04-.84.04-.84.04-.84.04-.84.04-.84.04-.84.04-.84.04-.84.04-.84.04-.84.04-.84.84.04.04-.84.04-.84.84.04.04-.84.84.04.04-.84.04-.84.84.04.84.04.04-.84.84.04.84.04.04-.84.84.04.04-.84.84.04.84.04.04-.84.84.04.84.04.84.04.84.04.84.04.84.04.84.04.84.04-.04.84.84.04.84.04.84.04-.04.84.84.04-.04.84.84.04.84.04.04-.84.04-.84.04-.84.04-.84.04-.84.04-.84.04-.84.04-.84.04-.84.04-.84.04-.84.04-.84.84.04.04-.84.04-.84.04-.84.04-.84.04-.84.04-.84.04-.84.04-.84.04-.84.04-.84.84.04.04-.84.84.04.04-.84M110.62,33.81l-.84-.04-.84-.04-.04.84-.84-.04-.04.84-.04.84-.04.84-.04.84-.04.84.84.04.84.04.84.04.84.04.84.04.84.04.04-.84.04-.84.04-.84.04-.84.04-.84-.84-.04.04-.84-.84-.04.04-.84-.84-.04-.04.84M119.16,5.25l-.04.84-.84-.04-.04.84-.84-.04-.09,2-.04.84-.04.84-.04.84-.04.84-.04.84-.04.84-.04.84-.02.52-.84-.04-.09,2-.04.84-.04.84-.04.84-.04.84-.04.84-.04.84-.04.84-.02.52-.52-.02-.52-.02.04-.84-2-.09-.84-.04-.84-.04-.84-.04-.84-.04-.84-.04-.84-.04-.84-.04-.84-.04-2-.09-.04.84-1.68-.08-.04.84-.84-.04-.04.84-1.68-.08-.04.84-1.68-.08-.08,1.68-.84-.04-.04.84-.84-.04-.08,1.68-.84-.04-.09,2-.04.84-.04.84-.04.84-.04.84-.04.84-.04.84-.04.84-.04.84-.04.84-.04.84-.04.84-.09,2,1.68.08-.07,1.68.84.04-.04.84.84.04-.04.84.84.04-.04.84,1.68.08-.04.84,1.68.08-.04.84,2,.09.84.04.84.04.84.04.84.04.84.04.84.04.84.04.84.04.84.04.84.04,2,.09.04-.84.52.02.52.02-.02.52-.09,2,2,.09.84.04.84.04.84.04.84.04.84.04.84.04.84.04,2,.09.08-1.68.84.04.08-1.68.84.04.08-1.68.84.04.09-2,.04-.84.04-.84.04-.84.04-.84.04-.84.04-.84.04-.84.04-.84.04-.84.04-.84.04-.84.04-.84.04-.84.04-.84.04-.84.04-.84.04-.84.04-.84.04-.84.02-.52.84.04.09-2,.04-.84.04-.84.04-.84.04-.84.04-.84.02-.52.84.04.09-2,.04-.84.04-.84.04-.84.04-.84.04-.84.04-.84.04-.84.04-.84.04-.84.04-.84.04-.84.09-2-.84-.04.04-.84-2-.09-.52-.02.04-.84-.84-.04.04-.84-2-.09-.84-.04-.84-.04-.84-.04-.84-.04-.84-.04-2-.09h0ZM109.96,36.83v-.2s.85.04.85.04h.21s0,.21,0,.21l-.52-.02-.52-.02h0Z"/><polygon class="cls-1" points="191.65 25.72 191.58 26.56 191.5 27.4 191.43 28.23 191.36 29.07 191.28 29.91 191.21 30.75 191.14 31.58 191.06 32.42 190.99 33.26 190.91 34.1 190.84 34.94 190.77 35.77 190.69 36.61 190.62 37.45 190.55 38.29 190.47 39.12 190.4 39.96 189.56 39.89 189.49 40.73 189.41 41.56 188.57 41.49 188.5 42.33 188.43 43.16 187.59 43.09 187.51 43.93 186.68 43.85 185.84 43.78 185 43.71 184.16 43.63 183.32 43.56 183.4 42.72 182.56 42.65 182.63 41.81 181.79 41.74 181.87 40.9 181.94 40.06 182.01 39.22 181.44 39.17 181.4 39.63 181.32 40.46 181.25 41.3 181.17 42.14 182.01 42.21 181.94 43.05 181.87 43.89 181.79 44.73 182.63 44.8 182.56 45.64 183.4 45.71 183.32 46.55 184.16 46.62 185 46.7 185.84 46.77 186.68 46.84 187.51 46.92 187.59 46.08 188.43 46.15 188.5 45.32 188.57 44.48 189.41 44.55 189.49 43.71 189.56 42.88 190.4 42.95 190.47 42.11 190.55 41.28 190.62 40.44 190.69 39.6 190.77 38.76 190.84 37.92 190.91 37.09 190.99 36.25 191.06 35.41 191.14 34.57 191.21 33.74 191.28 32.9 191.36 32.06 191.43 31.22 191.5 30.39 191.58 29.55 191.65 28.71 191.72 27.87 191.8 27.03 191.87 26.2 191.95 25.36 191.68 25.34 191.65 25.72"/><polygon class="cls-1" points="180.78 34.05 180.85 33.21 180.93 32.38 181 31.54 180.42 31.49 180.38 31.94 180.31 32.78 180.23 33.62 180.16 34.45 180.74 34.5 180.78 34.05"/><polygon class="cls-1" points="181.32 37.47 181.4 36.64 181.47 35.8 181.54 34.96 180.97 34.91 180.93 35.36 180.85 36.2 180.78 37.04 180.7 37.88 181.28 37.93 181.32 37.47"/><polygon class="cls-1" points="242.65 22.7 242.65 21.86 242.65 21.02 241.81 21.02 241.81 20.18 240.97 20.18 240.13 20.18 239.28 20.18 238.44 20.18 237.6 20.18 236.76 20.18 236.76 21.02 236.76 21.86 235.92 21.86 235.92 22.7 235.92 23.54 235.92 24.38 236.76 24.38 236.76 24.01 236.76 23.17 237.6 23.17 238.44 23.17 239.28 23.17 240.13 23.17 240.97 23.17 241.81 23.17 241.81 24.01 242.65 24.01 242.65 23.54 242.65 22.7"/><polygon class="cls-1" points="247.7 29.43 247.7 30.27 246.86 30.27 246.02 30.27 246.02 31.11 245.18 31.11 244.33 31.11 243.49 31.11 242.65 31.11 241.81 31.11 240.97 31.11 240.13 31.11 239.28 31.11 238.44 31.11 237.6 31.11 237.6 30.27 236.76 30.27 235.92 30.27 235.92 29.43 235.08 29.43 234.23 29.43 234.23 30.27 234.23 31.11 234.23 31.95 235.08 31.95 235.08 32.42 235.92 32.42 235.92 33.26 236.76 33.26 237.6 33.26 237.6 34.1 238.44 34.1 239.28 34.1 240.13 34.1 240.97 34.1 241.81 34.1 242.65 34.1 243.49 34.1 244.33 34.1 245.18 34.1 246.02 34.1 246.02 33.26 246.86 33.26 247.7 33.26 247.7 32.42 248.54 32.42 249.38 32.42 249.38 31.58 249.38 30.74 249.38 29.9 249.38 29.43 248.54 29.43 247.7 29.43"/><polygon class="cls-1" points="248.54 41.2 247.7 41.2 247.7 42.04 247.7 42.88 246.86 42.88 246.02 42.88 246.02 43.73 245.18 43.73 244.33 43.73 243.49 43.73 243.49 44.57 242.65 44.57 241.81 44.57 240.97 44.57 240.13 44.57 239.28 44.57 238.44 44.57 238.44 43.73 237.6 43.73 236.76 43.73 235.92 43.73 235.08 43.73 234.23 43.73 233.39 43.73 233.39 42.88 232.55 42.88 231.71 42.88 231.71 42.04 230.87 42.04 230.02 42.04 229.18 42.04 229.18 41.2 228.34 41.2 228.34 40.36 228.34 39.52 227.5 39.52 226.66 39.52 226.66 38.68 225.82 38.68 225.82 37.84 225.82 37 224.97 37 224.97 36.16 224.97 35.32 224.97 34.48 224.13 34.48 224.13 34.94 224.13 35.78 224.13 36.62 224.13 37.46 224.97 37.46 224.97 38.31 224.97 39.15 224.97 39.99 225.82 39.99 225.82 40.83 225.82 41.67 226.66 41.67 226.66 42.51 227.5 42.51 228.34 42.51 228.34 43.35 228.34 44.19 229.18 44.19 229.18 45.03 230.02 45.03 230.87 45.03 231.71 45.03 231.71 45.87 232.55 45.87 233.39 45.87 233.39 46.71 234.23 46.71 235.08 46.71 235.92 46.71 236.76 46.71 237.6 46.71 238.44 46.71 238.44 47.56 239.28 47.56 240.13 47.56 240.97 47.56 241.81 47.56 242.65 47.56 243.49 47.56 243.49 46.71 244.33 46.71 245.18 46.71 246.02 46.71 246.02 45.87 246.86 45.87 247.7 45.87 247.7 45.03 247.7 44.19 248.54 44.19 248.54 43.35 248.54 42.51 249.38 42.51 249.38 41.67 249.38 40.83 248.54 40.83 248.54 41.2"/><polygon class="cls-1" points="194.1 26.59 194.1 27.53 194.1 28.48 195.04 28.48 195.04 29.42 195.98 29.42 195.98 30.36 196.93 30.36 197.87 30.36 197.87 31.3 199.75 31.3 199.75 32.24 205.41 32.24 205.41 33.18 210.12 33.18 211.07 33.18 212.01 33.18 212.01 31.14 200.87 31.05 200.88 29.93 199.75 29.93 199.75 28.99 198.81 28.99 197.87 28.99 197.87 27.37 196.93 27.37 195.98 27.37 195.98 26.43 195.04 26.43 195.04 25.49 194.1 25.49 194.1 24.54 194.1 23.6 194.1 22.66 193.15 22.66 193.15 22.83 193.15 23.77 193.15 24.71 193.15 25.65 194.1 25.65 194.1 26.59"/><polygon class="cls-1" points="222.38 38.67 222.38 39.61 221.44 39.61 221.44 40.55 220.49 40.55 220.49 41.5 220.49 42.44 219.55 42.44 218.61 42.44 218.61 43.38 217.66 43.38 216.72 43.38 216.72 44.32 215.78 44.32 214.84 44.32 214.84 45.26 213.89 45.26 212.95 45.26 212.01 45.26 211.07 45.26 210.12 45.26 209.18 45.26 208.24 45.26 207.3 45.26 206.35 45.26 205.41 45.26 204.47 45.26 203.52 45.26 202.58 45.26 202.58 44.32 201.64 44.32 200.7 44.32 199.75 44.32 198.81 44.32 197.87 44.32 197.87 43.38 196.93 43.38 195.98 43.38 195.98 42.44 195.04 42.44 194.1 42.44 194.1 41.5 194.1 40.55 193.15 40.55 193.15 39.61 192.21 39.61 192.21 39.78 192.21 40.72 192.21 41.66 192.21 42.6 193.15 42.6 193.15 43.54 194.1 43.54 194.1 44.49 194.1 45.43 195.04 45.43 195.98 45.43 195.98 46.37 196.93 46.37 197.87 46.37 197.87 47.31 198.81 47.31 199.75 47.31 200.7 47.31 201.64 47.31 202.58 47.31 202.58 48.25 203.52 48.25 204.47 48.25 205.41 48.25 206.35 48.25 207.3 48.25 208.24 48.25 209.18 48.25 210.12 48.25 211.07 48.25 212.01 48.25 212.95 48.25 213.89 48.25 214.84 48.25 214.84 47.31 215.78 47.31 216.72 47.31 216.72 46.37 217.66 46.37 218.61 46.37 218.61 45.43 219.55 45.43 220.49 45.43 220.49 44.49 220.49 43.54 221.44 43.54 221.44 42.6 222.38 42.6 222.38 41.66 222.38 40.72 223.32 40.72 223.32 39.78 223.32 38.84 223.32 37.89 223.32 37.73 222.38 37.73 222.38 38.67"/><polygon class="cls-1" points="222.38 22.97 212.01 22.97 212.01 21.91 209.18 21.91 209.18 23.79 212.01 23.77 212.01 24.71 220.49 24.71 221.44 24.71 222.38 24.71 222.38 23.77 223.32 23.77 223.32 22.83 223.32 21.88 223.32 20.94 223.32 20.78 222.38 20.78 222.38 22.97"/><polygon class="cls-1" points="223.32 17.95 223.32 18.89 223.32 19.84 223.32 20 224.26 20 224.26 19.06 224.26 18.12 224.26 17.17 223.32 17.17 223.32 17.95"/><polygon class="cls-1" points="132.15 32.76 132.15 33.64 133.03 33.64 133.03 33.29 133.03 32.41 133.03 31.53 133.03 30.65 132.15 30.65 132.15 29.77 132.15 28.89 132.15 28.01 131.27 28.01 131.27 28.36 131.27 29.24 131.27 30.12 131.27 31 132.15 31 132.15 31.88 132.15 32.76"/><polygon class="cls-1" points="134.79 38.92 134.79 38.57 134.79 37.69 134.79 36.81 134.79 35.93 133.91 35.93 133.91 35.05 133.03 35.05 133.03 35.4 133.03 36.28 133.03 37.16 133.03 38.04 133.91 38.04 133.91 38.92 134.79 38.92"/><polygon class="cls-1" points="131.27 26.25 131.27 25.37 131.27 24.49 131.27 23.61 130.39 23.61 130.39 23.96 130.39 24.84 130.39 25.72 130.39 26.6 131.27 26.6 131.27 26.25"/><polygon class="cls-1" points="174.41 40.33 174.41 41.2 173.53 41.2 173.53 42.08 172.65 42.08 172.65 42.96 171.77 42.96 171.77 43.84 170.89 43.84 170.01 43.84 169.13 43.84 168.25 43.84 167.37 43.84 166.49 43.84 165.61 43.84 164.73 43.84 163.84 43.84 162.96 43.84 162.08 43.84 162.08 42.96 161.2 42.96 160.32 42.96 160.32 42.08 160.32 41.2 159.44 41.2 159.44 40.33 158.56 40.33 158.56 39.45 157.68 39.45 157.68 38.57 157.68 37.69 156.8 37.69 156.8 36.81 156.8 35.93 155.92 35.93 155.92 35.05 155.04 35.05 155.04 34.17 155.04 33.29 154.16 33.29 154.16 34.17 154.16 35.05 154.16 35.93 153.28 35.93 153.28 36.81 153.28 37.69 153.28 38.57 152.4 38.57 152.4 39.45 152.4 40.33 152.4 41.2 151.52 41.2 150.64 41.2 150.64 42.08 150.64 42.96 149.76 42.96 149.76 43.84 148.88 43.84 148 43.84 148 44.72 148 45.6 147.12 45.6 146.24 45.6 145.36 45.6 145.36 46.48 144.47 46.48 143.59 46.48 142.71 46.48 141.83 46.48 140.95 46.48 140.95 45.6 140.07 45.6 139.19 45.6 138.31 45.6 138.31 44.72 138.31 43.84 137.43 43.84 137.43 42.96 136.55 42.96 136.55 42.08 136.55 41.2 135.67 41.2 135.67 40.33 135.67 39.45 134.79 39.45 134.79 39.8 134.79 40.68 134.79 41.56 134.79 42.44 135.67 42.44 135.67 43.31 135.67 44.19 136.55 44.19 136.55 45.07 136.55 45.95 137.43 45.95 137.43 46.83 138.31 46.83 138.31 47.71 138.31 48.59 139.19 48.59 140.07 48.59 140.95 48.59 140.95 49.47 141.83 49.47 142.71 49.47 143.59 49.47 144.47 49.47 145.36 49.47 145.36 48.59 146.24 48.59 147.12 48.59 148 48.59 148 47.71 148 46.83 148.88 46.83 149.76 46.83 149.76 45.95 150.64 45.95 150.64 45.07 150.64 44.19 151.52 44.19 152.4 44.19 152.4 43.31 152.4 42.44 152.4 41.56 153.28 41.56 153.28 40.68 153.28 39.8 153.28 38.92 154.16 38.92 154.16 38.04 154.16 37.16 154.16 36.28 155.04 36.28 155.04 37.16 155.04 38.04 155.92 38.04 155.92 38.92 156.8 38.92 156.8 39.8 156.8 40.68 157.68 40.68 157.68 41.56 157.68 42.44 158.56 42.44 158.56 43.31 159.44 43.31 159.44 44.19 160.32 44.19 160.32 45.07 160.32 45.95 161.2 45.95 162.08 45.95 162.08 46.83 162.96 46.83 163.84 46.83 164.73 46.83 165.61 46.83 166.49 46.83 167.37 46.83 168.25 46.83 169.13 46.83 170.01 46.83 170.89 46.83 171.77 46.83 171.77 45.95 172.65 45.95 172.65 45.07 173.53 45.07 173.53 44.19 174.41 44.19 174.41 43.31 174.41 42.44 175.29 42.44 175.29 41.56 175.29 40.68 175.29 39.8 175.29 39.45 174.41 39.45 174.41 40.33"/><polygon class="cls-1" points="177.93 27.13 177.93 28.01 177.93 28.89 177.05 28.89 177.05 29.77 177.05 30.65 177.05 31.53 177.05 31.88 177.93 31.88 177.93 31 177.93 30.12 177.93 29.24 178.81 29.24 178.81 28.36 178.81 27.48 178.81 26.6 178.81 26.25 177.93 26.25 177.93 27.13"/><polygon class="cls-1" points="176.17 35.93 175.29 35.93 175.29 36.81 175.29 37.69 175.29 38.57 175.29 38.92 176.17 38.92 176.17 38.04 177.05 38.04 177.05 37.16 177.05 36.28 177.05 35.4 177.05 35.05 176.17 35.05 176.17 35.93"/><polygon class="cls-1" points="178.81 20.97 178.81 21.85 178.81 22.73 178.81 23.08 179.69 23.08 179.69 22.2 179.69 21.32 179.69 20.45 179.69 20.09 178.81 20.09 178.81 20.97"/><polygon class="cls-1" points="71.35 29.8 71.35 28.96 70.51 28.96 70.51 28.11 69.66 28.11 69.66 27.27 68.82 27.27 67.98 27.27 67.14 27.27 67.14 28.11 66.3 28.11 65.46 28.11 65.46 28.96 65.46 29.8 65.46 30.64 65.46 31.1 66.3 31.1 67.14 31.1 67.14 30.26 67.98 30.26 68.82 30.26 69.66 30.26 69.66 31.1 70.51 31.1 70.51 30.64 71.35 30.64 71.35 29.8"/><polygon class="cls-1" points="80.61 36.52 79.77 36.52 79.77 37.36 79.77 38.21 78.92 38.21 78.92 39.05 78.08 39.05 78.08 39.89 77.24 39.89 76.4 39.89 76.4 40.73 75.56 40.73 74.72 40.73 74.72 41.57 73.87 41.57 73.03 41.57 73.03 42.41 72.19 42.41 71.35 42.41 70.51 42.41 69.66 42.41 68.82 42.41 67.98 42.41 67.14 42.41 66.3 42.41 65.46 42.41 64.61 42.41 63.77 42.41 62.93 42.41 62.09 42.41 61.25 42.41 61.25 41.57 60.41 41.57 59.56 41.57 59.56 40.73 58.72 40.73 57.88 40.73 57.88 39.89 57.04 39.89 57.04 39.05 57.04 38.21 56.2 38.21 56.2 37.36 56.2 36.52 55.35 36.52 55.35 36.99 55.35 37.83 55.35 38.67 55.35 39.51 56.2 39.51 56.2 40.35 56.2 41.19 57.04 41.19 57.04 42.04 57.04 42.88 57.88 42.88 57.88 43.72 58.72 43.72 59.56 43.72 59.56 44.56 60.41 44.56 61.25 44.56 61.25 45.4 62.09 45.4 62.93 45.4 63.77 45.4 64.61 45.4 65.46 45.4 66.3 45.4 67.14 45.4 67.98 45.4 68.82 45.4 69.66 45.4 70.51 45.4 71.35 45.4 72.19 45.4 73.03 45.4 73.03 44.56 73.87 44.56 74.72 44.56 74.72 43.72 75.56 43.72 76.4 43.72 76.4 42.88 77.24 42.88 78.08 42.88 78.08 42.04 78.92 42.04 78.92 41.19 79.77 41.19 79.77 40.35 79.77 39.51 80.61 39.51 80.61 38.67 81.45 38.67 81.45 37.83 81.45 36.99 81.45 36.15 81.45 35.68 80.61 35.68 80.61 36.52"/><polygon class="cls-1" points="93.83 39.14 93.83 40.13 93.83 41.11 92.84 41.11 92.84 42.1 91.85 42.1 91.85 43.09 91.85 44.08 90.86 44.08 89.87 44.08 88.88 44.08 87.89 44.08 86.9 44.08 85.91 44.08 85.91 43.09 84.92 43.09 84.92 42.1 84.92 41.11 83.93 41.11 83.93 40.13 83.93 39.14 83.93 38.15 82.94 38.15 82.94 38.17 82.94 39.16 82.94 40.15 82.94 41.14 83.93 41.14 83.93 42.13 83.93 43.11 83.93 44.1 84.92 44.1 84.92 45.09 84.92 46.08 85.91 46.08 85.91 47.07 86.9 47.07 87.89 47.07 88.88 47.07 89.87 47.07 90.86 47.07 91.85 47.07 91.85 46.08 91.85 45.09 92.84 45.09 92.84 44.1 93.83 44.1 93.83 43.11 93.83 42.13 93.83 41.14 94.82 41.14 94.82 40.15 94.82 39.16 94.82 38.17 94.82 38.15 93.83 38.15 93.83 39.14"/><polygon class="cls-1" points="115.62 17.37 114.63 17.37 114.63 18.36 113.64 18.36 113.64 19.35 112.65 19.35 111.66 19.35 110.67 19.35 109.68 19.35 108.69 19.35 107.7 19.35 107.7 18.36 106.71 18.36 105.72 18.36 104.73 18.36 104.73 17.37 103.74 17.37 102.75 17.37 101.75 17.37 100.76 17.37 99.77 17.37 98.78 17.37 97.79 17.37 97.79 18.36 96.8 18.36 96.8 19.35 95.81 19.35 95.81 20.34 95.81 21.33 95.81 22.32 95.81 22.34 96.8 22.34 96.8 21.35 97.79 21.35 97.79 20.36 98.78 20.36 99.77 20.36 100.76 20.36 101.75 20.36 102.75 20.36 103.74 20.36 104.73 20.36 104.73 21.35 105.72 21.35 106.71 21.35 107.7 21.35 107.7 22.34 108.69 22.34 109.68 22.34 110.67 22.34 111.66 22.34 112.65 22.34 113.64 22.34 113.64 21.35 114.63 21.35 114.63 20.36 115.62 20.36 115.62 19.37 116.61 19.37 116.61 18.38 116.61 17.39 116.61 16.4 116.61 16.38 115.62 16.38 115.62 17.37"/><polygon class="cls-1" points="94.82 29.24 94.82 30.23 94.82 31.22 94.82 31.24 95.81 31.24 95.81 30.25 95.81 29.26 95.81 28.27 95.81 28.25 94.82 28.25 94.82 29.24"/><polygon class="cls-1" points="5.62 20.28 5.62 19.4 5.62 18.52 5.62 17.64 4.74 17.64 4.74 17.99 4.74 18.87 4.74 19.75 4.74 20.63 5.62 20.63 5.62 20.28"/><polygon class="cls-1" points="8.26 32.95 8.26 33.83 9.14 33.83 9.14 33.48 9.14 32.6 9.14 31.72 9.14 30.84 8.26 30.84 8.26 29.96 8.26 29.08 8.26 28.2 7.38 28.2 7.38 27.32 7.38 26.44 6.5 26.44 6.5 26.79 6.5 27.67 6.5 28.55 6.5 29.43 7.38 29.43 7.38 30.31 7.38 31.19 8.26 31.19 8.26 32.07 8.26 32.95"/><polygon class="cls-1" points="6.5 25.56 6.5 24.68 6.5 23.8 6.5 22.92 5.62 22.92 5.62 23.27 5.62 24.15 5.62 25.03 5.62 25.91 6.5 25.91 6.5 25.56"/><polygon class="cls-1" points="29.39 37.87 29.39 38.75 28.51 38.75 28.51 39.63 28.51 40.51 27.63 40.51 27.63 41.39 27.63 42.27 26.75 42.27 25.87 42.27 25.87 43.15 24.99 43.15 24.99 44.03 24.99 44.91 24.11 44.91 23.23 44.91 22.35 44.91 22.35 45.79 21.47 45.79 20.59 45.79 19.71 45.79 18.83 45.79 17.95 45.79 17.95 44.91 17.07 44.91 16.19 44.91 16.19 44.03 15.31 44.03 15.31 43.15 14.43 43.15 14.43 42.27 13.55 42.27 13.55 41.39 13.55 40.51 12.67 40.51 12.67 39.63 12.67 38.75 11.78 38.75 11.78 37.87 10.9 37.87 10.9 37 10.9 36.12 10.9 35.24 10.02 35.24 10.02 34.36 9.14 34.36 9.14 34.71 9.14 35.59 9.14 36.47 9.14 37.35 10.02 37.35 10.02 38.23 10.9 38.23 10.9 39.1 10.9 39.98 10.9 40.86 11.78 40.86 11.78 41.74 12.67 41.74 12.67 42.62 12.67 43.5 13.55 43.5 13.55 44.38 13.55 45.26 14.43 45.26 14.43 46.14 15.31 46.14 15.31 47.02 16.19 47.02 16.19 47.9 17.07 47.9 17.95 47.9 17.95 48.78 18.83 48.78 19.71 48.78 20.59 48.78 21.47 48.78 22.35 48.78 22.35 47.9 23.23 47.9 24.11 47.9 24.99 47.9 24.99 47.02 24.99 46.14 25.87 46.14 25.87 45.26 26.75 45.26 27.63 45.26 27.63 44.38 27.63 43.5 28.51 43.5 28.51 42.62 28.51 41.74 29.39 41.74 29.39 40.86 29.39 39.98 30.27 39.98 30.27 39.1 30.27 38.23 30.27 37.35 30.27 37 29.39 37 29.39 37.87"/><polygon class="cls-1" points="54.05 23.8 54.05 24.68 54.05 25.56 54.05 25.91 54.93 25.91 54.93 25.03 54.93 24.15 54.93 23.27 54.93 22.92 54.05 22.92 54.05 23.8"/><polygon class="cls-1" points="52.29 36.12 52.29 37 52.29 37.87 51.41 37.87 50.53 37.87 50.53 38.75 50.53 39.63 49.64 39.63 49.64 40.51 48.76 40.51 47.88 40.51 47.88 41.39 47 41.39 47 42.27 46.12 42.27 45.24 42.27 44.36 42.27 43.48 42.27 42.6 42.27 42.6 43.15 41.72 43.15 40.84 43.15 40.84 42.27 39.96 42.27 39.08 42.27 38.2 42.27 38.2 41.39 37.32 41.39 37.32 40.51 36.44 40.51 36.44 39.63 35.56 39.63 35.56 38.75 34.68 38.75 34.68 37.87 34.68 37 33.8 37 33.8 36.12 32.92 36.12 32.92 35.24 32.92 34.36 32.92 33.48 32.04 33.48 32.04 32.6 32.04 31.72 31.16 31.72 31.16 32.6 31.16 33.48 30.27 33.48 30.27 34.36 30.27 35.24 30.27 36.12 30.27 36.47 31.16 36.47 31.16 35.59 31.16 34.71 32.04 34.71 32.04 35.59 32.04 36.47 32.92 36.47 32.92 37.35 32.92 38.23 32.92 39.1 33.8 39.1 33.8 39.98 34.68 39.98 34.68 40.86 34.68 41.74 35.56 41.74 35.56 42.62 36.44 42.62 36.44 43.5 37.32 43.5 37.32 44.38 38.2 44.38 38.2 45.26 39.08 45.26 39.96 45.26 40.84 45.26 40.84 46.14 41.72 46.14 42.6 46.14 42.6 45.26 43.48 45.26 44.36 45.26 45.24 45.26 46.12 45.26 47 45.26 47 44.38 47.88 44.38 47.88 43.5 48.76 43.5 49.64 43.5 49.64 42.62 50.53 42.62 50.53 41.74 50.53 40.86 51.41 40.86 52.29 40.86 52.29 39.98 52.29 39.1 52.29 38.23 53.17 38.23 53.17 37.35 53.17 36.47 53.17 35.59 53.17 35.24 52.29 35.24 52.29 36.12"/><polygon class="cls-1" points="53.17 31.72 53.17 32.6 53.17 33.48 53.17 33.83 54.05 33.83 54.05 32.95 54.05 32.07 54.05 31.19 54.05 30.84 53.17 30.84 53.17 31.72"/><polygon class="cls-1" points="112.27 31.73 112.3 30.89 111.46 30.86 111.5 30.02 110.66 29.98 110.62 30.82 109.78 30.78 108.94 30.74 108.9 31.58 108.06 31.55 108.03 32.39 107.99 33.23 107.95 34.07 107.91 34.91 107.88 35.75 108.01 35.75 108.03 35.37 108.06 34.53 108.9 34.57 108.94 33.73 109.78 33.77 110.62 33.81 110.66 32.97 111.5 33 111.46 33.84 112.3 33.88 112.27 34.72 112.98 34.75 113 34.29 113.03 33.45 113.07 32.61 113.11 31.77 112.27 31.73"/><polygon class="cls-1" points="129.22 10.6 129.18 11.44 129.15 12.28 129.11 13.12 129.07 13.96 129.03 14.8 129 15.64 128.96 16.48 128.12 16.45 128.08 17.29 128.04 18.13 128 18.97 127.97 19.81 127.93 20.65 127.89 21.49 127.85 22.33 127.82 23.17 126.98 23.13 126.94 23.97 126.9 24.81 126.86 25.65 126.83 26.49 126.79 27.33 126.75 28.17 126.71 29.01 126.68 29.85 126.64 30.69 126.6 31.53 126.56 32.37 126.53 33.21 126.49 34.05 126.45 34.89 126.41 35.73 126.38 36.57 126.34 37.41 126.3 38.25 126.26 39.09 126.23 39.93 126.19 40.77 126.15 41.61 125.31 41.57 125.27 42.41 125.23 43.25 124.39 43.22 124.36 44.06 124.32 44.9 123.48 44.86 123.44 45.7 123.4 46.54 122.56 46.5 121.72 46.46 120.88 46.43 120.04 46.39 119.2 46.35 118.36 46.31 117.52 46.28 117.55 45.44 117.59 44.6 117.63 43.76 116.79 43.72 116.83 42.88 115.98 42.84 115.14 42.8 115.11 43.64 114.27 43.61 113.42 43.57 112.58 43.53 112.55 44.37 111.7 44.33 110.86 44.3 110.02 44.26 109.18 44.22 108.34 44.18 107.5 44.15 106.66 44.11 105.82 44.07 104.98 44.03 104.14 44 104.17 43.16 103.33 43.12 102.49 43.08 102.53 42.24 101.69 42.2 100.85 42.17 100.89 41.33 100.04 41.29 100.08 40.45 99.24 40.41 99.28 39.57 98.44 39.53 98.48 38.69 98.51 37.85 97.67 37.82 96.96 37.78 96.94 38.25 96.91 39.09 96.87 39.93 96.83 40.77 97.67 40.8 98.51 40.84 98.48 41.68 98.44 42.52 99.28 42.56 99.24 43.4 100.08 43.44 100.04 44.28 100.89 44.32 100.85 45.16 101.69 45.19 102.53 45.23 102.49 46.07 103.33 46.11 104.17 46.15 104.14 46.99 104.98 47.02 105.82 47.06 106.66 47.1 107.5 47.14 108.34 47.17 109.18 47.21 110.02 47.25 110.86 47.29 111.7 47.32 112.55 47.36 112.58 46.52 113.42 46.56 114.27 46.6 115.11 46.63 115.14 45.79 115.98 45.83 116.83 45.87 116.79 46.71 117.63 46.75 117.59 47.59 117.55 48.43 117.52 49.27 118.36 49.3 119.2 49.34 120.04 49.38 120.88 49.42 121.72 49.45 122.56 49.49 123.4 49.53 123.44 48.69 123.48 47.85 124.32 47.89 124.36 47.05 124.39 46.21 125.23 46.24 125.27 45.4 125.31 44.56 126.15 44.6 126.19 43.76 126.23 42.92 126.26 42.08 126.3 41.24 126.34 40.4 126.38 39.56 126.41 38.72 126.45 37.88 126.49 37.04 126.53 36.2 126.56 35.36 126.6 34.52 126.64 33.68 126.68 32.84 126.71 32 126.75 31.16 126.79 30.32 126.83 29.48 126.86 28.64 126.9 27.8 126.94 26.96 126.98 26.12 127.82 26.16 127.85 25.32 127.89 24.48 127.93 23.64 127.97 22.8 128 21.96 128.04 21.12 128.08 20.28 128.12 19.44 128.96 19.47 129 18.63 129.03 17.79 129.07 16.95 129.11 16.11 129.15 15.27 129.18 14.43 129.22 13.59 129.26 12.75 129.3 11.91 129.33 11.07 129.37 10.23 129.24 10.23 129.22 10.6"/></svg>