<?xml version="1.0" encoding="UTF-8"?><svg id="Layer_1" xmlns="http://www.w3.org/2000/svg" viewBox="0 0 53.16 22.48"><defs><style>.cls-1{fill:#3fbb7d;}</style></defs><path class="cls-1" d="M44.96,22.48s8.31-2.81,8.2-6.15-8.96,2.7-8.63,3.08,6.8-8.8,5.5-12.47-5.18,5.4-5.07,5.07,3-5.18-.44-5.18-8.3,10.04-8.3,10.04c0,0,4.53-10.79,2.59-13.38s-8.85,12.84-8.85,12.84c0,0,2.05-8.96.76-11.12s-5.18,8.74-5.18,8.74c0,0,1.3-8.63-2.37-13.06-3.67-4.43-2.16,9.07-2.16,9.07,0,0-.32-5.18-3.45-3.35s1.08,11.66,1.08,11.66c0,0-3.56-7.12-6.37-6.37s.76,6.91.76,6.91c0,0-10.36-10.82-12.74-7.57-2.37,3.25,11.44,11.24,11.44,11.24h33.24Z"/></svg>