<?xml version="1.0" encoding="UTF-8"?><svg id="Layer_1" xmlns="http://www.w3.org/2000/svg" viewBox="0 0 914.79 264.29"><defs><style>.cls-1{fill:#0c665c;opacity:.56;}</style></defs><path class="cls-1" d="M914.79,3.38c-12.54,0-324.11-7.6-302.58,0,21.53,7.6,141.86,23.95,77.26,27.81-64.6,3.86-119.06,27.92-111.46,27.92,7.6,0,124.12,24.73,94.99,37.7-29.13,12.97-471.17,9.17-620.62,21.83-149.46,12.67,158.32,27.86,151.99,30.4-6.33,2.53-215.32,46.33-203.92,43.43,11.4-2.9,291.31-34.73,439.5-21.98,148.19,12.75-53.2,40.98-60.8,43.96-7.6,2.98,48.13,13.11,186.19,6.78,138.06-6.33,291.31-33.83,249.52-6.78-41.8,27.05-158.32,35.91-72.2,40.98,86.13,5.07,172.12,8.87,172.12,8.87V3.38Z"/></svg>