<?xml version="1.0" encoding="UTF-8"?><svg id="Layer_1" xmlns="http://www.w3.org/2000/svg" viewBox="0 0 1031.8 241.92"><defs><style>.cls-1{fill:#0c665c;opacity:.56;}</style></defs><path class="cls-1" d="M0,27.91S333.09-8.12,569.77,1.69c236.68,9.81,501.05,72.02,457.22,69.14-43.82-2.88-152.42-8.85-152.42-8.85,0,0,69.51,13.12,15.42,12-54.09-1.12-427.16,21.3-427.16,21.3,0,0,109.34,38.72,39.94,42.51-69.4,3.79-271.39,3.02-268.57,21.81,2.82,18.79,134.8,30.17,22.18,40.44-112.62,10.26-116.06,2.74-120.48,15.09C131.5,227.49,0,241.92,0,241.92V27.91Z"/></svg>