<?xml version="1.0" encoding="UTF-8"?><svg id="Layer_1" xmlns="http://www.w3.org/2000/svg" xmlns:xlink="http://www.w3.org/1999/xlink" viewBox="0 0 874.21 439.67"><defs><style>.cls-1{fill:#6a819f;}.cls-2{fill:#a86524;}.cls-3{fill:#1a2e42;}.cls-4{fill:#dc4145;}.cls-5{fill:#c4c4fd;}.cls-6{fill:#d6d6fe;}.cls-7{fill:#a2a2f4;}.cls-8{fill:none;}.cls-9{fill:#3e5873;}.cls-10{fill:#32d0e9;}.cls-11{clip-path:url(#clippath-1);}.cls-12{fill:#952f3a;}.cls-13{fill:#00e8d2;}.cls-14{fill:#404077;}.cls-15{fill:#e7cc00;}.cls-16{fill:#455f7c;}.cls-17{fill:#ffe596;}.cls-18{fill:#6767a2;}.cls-19{fill:#0a1622;}.cls-20{fill:#f3872e;}.cls-21{fill:#a54841;}.cls-22{fill:#d4034e;}.cls-23{fill:#c3243e;}.cls-24{fill:#ffad71;}.cls-25{clip-path:url(#clippath);}.cls-26{fill:#52528b;}</style><clipPath id="clippath"><rect class="cls-8" x="16.59" y="11.45" width="118.68" height="141.33" transform="translate(-12.96 150) rotate(-84.61)"/></clipPath><clipPath id="clippath-1"><rect class="cls-8" x="16.59" y="11.45" width="118.68" height="141.33" transform="translate(-12.96 150) rotate(-84.61)"/></clipPath></defs><path class="cls-12" d="M789.78,370.28c-13.6-137.97-17.59-266.16-18.01-322.32-.12-16.58-17.37-30.15-39.71-29.86-251.26,3.32-494.95,1.12-590.92-.02-22.86-.27-39.64,13.87-38.92,30.82,4.72,110.27-5.81,256.87-10.2,322.03-1.21,17.91,17.35,32.57,40.75,32.17,256.53-4.42,515.57-1.43,616.49.08,23.71.36,42.31-14.77,40.52-32.9ZM676.27,327.76c-78.35-1.07-275.89-3.13-471.71-.06-18.62.29-33.78-11.43-33.32-25.76,1.54-47.49,3.68-150.02-2.81-230.8-1.17-14.6,14.09-26.86,33.09-26.65,77.72.88,271.31,2.52,471.15.02,18.55-.23,33.63,11.43,33.21,25.7-1.27,43.39-2.69,135.01,3.58,231.14.95,14.54-14.27,26.67-33.19,26.41Z"/><path class="cls-21" d="M720.98,298.54c-5.49-91.92-4.58-178.74-3.39-225.95.51-20.07-15.75-36.54-35.83-36.29-206.72,2.61-406.8.92-489-.02-20.67-.23-37.15,17.22-35.7,37.85,5.54,78.86,3.99,174.08,2.5,225.37-.59,20.15,15.76,36.72,35.92,36.4,202.7-3.2,406.89-1.08,489.69.06,20.54.28,37.03-16.92,35.81-37.43ZM676.27,327.76c-78.35-1.07-275.89-3.13-471.71-.06-18.62.29-33.78-11.43-33.32-25.76,1.54-47.49,3.68-150.02-2.81-230.8-1.17-14.6,14.09-26.86,33.09-26.65,77.72.88,271.31,2.52,471.15.02,18.55-.23,33.63,11.43,33.21,25.7-1.27,43.39-2.69,135.01,3.58,231.14.95,14.54-14.27,26.67-33.19,26.41Z"/><path class="cls-4" d="M776.75,356.48c-8.3-135.27-6.23-264.69-4.61-322.48.48-17.2-17.72-31.23-40.07-30.92-251.28,3.45-494.92,1.16-590.92-.03-22.87-.28-41.26,14.44-39.91,32.02,8.67,112.79,5.65,258.64,3.71,322.04-.53,17.27,17.79,31.36,40.23,30.97,246.12-4.24,494.72-1.37,591.53.08,22.74.34,41.12-14.19,40.05-31.68ZM685.17,335.96c-82.81-1.14-286.99-3.26-489.69-.06-20.16.32-36.5-16.25-35.92-36.4,1.49-51.29,3.05-146.51-2.5-225.37-1.45-20.62,15.03-38.08,35.7-37.85,82.2.93,282.28,2.62,489,.02,20.07-.25,36.33,16.22,35.83,36.29-1.19,47.21-2.09,134.03,3.39,225.95,1.22,20.5-15.27,37.71-35.81,37.43Z"/><path class="cls-23" d="M737.45,71.98c-.02-.29-.13-.57-.34-.82-.39-.47-.98-.89-1.71-1.01-.25-.03-.51-.05-.76-.08-.52,0-1,.1-1.45.3-1.13.67-2.27,1.35-3.4,2.02-.33.14-.6.33-.8.57-.25.21-.42.46-.51.75-.12.29-.14.59-.05.88.02.29.13.57.34.82.39.47.98.89,1.71,1.01.25.03.51.05.76.08.52,0,1-.1,1.45-.3,1.13-.67,2.27-1.35,3.4-2.02.33-.14.6-.33.8-.57.25-.21.42-.46.51-.75.12-.29.14-.59.05-.88Z"/><path class="cls-23" d="M742.36,78.8l-.45-.45c-.36-.27-.78-.46-1.27-.57-1.46-.17-2.93-.34-4.39-.51-.38-.09-.76-.1-1.14-.04-.38.01-.74.1-1.07.26-.59.27-1.16.79-1.32,1.32-.17.56-.13,1.2.29,1.7l.45.45c.36.27.78.46,1.27.57,1.46.17,2.93.34,4.39.51.38.09.76.11,1.14.04.38-.01.74-.1,1.07-.26.59-.27,1.16-.79,1.32-1.32.17-.56.13-1.2-.29-1.7Z"/><path class="cls-23" d="M694.22,343.85c-.02-.29-.13-.57-.34-.82-.18-.26-.43-.46-.74-.62-.28-.2-.6-.33-.97-.4-.73-.13-1.56-.1-2.21.22l-.58.35c-.36.28-.6.6-.74.97-.43.92-.87,1.84-1.3,2.75-.12.29-.14.59-.05.88.02.29.13.57.34.82.18.26.43.46.74.62.28.2.6.33.97.4.73.13,1.56.1,2.21-.22l.58-.35c.36-.28.6-.6.74-.97.43-.92.87-1.84,1.3-2.75.12-.29.14-.59.05-.88Z"/><path class="cls-23" d="M705.59,348.54c-.76-1.09-1.52-2.17-2.28-3.26-.33-.48-1.04-.87-1.71-1.01-.38-.09-.76-.11-1.14-.04-.38.01-.74.1-1.07.26-.61.3-1.15.76-1.32,1.32-.17.59-.09,1.16.29,1.7.76,1.09,1.52,2.17,2.28,3.26.33.48,1.04.87,1.71,1.01.38.09.76.11,1.14.04.38-.01.74-.1,1.07-.26.61-.3,1.15-.76,1.32-1.32.17-.59.09-1.16-.29-1.7Z"/><path class="cls-23" d="M743.29,273.94l-.29-.53c-.25-.33-.6-.6-1.03-.79-.23-.07-.46-.15-.68-.22-.51-.11-1.02-.11-1.52,0l-1.63.5c-.37.07-.7.2-.97.4-.31.16-.56.36-.74.62-.21.25-.32.53-.34.82-.09.29-.07.59.05.88l.29.53c.26.33.6.6,1.03.79.23.07.46.15.68.22.51.11,1.02.11,1.52,0,.54-.17,1.08-.33,1.63-.5.37-.07.7-.2.97-.4.31-.16.56-.36.74-.62.21-.25.32-.53.34-.82.09-.29.07-.59-.05-.88Z"/><path class="cls-23" d="M145.22,148.2l-.58-.34c-.45-.2-.93-.3-1.45-.3-1.08-.08-2.17-.17-3.25-.25-.39-.01-.76.05-1.1.19-.36.09-.66.24-.92.46-.28.2-.48.44-.59.71-.18.26-.26.55-.25.85.03.57.28,1.16.84,1.56l.58.35c.45.2.93.3,1.45.3,1.08.08,2.17.16,3.25.25.39.01.76-.05,1.1-.19.36-.09.66-.24.92-.46.28-.2.48-.44.59-.71.18-.26.26-.55.25-.85-.03-.57-.28-1.16-.84-1.56Z"/><path class="cls-23" d="M143.4,157.78c-.02-.29-.13-.57-.34-.82l-.45-.45c-.36-.27-.78-.46-1.27-.57-.25-.03-.51-.05-.76-.08-.52,0-1,.1-1.45.3-.87.42-1.74.83-2.6,1.25-.33.14-.6.33-.8.57-.25.21-.42.46-.51.75-.12.29-.14.59-.05.88.02.29.13.57.34.82l.45.45c.36.27.78.46,1.27.57.25.03.51.05.76.08.52,0,1-.1,1.45-.3.87-.42,1.74-.83,2.6-1.25.33-.14.6-.33.8-.57.25-.21.42-.46.51-.75.12-.29.14-.59.05-.88Z"/><path class="cls-23" d="M249.42,19.5c-.14-.37-.38-.7-.74-.97-.65-.42-1.3-.83-1.95-1.25-.26-.22-.57-.37-.92-.46-.34-.14-.71-.2-1.1-.19-.39-.01-.76.05-1.1.19-.36.09-.66.24-.92.46l-.45.45c-.26.34-.39.72-.39,1.11.03.2.07.39.1.59.14.37.38.7.74.97.65.42,1.3.83,1.95,1.25.26.22.57.37.92.46.34.14.71.2,1.1.19.39.01.76-.05,1.1-.19.36-.09.66-.24.92-.46.15-.15.3-.3.45-.45.26-.34.39-.72.39-1.11-.03-.2-.07-.39-.1-.59Z"/><path class="cls-23" d="M208.75,357.83c-.43-1.59-.87-3.17-1.3-4.76-.14-.52-.73-1.06-1.32-1.32-.61-.28-1.52-.39-2.21-.22-.69.17-1.36.5-1.71,1.01-.37.54-.45,1.1-.29,1.7.43,1.59.87,3.17,1.3,4.76.14.52.73,1.06,1.32,1.32.61.28,1.52.39,2.21.22.69-.17,1.36-.5,1.71-1.01.37-.54.45-1.1.29-1.7Z"/><path class="cls-23" d="M143.3,317.41c-.22-.53-.65-1.05-1.32-1.32-.64-.26-1.51-.44-2.21-.22-1.94.6-3.88,1.21-5.82,1.81-.37.07-.7.2-.97.4-.31.16-.56.36-.74.62-.36.47-.51,1.17-.29,1.7.22.53.65,1.05,1.32,1.32.64.26,1.51.44,2.21.22,1.94-.6,3.88-1.21,5.82-1.81.37-.07.7-.2.98-.39.31-.16.56-.36.74-.62.36-.47.51-1.17.29-1.7Z"/><path class="cls-23" d="M138.51,310.72c-.38-.46-.99-.91-1.71-1.01-1.19-.17-2.39-.33-3.58-.5-.38-.09-.76-.11-1.14-.04-.38.01-.74.1-1.07.26-.33.14-.6.33-.8.57-.25.21-.42.46-.51.75-.17.57-.13,1.2.29,1.7.38.46.99.91,1.71,1.01,1.19.17,2.39.33,3.58.5.38.09.76.11,1.14.04.38-.01.74-.1,1.07-.26.33-.14.6-.33.8-.57.25-.21.42-.46.51-.75.17-.57.13-1.2-.29-1.7Z"/><path class="cls-23" d="M489.05,341.29c-.12-.27-.31-.51-.59-.71-.55-.39-1.26-.67-2.03-.65-.25.03-.51.05-.76.08-.49.1-.91.29-1.27.57-.98.75-1.95,1.5-2.93,2.25-.28.2-.48.44-.59.71-.18.26-.26.55-.25.85-.01.3.07.59.25.85.12.27.31.51.59.71.55.39,1.26.67,2.03.65.25-.03.51-.05.76-.08.49-.1.91-.29,1.27-.57.98-.75,1.95-1.5,2.93-2.25.28-.2.48-.44.59-.71.18-.26.26-.55.25-.85.01-.3-.07-.59-.25-.85Z"/><path class="cls-23" d="M497.35,345.04c-.12-.27-.31-.51-.59-.71-.26-.22-.57-.37-.92-.46-.34-.14-.71-.2-1.1-.19-.25.03-.51.05-.76.08-.49.1-.91.29-1.27.57l-.45.45c-.26.34-.39.72-.39,1.11v1.88c-.01.3.07.59.25.85.12.27.31.51.59.71.26.22.57.37.92.46.34.14.71.2,1.1.19.25-.03.51-.05.76-.08.49-.1.91-.29,1.27-.57.15-.15.3-.3.45-.45.26-.34.39-.72.39-1.11v-1.88c.01-.3-.07-.59-.25-.85Z"/><path class="cls-23" d="M479.93,21.13c-.14-.37-.38-.7-.74-.97-.98-.75-1.95-1.5-2.93-2.25-.26-.22-.57-.37-.92-.46-.34-.14-.71-.2-1.1-.19-.39-.01-.76.05-1.1.19-.36.09-.66.24-.92.46-.5.42-.87.97-.84,1.56.03.2.07.39.1.59.14.37.38.7.74.97l2.93,2.25c.26.22.57.37.92.46.34.14.71.2,1.1.19.39.01.76-.05,1.1-.19.36-.09.66-.24.92-.46.5-.42.87-.97.84-1.56-.03-.2-.07-.39-.1-.59Z"/><path class="cls-23" d="M488.39,18.71c.01-.3-.07-.59-.25-.85-.12-.27-.31-.51-.59-.71-.26-.22-.57-.37-.92-.46-.34-.14-.71-.2-1.1-.19-.74.03-1.51.21-2.03.65-.15.15-.3.3-.45.45-.26.34-.39.72-.39,1.11l.49,3.01c-.01.3.07.59.25.85.12.27.31.51.59.71.26.22.57.37.92.46.34.14.71.2,1.1.19.74-.03,1.51-.21,2.03-.65l.45-.45c.26-.34.39-.72.39-1.11l-.49-3.01Z"/><path class="cls-24" d="M757.52,8.01l-3.43,42.72c-.07.87.55,1.64,1.41,1.76l16.42,2.35c.97.14,1.61,1.09,1.36,2.04l-8.19,31.54c-.44,1.68,1.68,2.8,2.83,1.5l42.56-48.14c.77-.87.42-2.25-.68-2.64l-20.28-7.19c-.89-.32-1.34-1.32-.96-2.2l7.62-17.86c.44-1.03-.26-2.19-1.37-2.29l-35.49-3.11c-.91-.08-1.71.6-1.78,1.51Z"/><path class="cls-24" d="M804.83,32.93l-45.06,50.24c1.94,2.9,5.79,6.87,5.79,6.87l45.1-50.19c-1.98-3.17-5.84-6.92-5.84-6.92Z"/><path class="cls-24" d="M790.42,3.69l-41.66,41.35c2.15,3.12,5.67,6.8,5.67,6.8l41.56-41.55c-2.58-3.55-5.57-6.6-5.57-6.6Z"/><path class="cls-17" d="M752.04,1.51l-3.43,42.72c-.07.87.55,1.64,1.41,1.76l16.42,2.35c.97.14,1.61,1.09,1.36,2.04l-8.19,31.54c-.44,1.68,1.68,2.8,2.83,1.5l42.56-48.14c.77-.87.42-2.25-.68-2.64l-20.28-7.19c-.9-.32-1.34-1.32-.96-2.2l7.62-17.86c.44-1.03-.26-2.19-1.37-2.29L753.82,0c-.91-.08-1.71.6-1.78,1.51Z"/><path class="cls-24" d="M85.12,332.87l37,23.88c.75.48,1,1.47.56,2.25l-8.33,14.86c-.49.88-.11,1.99.82,2.39l30.85,13.01c1.64.69,1.24,3.12-.54,3.25l-65.86,4.67c-1.2.08-2.1-1.07-1.73-2.21l6.79-21.04c.3-.93-.25-1.92-1.19-2.16l-19.33-4.93c-1.11-.28-1.63-1.57-1.01-2.55l19.62-30.9c.5-.79,1.56-1.02,2.35-.51Z"/><path class="cls-24" d="M75.93,387.04l69.14-5.4c1.16,3.39,1.99,9.02,1.99,9.02l-69.12,5.47c-1.35-3.6-2.01-9.09-2.01-9.09Z"/><path class="cls-24" d="M61.07,357.02l59.76-8.18c1.2,3.7,2.01,8.87,2.01,8.87l-59.86,7.98c-1.28-4.32-1.91-8.66-1.91-8.66Z"/><path class="cls-17" d="M83.25,324.34l37,23.88c.75.48,1,1.47.56,2.25l-8.33,14.86c-.49.88-.11,1.99.82,2.39l30.85,13.01c1.64.69,1.24,3.12-.54,3.25l-65.86,4.67c-1.2.08-2.1-1.07-1.73-2.21l6.79-21.04c.3-.93-.25-1.92-1.19-2.16l-19.33-4.93c-1.11-.28-1.63-1.57-1.01-2.55l19.62-30.9c.5-.79,1.56-1.02,2.35-.51Z"/><path class="cls-24" d="M811.27,69l-36.64,45.92c-.74.93-.63,2.28.25,3.08l16.86,15.25c1,.9.99,2.47-.02,3.37l-33.48,29.57c-1.78,1.57-.24,4.47,2.06,3.88l85.27-22.1c1.55-.4,2.2-2.24,1.25-3.53l-17.54-23.71c-.77-1.05-.5-2.53.59-3.24l22.34-14.46c1.29-.83,1.39-2.68.19-3.65l-37.95-30.73c-.97-.79-2.4-.63-3.18.35Z"/><path class="cls-24" d="M845.93,133.58l-89.72,22.57c-.02,4.78,1.32,12.24,1.32,12.24l89.72-22.47c.17-5.12-1.33-12.34-1.33-12.34Z"/><path class="cls-24" d="M851.96,89.31l-79.04,15.06c.05,5.19,1.23,12.07,1.23,12.07l79.08-15.37c-.21-6.01-1.27-11.77-1.27-11.77Z"/><path class="cls-17" d="M810.01,57.41l-36.64,45.92c-.74.93-.63,2.28.25,3.08l16.86,15.25c1,.9.99,2.47-.02,3.36l-33.48,29.57c-1.78,1.57-.24,4.47,2.06,3.88l85.27-22.1c1.55-.4,2.2-2.24,1.25-3.53l-17.54-23.71c-.77-1.05-.5-2.53.59-3.24l22.34-14.46c1.29-.83,1.39-2.68.19-3.65l-37.95-30.73c-.97-.79-2.4-.63-3.18.35Z"/><path class="cls-24" d="M120.45,226.46l22.97,55.83c.47,1.13-.03,2.43-1.13,2.97l-21.01,10.21c-1.24.6-1.69,2.16-.95,3.33l24.55,38.78c1.3,2.06-1.05,4.48-3.14,3.23l-77.79-46.27c-1.41-.84-1.53-2.84-.22-3.84l24.11-18.37c1.06-.81,1.22-2.35.35-3.36l-17.9-20.68c-1.03-1.19-.6-3.04.86-3.66l46.27-19.43c1.19-.5,2.55.07,3.04,1.26Z"/><path class="cls-24" d="M67.72,280.24l82.05,48.01c-1.35,4.72-4.82,11.7-4.82,11.7l-82.08-47.91c1.3-5.1,4.85-11.8,4.85-11.8Z"/><path class="cls-24" d="M74.47,234.83l73.67,37.54c-1.54,5.11-4.67,11.56-4.67,11.56l-73.62-37.85c1.94-5.87,4.63-11.24,4.63-11.24Z"/><path class="cls-17" d="M125.02,215.39l22.97,55.83c.47,1.13-.03,2.43-1.13,2.97l-21.01,10.21c-1.24.6-1.69,2.16-.95,3.33l24.55,38.78c1.3,2.06-1.05,4.48-3.14,3.23l-77.79-46.27c-1.41-.84-1.53-2.84-.22-3.84l24.11-18.37c1.06-.81,1.22-2.35.35-3.36l-17.9-20.68c-1.03-1.19-.6-3.04.86-3.66l46.27-19.43c1.19-.5,2.55.07,3.04,1.26Z"/><path class="cls-14" d="M833.71,310.02c6.43,5.43,11.73,11.35,16.31,18.48.61.56,2.02.37,2.89.55,6.21,1.24,10.59,4.11,14.33,9.26l3.73,6.09c.61,1.84,1.65,3.69,2.2,5.53.43,1.42.76,3.76.92,5.29.38,3.68-.16,7.66-2.04,10.88l-.57-.98c-.93-15.91-12.53-32.47-28.47-36.13-8.04-1.84-13.94.86-20.66,4.95l-.97-.09c-2.03-7.89-5.24-15.32-11.65-20.6s-14.75-6.87-22.96-6.39c.34-.39.7-.78,1.18-.99,2.89-1.25,7-2.11,10.14-2.68,12.54-2.3,25.43-.3,35.62,6.82Z"/><path class="cls-26" d="M780.79,437.97l-.37.59c-1.96.22-3.93-.24-5.81-.75-7.99-1.58-16.26-8.96-20.67-15.6l-2.75-4.49c-.8-2.43-2.17-4.87-2.9-7.29-1.42-4.69-1.55-9.89-.58-14.62,2.67-5.36,9.6-7.19,15.21-6.35,15.12,2.26,27.42,20.46,25.74,35.31-.57,4.98-3.08,11.07-7.86,13.2Z"/><path class="cls-26" d="M833.71,310.02c.06.6-.73-.06-.87-.14-14.69-8.93-29.98-8.8-46.06-3-27.94,10.06-26.69,35.26-18.06,59.16.51,1.41,1.17,3.22,1.82,4.54.37.75.13.7,1,.32.41,1.27.92,2.56,1.52,3.86l-.32.62c.49.45.98.92,1.3,1.51,1.64,3.08,3.28,6.24,4.83,9.36.14.29.22.61.3.93s.11.67.14,1.02l-.87.02c-8.49-6.45-22.42-9-28.46,1.94l-.85.44c-10.64-21.8-15.02-49.12-.19-69.94,8.62-12.1,22.82-19.86,37.05-23.32,18.13-4.41,33.84.97,47.73,12.69Z"/><path class="cls-5" d="M816.66,336.61c2.72-1.64,5.47-2.11,8.6-2.05,21.92.44,41.39,32.24,31.2,51.83-1.46,2.81-3.18,5.06-5.98,6.64-4.35,3.7-11.65,4.71-17.11,3.73-18.65-3.35-33.03-25.83-29.29-44.24,1.41-6.97,5.78-13.31,12.58-15.92Z"/><path class="cls-7" d="M872.05,366.1c.09,8.16-3.16,16.4-10.23,20.89-3.48,2.21-7.69,4.05-11.34,6.05,22.82-19.42-6.31-66.99-33.82-56.43,1.45-1.08,3.14-1.89,4.72-2.75,7.32-3.97,11.46-7.04,20.24-5.67,16.88,2.64,30.24,21.32,30.43,37.92Z"/><path class="cls-5" d="M798.32,434.49l.29-1.01c7.73-7.67,7.68-19.54,4.74-29.38-4.07-13.61-15.35-25.55-29.66-28.06l-.95-.67c-.58-1.29-.92-2.61-1.81-3.76-.01-.07.56-.68.62-.71,3.45-2.01,9.26-2.37,13.16-1.79,20.88,3.06,37.54,30.05,30.34,50-2.98,8.27-9.14,11.75-16.72,15.39Z"/><path class="cls-7" d="M798.32,434.49c-6.42,5.69-15.99,6.52-23.7,3.32,1.73.34,4.42.4,6.17.16,5.24-1.89,9.29-3.75,11.72-9.09,5.97-13.11-2.42-31.01-12.81-39.67l-.41-1.02c-2.26-4.23-4.59-8.44-6.56-12.82,11.35,1.32,21.53,9.67,27.17,19.36,6.62,11.39,9.39,30.04-1.58,39.76Z"/><path class="cls-14" d="M779.3,388.19c10.33,8.05,18.33,24.46,14.91,37.55-1.77,6.78-6.33,11.27-13.41,12.23,12.06-9.43,7.79-26.92-.7-37.35-7.86-9.66-22.88-16.19-32.38-4.81.35-1.72.59-3.62,1.41-5.22,6.29-12.35,21.05-9.51,30.18-2.41Z"/><path class="cls-18" d="M754.38,401.08c1.71-.87,3.63.5,5.11.97,8.74,2.75,16.24,6.92,18.2,16.79,1.67,8.43-1.63,14.86-10.74,9.93-7.58-4.1-13.41-13.65-14.21-22.14-.17-1.83-.26-4.57,1.64-5.55Z"/><path class="cls-18" d="M759.49,322.39s-.39.22-.52.5c-6.78,14.64-1.89,28.51-.51,43.31.36,3.88.15,15.43-6.63,11.07-4.13-2.66-6.49-10.19-7.38-14.82-1.96-10.13-.87-35.17,10.31-39.93.55-.23,5.01-1.3,4.73-.13Z"/><path class="cls-6" d="M828.86,381.85c-3.31,6.71-10.84.13-13.5-3.7-5.88-8.48-9.54-23.21-3.14-32.31,2.41-3.43,7.68-7.18,11.79-4.27,2.98,2.11.96,3.38.15,5.56-1.1,2.97-1.72,6.17-1.04,9.34.48.2.39.4-.15.35l-.11.82c-6.61,6.36.03,18.22,5.63,23.22l.37.99Z"/><path class="cls-26" d="M829.11,381.75l-.32-.69c.98-3.2-.09-6.55-1.25-9.58-2.29-4.47-3.94-9.1-4.95-13.9l.37-.76c.07-.06.08-.3.15-.35,12.28-9.01,26.34,12.39,19.92,23.06-2.96,4.91-9.59,5.59-13.93,2.22Z"/><path class="cls-18" d="M822.96,356.82c.45,1.67.65,3.56,1.18,5.2,1.79,5.52,7.43,13.84,4.96,19.73-.02.06-.22.04-.25.1-4.51-3.44-7.41-8.61-8.78-14.09-1.11-4.45-.79-7.81,2.88-10.94Z"/><g class="cls-25"><g class="cls-11"><path class="cls-19" d="M132.22,144.55s0,0,.01-.01c.18-.16.36-.34.55-.52,0,0,0,0,0,0,6.15-6.29,11.95-25.36,14.5-69.74.83-14.49-10.62-24.47-24.2-30.47-2-.89-4.05-1.69-6.12-2.4l-33.33-11.52c-2.36-.82-4.79-1.52-7.23-2.11-14.13-3.4-28.94-2.45-37.3,9.11-16.6,21.72-25.88,37.02-30.34,47.64,0-.03.01-.06.02-.09-2.88,6.84-3.76,11.74-3.32,15.17,0,.02,0,.03,0,.05.09.66.23,1.27.41,1.82,0,.01,0,.02.01.03.08.25.18.48.28.71.02.04.04.09.06.13.1.21.21.42.32.62.01.02.02.04.03.06.13.21.27.42.41.61.03.04.06.08.09.11.11.14.23.28.36.41.05.05.1.11.15.16.12.12.24.23.37.34.05.04.1.09.15.13.17.13.34.26.52.38.07.05.14.09.22.13.12.07.24.14.36.21.09.05.18.1.27.14.11.06.23.11.34.16.1.04.19.08.29.12.19.07.38.14.58.2.12.04.24.07.36.1.1.03.21.06.31.08.13.03.26.06.39.09.1.02.2.04.3.06.14.02.27.05.41.07.04,0,.08,0,.12.01.32.04.64.07.97.09.09,0,.18.01.27.02.16,0,.32.01.47.01.09,0,.18,0,.27,0,.55,0,1.11-.03,1.68-.08.09,0,.17-.02.26-.02.17-.02.34-.04.51-.06.1-.01.19-.02.29-.04.17-.02.34-.05.51-.07.05,0,.09-.02.14-.02.34-.06.69-.12,1.03-.19.11-.02.22-.04.33-.07.16-.03.31-.07.47-.1.12-.03.24-.06.36-.09.15-.04.29-.07.44-.11.19-.05.38-.1.57-.15.17-.05.34-.1.51-.15.16-.05.32-.09.48-.14.12-.04.23-.07.35-.11.17-.05.34-.11.5-.17.1-.03.2-.06.29-.1.26-.09.52-.18.78-.28.04-.01.07-.03.11-.04.23-.09.47-.18.7-.27.06-.03.13-.05.19-.08.22-.09.44-.18.65-.27.04-.02.08-.03.12-.05.53-.23,1.05-.47,1.55-.71.01,0,.02-.01.03-.02,2.04-1,3.71-2.06,4.69-2.99,10.49-9.88,15.62-17.11,25.66-13.64l43.34,14.98c5.97,2.06,8.18,6.01,9.4,11.82.83,3.97,1.19,8.82,1.96,14.54.44,3.24,4.14,11.51,9.02,15.84,0,0,.01.01.02.02.31.28.63.54.95.78.02.01.04.03.06.04.31.23.63.45.95.64.03.02.06.03.08.05.31.19.63.35.95.5.03.02.07.03.1.05.16.07.32.14.48.2,0,0,.02,0,.03.01.15.05.3.1.45.15.04.01.08.02.11.03.16.05.32.09.48.12.02,0,.04,0,.05.01.14.03.29.05.43.07.04,0,.08.01.12.02.16.02.32.03.48.04.02,0,.05,0,.07,0,.14,0,.29,0,.43,0,.04,0,.07,0,.11,0,.16,0,.32-.02.49-.05.02,0,.04,0,.07-.01.15-.02.3-.05.44-.09.03,0,.06-.01.1-.02.17-.04.33-.09.5-.15.02,0,.04-.01.06-.02.15-.05.31-.11.46-.18.03-.01.05-.02.08-.03.17-.08.34-.16.51-.25.01,0,.03-.02.04-.03.16-.09.33-.19.49-.3.02-.01.03-.02.05-.03.18-.12.35-.24.53-.38,0,0,.02-.01.03-.02.18-.14.35-.28.53-.44"/><path class="cls-16" d="M145.9,69.61c.83-14.49-10.62-24.47-24.19-30.47l-13.36,7.37c-1.81,1-3.98,1.18-5.95.5l-17.34-5.99c-1.97-.68-3.54-2.16-4.33-4.06l-5.7-13.86c-14.13-3.4-28.94-2.45-37.3,9.11-67.02,87.69-14.86,70.82-7,63.41,10.49-9.89,15.61-17.11,25.66-13.64l43.34,14.98c10.05,3.47,9.46,12.28,11.36,26.36,1.23,9.12,28.38,58.27,34.8-53.73"/><path class="cls-3" d="M85.06,41.02l17.34,5.99c1.97.68,4.14.5,5.95-.5l13.36-7.37c-2-.89-4.05-1.69-6.12-2.4l-33.33-11.52c-2.36-.82-4.79-1.52-7.23-2.11l5.7,13.86c.78,1.9,2.36,3.38,4.33,4.06"/><path class="cls-3" d="M111.11,123.33c-1.9-14.07-1.32-22.89-11.37-26.36l-43.34-14.98c-10.05-3.47-15.17,3.75-25.66,13.64-5.93,5.58-36.97,16.51-23.32-15.86-6.8,24.23,20.17,14.46,25.66,9.31,10.49-9.88,15.61-17.11,25.66-13.64l43.34,14.98c10.05,3.47,9.47,12.29,11.37,26.36.86,6.4,14.52,32.58,24.8,8.73-10.4,34.62-26.2,4.73-27.13-2.17"/><path class="cls-15" d="M119.08,61.38c-.76,2.14-3.16,3.27-5.35,2.51-2.19-.76-3.35-3.11-2.58-5.25s3.16-3.27,5.35-2.51c2.19.76,3.35,3.11,2.58,5.25"/><path class="cls-13" d="M137.1,67.6c-.76,2.14-3.16,3.27-5.35,2.51-2.19-.76-3.35-3.11-2.58-5.25.76-2.14,3.16-3.27,5.35-2.51,2.19.76,3.35,3.11,2.58,5.25"/><path class="cls-22" d="M125.89,58.18c-2.19-.76-3.35-3.11-2.58-5.25.76-2.14,3.16-3.27,5.35-2.51,2.19.76,3.35,3.11,2.58,5.25-.76,2.14-3.16,3.27-5.35,2.51"/><path class="cls-10" d="M119.6,75.82c-2.19-.76-3.35-3.11-2.58-5.25.76-2.14,3.16-3.27,5.35-2.51,2.19.76,3.35,3.11,2.58,5.25-.76,2.14-3.16,3.27-5.35,2.51"/><path class="cls-3" d="M76.63,67.16c-1.9,5.32-7.84,8.1-13.27,6.23-5.43-1.88-8.3-7.71-6.4-13.03,1.9-5.32,7.84-8.1,13.27-6.22,5.43,1.88,8.3,7.71,6.4,13.03"/><polygon class="cls-2" points="76.02 64.49 71.49 62.92 73.07 58.49 67.31 56.5 65.73 60.93 61.2 59.37 59.19 65 63.72 66.57 62.14 71 67.9 72.99 69.48 68.56 74.01 70.12 76.02 64.49"/><polygon class="cls-20" points="75.2 63.5 70.68 61.94 72.25 57.51 66.49 55.52 64.92 59.95 60.39 58.38 58.38 64.02 62.91 65.59 61.33 70.01 67.09 72.01 68.67 67.58 73.19 69.14 75.2 63.5"/><polygon class="cls-2" points="59.19 65 58.38 64.02 62.91 65.58 59.19 65"/><polygon class="cls-2" points="61.33 70.01 62.14 71 65.71 72.23 65.77 71.55 61.33 70.01"/><polygon class="cls-2" points="75.2 63.5 76.02 64.49 74.78 67.95 73.95 67.01 75.2 63.5"/><polygon class="cls-2" points="72.25 57.51 73.07 58.49 71.84 61.95 71.83 58.7 72.25 57.51"/><path class="cls-3" d="M110.2,83.88c-1.97,2.58-6.61,3.4-11.24,1.8-4.63-1.6-7.7-5.09-7.6-8.32,0-.5,1.04-4.41,1.47-4.87.06,1.38.43,4.64,1.53,5.91,1.33,1.62,3.34,3,5.82,3.85,2.48.86,4.92,1.02,7.01.58,1.65-.32,4.01-2.63,4.95-3.67,0,.12-1.94,4.71-1.94,4.71"/><path class="cls-1" d="M112.14,79.17c-.17.48-.42.92-.74,1.33-.08.09-.15.18-.23.27-.94,1.03-2.33,1.75-3.98,2.07-2.08.43-4.53.28-7.01-.58-2.48-.86-4.49-2.24-5.82-3.85-1.1-1.27-1.74-2.69-1.79-4.07-.04-.63.05-1.24.26-1.84,1.27-3.55,6.61-4.94,11.94-3.1,5.33,1.84,8.64,6.22,7.37,9.77"/><path class="cls-9" d="M109.43,77.94c-1.52,2.12-4.96,2.91-8.32,1.75-3.36-1.16-5.53-3.88-5.37-6.48.01-.4,1.08-4.01,1.41-4.39,0,1.11,0,4.16.78,5.15.94,1.26,2.38,2.32,4.18,2.94,1.8.62,3.6.69,5.14.28,1.22-.3,3.11-2.49,3.83-3.35,0,.09-1.64,4.1-1.64,4.1"/><path class="cls-1" d="M110.98,74.11c-.14.39-.33.75-.58,1.08-.06.08-.12.15-.18.22-.72.86-1.77,1.47-2.99,1.77-1.55.4-3.34.34-5.14-.28-1.8-.62-3.24-1.68-4.18-2.94-.78-.99-1.21-2.12-1.21-3.22-.01-.5.07-1,.24-1.48,1.03-2.89,5-4.14,8.87-2.8s6.19,4.77,5.16,7.65"/><path class="cls-3" d="M65.73,45.77c-1.97,2.58-6.61,3.4-11.24,1.8-4.63-1.6-7.7-5.09-7.6-8.32,0-.5,1.04-4.41,1.47-4.87.06,1.38.43,4.64,1.53,5.91,1.33,1.62,3.34,3,5.82,3.85,2.48.86,4.92,1.02,7.01.58,1.65-.32,4.01-2.63,4.95-3.67,0,.12-1.94,4.71-1.94,4.71"/><path class="cls-1" d="M67.67,41.06c-.17.48-.42.92-.74,1.33-.08.09-.15.18-.23.27-.94,1.03-2.34,1.75-3.98,2.07-2.08.43-4.53.28-7.01-.58-2.48-.86-4.49-2.24-5.82-3.85-1.1-1.27-1.74-2.69-1.79-4.07-.04-.63.05-1.24.26-1.84,1.27-3.55,6.61-4.94,11.94-3.1,5.33,1.84,8.64,6.22,7.37,9.77"/><path class="cls-9" d="M64.96,39.83c-1.52,2.12-4.96,2.91-8.32,1.75s-5.53-3.88-5.37-6.48c.01-.4,1.08-4.01,1.41-4.39,0,1.11,0,4.16.78,5.15.94,1.26,2.38,2.32,4.18,2.94,1.8.62,3.6.69,5.14.28,1.22-.3,3.11-2.49,3.83-3.35,0,.09-1.64,4.1-1.64,4.1"/><path class="cls-1" d="M66.51,36c-.14.39-.33.75-.58,1.08-.06.08-.12.15-.18.22-.72.86-1.77,1.47-2.99,1.77-1.55.4-3.34.34-5.14-.28-1.8-.62-3.24-1.68-4.18-2.94-.78-.99-1.21-2.12-1.21-3.22-.01-.5.07-1,.24-1.48,1.03-2.89,5-4.14,8.87-2.8,3.87,1.34,6.19,4.77,5.16,7.65"/></g></g></svg>