<?xml version="1.0" encoding="UTF-8"?><svg id="Layer_1" xmlns="http://www.w3.org/2000/svg" viewBox="0 0 571.08 327.41"><defs><style>.cls-1{fill:#ffefe5;}.cls-2{fill:#dc4145;}.cls-3{fill:#952f3a;}.cls-4{fill:#a54841;}.cls-5{fill:#c3243e;}</style></defs><path class="cls-3" d="M8.39,37.52C12.26,127.74,3.64,247.69.05,301.02c-.99,14.66,14.2,26.65,33.34,26.32,209.9-3.61,421.85-1.17,504.44.07,19.4.29,34.62-12.08,33.16-26.92-11.13-112.89-14.4-217.78-14.73-263.73-.1-13.57-14.21-24.67-32.49-24.43-205.59,2.71-404.98.91-483.51-.02-18.7-.22-32.44,11.35-31.85,25.22Z"/><path class="cls-2" d="M7.58,26.2c7.09,92.29,4.62,211.63,3.03,263.5-.43,14.13,14.56,25.66,32.92,25.34,201.39-3.47,404.8-1.12,484.01.07,18.61.28,33.65-11.61,32.77-25.92-6.79-110.68-5.1-216.58-3.77-263.86.39-14.07-14.5-25.55-32.79-25.3C318.15,2.85,118.79.98,40.24,0,21.53-.23,6.48,11.82,7.58,26.2Z"/><path class="cls-4" d="M53.26,58.16c4.54,64.52,3.26,142.44,2.04,184.4-.48,16.49,12.89,30.05,29.39,29.79,165.86-2.62,332.93-.88,400.68.05,16.8.23,30.3-13.85,29.3-30.62-4.49-75.21-3.75-146.25-2.78-184.88.41-16.42-12.89-29.9-29.31-29.69-169.15,2.13-332.86.75-400.11-.01-16.92-.19-30.4,14.09-29.21,30.97Z"/><path class="cls-1" d="M62.56,55.71c5.31,66.1,3.56,149.99,2.3,188.85-.38,11.73,12.03,21.32,27.26,21.08,160.23-2.52,321.87-.83,385.97.05,15.48.21,27.93-9.71,27.15-21.61-5.13-78.65-3.96-153.62-2.93-189.12.34-11.68-12-21.22-27.17-21.03-163.52,2.05-321.92.7-385.51-.02-15.55-.18-28.04,9.86-27.08,21.8Z"/><path class="cls-5" d="M528.16,56.39c-.01-.24-.11-.46-.28-.67-.32-.39-.8-.73-1.4-.83-.21-.02-.42-.04-.62-.06-.42,0-.82.08-1.18.25-.93.55-1.86,1.1-2.78,1.65-.27.11-.49.27-.66.46-.21.17-.35.38-.42.61-.1.24-.11.48-.04.72.01.24.11.46.28.67.32.39.8.73,1.4.83.21.02.42.04.62.06.42,0,.82-.08,1.18-.25.93-.55,1.86-1.1,2.78-1.65.27-.11.49-.27.66-.47.21-.17.35-.38.42-.61.1-.24.11-.48.04-.72Z"/><path class="cls-5" d="M532.18,61.98l-.37-.37c-.29-.22-.64-.38-1.04-.46-1.2-.14-2.39-.28-3.59-.42-.31-.08-.62-.09-.94-.03-.31.01-.6.08-.87.21-.49.22-.95.65-1.08,1.08-.14.46-.11.98.24,1.39l.37.37c.29.22.64.38,1.04.46,1.2.14,2.39.28,3.59.42.31.08.62.09.94.03.31-.01.6-.08.87-.21.49-.22.95-.65,1.08-1.08.14-.46.11-.98-.24-1.39Z"/><path class="cls-5" d="M492.78,278.85c-.01-.24-.11-.46-.28-.67-.15-.21-.35-.38-.6-.51-.23-.16-.49-.27-.8-.32-.6-.11-1.27-.08-1.81.18l-.47.28c-.29.23-.49.49-.6.8-.36.75-.71,1.5-1.06,2.25-.1.24-.11.48-.04.72.01.24.11.46.28.67.15.21.35.38.6.51.23.16.49.27.8.32.6.11,1.27.08,1.81-.18l.47-.28c.29-.23.49-.49.6-.8.36-.75.71-1.5,1.06-2.25.1-.24.11-.48.04-.72Z"/><path class="cls-5" d="M502.09,282.69c-.62-.89-1.24-1.78-1.86-2.66-.27-.39-.85-.71-1.4-.83-.31-.08-.62-.09-.94-.03-.31.01-.6.08-.87.21-.5.25-.94.62-1.08,1.08-.14.48-.07.95.24,1.39.62.89,1.24,1.78,1.86,2.66.27.39.85.71,1.4.83.31.08.62.09.94.03.31-.01.6-.08.87-.21.5-.25.94-.62,1.08-1.08.14-.48.07-.95-.24-1.39Z"/><path class="cls-5" d="M532.94,221.65l-.24-.43c-.21-.27-.49-.49-.84-.65-.19-.06-.37-.12-.56-.18-.42-.09-.83-.09-1.25,0l-1.33.41c-.31.06-.57.16-.8.32-.26.13-.46.3-.6.51-.17.21-.26.43-.28.67-.07.24-.06.48.04.72l.24.43c.21.27.49.49.84.65.19.06.37.12.56.18.42.09.83.09,1.25,0,.44-.14.89-.27,1.33-.41.31-.06.57-.16.8-.32.26-.13.46-.3.6-.51.17-.21.26-.43.28-.67.07-.24.06-.48-.04-.72Z"/><path class="cls-5" d="M43.58,118.77l-.47-.28c-.37-.16-.76-.25-1.18-.25-.89-.07-1.77-.14-2.66-.2-.32,0-.62.04-.9.16-.29.07-.54.2-.75.37-.23.16-.39.36-.49.58-.15.22-.21.45-.2.7.03.47.23.95.69,1.28l.47.28c.37.16.76.25,1.18.25.89.07,1.78.13,2.66.2.32,0,.62-.04.9-.16.29-.07.54-.2.76-.37.23-.16.39-.36.49-.58.15-.22.21-.45.2-.7-.03-.47-.23-.95-.69-1.28Z"/><path class="cls-5" d="M42.09,126.6c-.01-.24-.11-.46-.28-.67l-.37-.37c-.29-.22-.64-.38-1.04-.46-.21-.02-.42-.04-.62-.06-.42,0-.82.08-1.18.25-.71.34-1.42.68-2.13,1.02-.27.11-.49.27-.66.46-.21.17-.35.38-.42.61-.1.24-.11.48-.04.72.01.24.11.46.28.67l.37.37c.29.22.64.38,1.04.46.21.02.42.04.62.06.42,0,.82-.08,1.18-.25.71-.34,1.42-.68,2.13-1.02.27-.11.49-.27.66-.46.21-.17.35-.38.42-.61.1-.24.11-.48.04-.72Z"/><path class="cls-5" d="M128.83,13.46c-.11-.31-.31-.57-.6-.8-.53-.34-1.06-.68-1.6-1.02-.21-.18-.46-.3-.75-.37-.28-.11-.58-.16-.9-.16-.32,0-.62.04-.9.16-.29.07-.54.2-.75.37l-.37.37c-.21.28-.32.59-.32.91.03.16.06.32.08.48.11.31.31.57.6.8.53.34,1.06.68,1.6,1.02.21.18.46.3.76.37.28.11.58.16.9.16.32,0,.62-.04.9-.16.29-.07.54-.2.75-.37.12-.12.24-.24.37-.37.21-.28.32-.59.32-.91-.03-.16-.06-.32-.08-.48Z"/><path class="cls-5" d="M95.55,290.29c-.35-1.3-.71-2.6-1.06-3.89-.12-.43-.6-.86-1.08-1.08-.5-.23-1.24-.32-1.81-.18-.57.14-1.12.41-1.4.83-.31.44-.37.9-.24,1.39.35,1.3.71,2.6,1.06,3.89.12.43.6.86,1.08,1.08.5.23,1.24.32,1.81.18.57-.14,1.12-.41,1.4-.83.31-.44.37-.9.24-1.39Z"/><path class="cls-5" d="M42,257.22c-.18-.44-.54-.86-1.08-1.08-.52-.21-1.24-.36-1.81-.18-1.59.49-3.18.99-4.77,1.48-.31.06-.57.16-.8.32-.26.13-.46.3-.6.51-.29.39-.42.96-.24,1.39.18.44.54.86,1.08,1.08.52.21,1.24.36,1.81.18,1.59-.49,3.18-.99,4.77-1.48.31-.06.57-.16.8-.32.26-.13.46-.3.6-.51.29-.39.42-.96.24-1.39Z"/><path class="cls-5" d="M38.08,251.75c-.31-.38-.81-.75-1.4-.83-.98-.14-1.95-.27-2.93-.41-.31-.08-.62-.09-.94-.03-.31.01-.6.08-.87.21-.27.11-.49.27-.66.47-.21.17-.35.38-.42.61-.14.46-.11.98.24,1.39.31.38.81.75,1.4.83.98.14,1.95.27,2.93.41.31.08.62.09.94.03.31-.01.6-.08.87-.21.27-.11.49-.27.66-.46.21-.17.35-.38.42-.61.14-.46.11-.98-.24-1.39Z"/><path class="cls-5" d="M324.91,276.76c-.09-.22-.26-.42-.49-.58-.45-.32-1.03-.55-1.66-.53-.21.02-.42.04-.62.06-.4.09-.74.24-1.04.46-.8.61-1.6,1.23-2.4,1.84-.23.16-.39.36-.49.58-.15.22-.21.45-.2.7-.01.25.06.48.2.7.09.22.26.42.49.58.45.32,1.03.55,1.66.53.21-.02.42-.04.62-.06.4-.09.74-.24,1.04-.46.8-.61,1.6-1.23,2.4-1.84.23-.16.39-.36.49-.58.15-.22.21-.45.2-.7.01-.25-.06-.48-.2-.7Z"/><path class="cls-5" d="M331.7,279.83c-.09-.22-.26-.42-.48-.58-.21-.18-.46-.3-.76-.37-.28-.11-.58-.16-.9-.16-.21.02-.42.04-.62.06-.4.09-.74.24-1.04.46l-.37.37c-.21.28-.32.59-.32.91v1.54c-.01.25.06.48.2.7.09.22.26.42.49.58.21.18.46.3.75.37.28.11.58.17.9.16.21-.02.42-.04.62-.06.4-.09.74-.24,1.04-.46.12-.12.24-.24.37-.37.21-.28.32-.59.32-.91v-1.54c.01-.25-.05-.48-.2-.7Z"/><path class="cls-5" d="M317.44,14.79c-.11-.31-.31-.57-.6-.8-.8-.61-1.6-1.23-2.4-1.84-.21-.18-.46-.3-.76-.37-.28-.11-.58-.16-.9-.16-.32,0-.62.04-.9.16-.29.07-.54.2-.75.37-.41.34-.72.8-.69,1.28.03.16.06.32.08.48.11.31.31.57.6.8l2.4,1.84c.21.18.46.3.76.37.28.11.58.16.9.16.32,0,.62-.04.9-.16.29-.07.54-.2.75-.37.41-.34.72-.8.69-1.28-.03-.16-.06-.32-.08-.48Z"/><path class="cls-5" d="M324.37,12.81c.01-.25-.06-.48-.2-.7-.09-.22-.26-.42-.49-.58-.21-.18-.46-.3-.75-.37-.28-.11-.58-.16-.9-.16-.61.02-1.24.17-1.66.53-.12.12-.24.24-.37.37-.21.28-.32.59-.32.91l.4,2.46c-.01.25.06.48.2.7.09.22.26.42.48.58.21.18.46.3.75.37.28.11.58.16.9.16.61-.02,1.24-.17,1.66-.53l.37-.37c.21-.28.32-.59.32-.91l-.4-2.46Z"/></svg>